G04 #@! TF.FileFunction,Soldermask,Top*
%FSLAX46Y46*%
G04 Gerber Fmt 4.6, Leading zero omitted, Abs format (unit mm)*
G04 Created by KiCad (PCBNEW (2015-01-16 BZR 5376)-product) date 7/2/2015 3:57:03 PM*
%MOMM*%
G01*
G04 APERTURE LIST*
%ADD10C,0.150000*%
%ADD11C,0.381000*%
%ADD12R,2.308000X0.908000*%
%ADD13O,1.458000X1.758000*%
%ADD14R,2.058000X3.008000*%
%ADD15C,5.508000*%
%ADD16C,0.807720*%
%ADD17R,2.159000X2.159000*%
%ADD18O,2.794000X2.286000*%
%ADD19O,2.794000X2.413000*%
G04 APERTURE END LIST*
D10*
D11*
X28500000Y-39500000D02*
X28500000Y-37000000D01*
X28500000Y-39500000D02*
X31000000Y-39500000D01*
X58500000Y-39500000D02*
X56000000Y-39500000D01*
X58500000Y-39500000D02*
X58500000Y-37000000D01*
X28500000Y-19500000D02*
X28500000Y-22000000D01*
X28500000Y-19500000D02*
X31000000Y-19500000D01*
X58500000Y-19500000D02*
X58500000Y-22000000D01*
X58500000Y-19500000D02*
X56000000Y-19500000D01*
D12*
X34708000Y-28327100D03*
X34708000Y-28977100D03*
X34708000Y-29627100D03*
X34708000Y-30277100D03*
X34708000Y-30927100D03*
D13*
X34470540Y-27127100D03*
X34470540Y-32127100D03*
D14*
X31808000Y-25028000D03*
X31808000Y-34128000D03*
D15*
X45608000Y-36740000D03*
X45500000Y-22500000D03*
D10*
G36*
X41984466Y-28650050D02*
X42507117Y-28127399D01*
X43573972Y-29194254D01*
X43051321Y-29716905D01*
X41984466Y-28650050D01*
X41984466Y-28650050D01*
G37*
G36*
X42338288Y-28296228D02*
X42860939Y-27773577D01*
X43927794Y-28840432D01*
X43405143Y-29363083D01*
X42338288Y-28296228D01*
X42338288Y-28296228D01*
G37*
G36*
X42692111Y-27942406D02*
X43214762Y-27419755D01*
X44281617Y-28486610D01*
X43758966Y-29009261D01*
X42692111Y-27942406D01*
X42692111Y-27942406D01*
G37*
G36*
X43045933Y-27588584D02*
X43568584Y-27065933D01*
X44635439Y-28132788D01*
X44112788Y-28655439D01*
X43045933Y-27588584D01*
X43045933Y-27588584D01*
G37*
G36*
X43399755Y-27234762D02*
X43922406Y-26712111D01*
X44989261Y-27778966D01*
X44466610Y-28301617D01*
X43399755Y-27234762D01*
X43399755Y-27234762D01*
G37*
G36*
X43753577Y-26880939D02*
X44276228Y-26358288D01*
X45343083Y-27425143D01*
X44820432Y-27947794D01*
X43753577Y-26880939D01*
X43753577Y-26880939D01*
G37*
G36*
X44107399Y-26527117D02*
X44630050Y-26004466D01*
X45696905Y-27071321D01*
X45174254Y-27593972D01*
X44107399Y-26527117D01*
X44107399Y-26527117D01*
G37*
G36*
X45519095Y-27071321D02*
X46585950Y-26004466D01*
X47108601Y-26527117D01*
X46041746Y-27593972D01*
X45519095Y-27071321D01*
X45519095Y-27071321D01*
G37*
G36*
X45872917Y-27425143D02*
X46939772Y-26358288D01*
X47462423Y-26880939D01*
X46395568Y-27947794D01*
X45872917Y-27425143D01*
X45872917Y-27425143D01*
G37*
G36*
X46226739Y-27778966D02*
X47293594Y-26712111D01*
X47816245Y-27234762D01*
X46749390Y-28301617D01*
X46226739Y-27778966D01*
X46226739Y-27778966D01*
G37*
G36*
X46580561Y-28132788D02*
X47647416Y-27065933D01*
X48170067Y-27588584D01*
X47103212Y-28655439D01*
X46580561Y-28132788D01*
X46580561Y-28132788D01*
G37*
G36*
X46934383Y-28486610D02*
X48001238Y-27419755D01*
X48523889Y-27942406D01*
X47457034Y-29009261D01*
X46934383Y-28486610D01*
X46934383Y-28486610D01*
G37*
G36*
X47288206Y-28840432D02*
X48355061Y-27773577D01*
X48877712Y-28296228D01*
X47810857Y-29363083D01*
X47288206Y-28840432D01*
X47288206Y-28840432D01*
G37*
G36*
X47642028Y-29194254D02*
X48708883Y-28127399D01*
X49231534Y-28650050D01*
X48164679Y-29716905D01*
X47642028Y-29194254D01*
X47642028Y-29194254D01*
G37*
G36*
X47642028Y-30061746D02*
X48164679Y-29539095D01*
X49231534Y-30605950D01*
X48708883Y-31128601D01*
X47642028Y-30061746D01*
X47642028Y-30061746D01*
G37*
G36*
X47288206Y-30415568D02*
X47810857Y-29892917D01*
X48877712Y-30959772D01*
X48355061Y-31482423D01*
X47288206Y-30415568D01*
X47288206Y-30415568D01*
G37*
G36*
X46934383Y-30769390D02*
X47457034Y-30246739D01*
X48523889Y-31313594D01*
X48001238Y-31836245D01*
X46934383Y-30769390D01*
X46934383Y-30769390D01*
G37*
G36*
X46580561Y-31123212D02*
X47103212Y-30600561D01*
X48170067Y-31667416D01*
X47647416Y-32190067D01*
X46580561Y-31123212D01*
X46580561Y-31123212D01*
G37*
G36*
X46226739Y-31477034D02*
X46749390Y-30954383D01*
X47816245Y-32021238D01*
X47293594Y-32543889D01*
X46226739Y-31477034D01*
X46226739Y-31477034D01*
G37*
G36*
X45872917Y-31830857D02*
X46395568Y-31308206D01*
X47462423Y-32375061D01*
X46939772Y-32897712D01*
X45872917Y-31830857D01*
X45872917Y-31830857D01*
G37*
G36*
X45519095Y-32184679D02*
X46041746Y-31662028D01*
X47108601Y-32728883D01*
X46585950Y-33251534D01*
X45519095Y-32184679D01*
X45519095Y-32184679D01*
G37*
G36*
X44107399Y-32728883D02*
X45174254Y-31662028D01*
X45696905Y-32184679D01*
X44630050Y-33251534D01*
X44107399Y-32728883D01*
X44107399Y-32728883D01*
G37*
G36*
X43753577Y-32375061D02*
X44820432Y-31308206D01*
X45343083Y-31830857D01*
X44276228Y-32897712D01*
X43753577Y-32375061D01*
X43753577Y-32375061D01*
G37*
G36*
X43399755Y-32021238D02*
X44466610Y-30954383D01*
X44989261Y-31477034D01*
X43922406Y-32543889D01*
X43399755Y-32021238D01*
X43399755Y-32021238D01*
G37*
G36*
X43045933Y-31667416D02*
X44112788Y-30600561D01*
X44635439Y-31123212D01*
X43568584Y-32190067D01*
X43045933Y-31667416D01*
X43045933Y-31667416D01*
G37*
G36*
X42692111Y-31313594D02*
X43758966Y-30246739D01*
X44281617Y-30769390D01*
X43214762Y-31836245D01*
X42692111Y-31313594D01*
X42692111Y-31313594D01*
G37*
G36*
X42338288Y-30959772D02*
X43405143Y-29892917D01*
X43927794Y-30415568D01*
X42860939Y-31482423D01*
X42338288Y-30959772D01*
X42338288Y-30959772D01*
G37*
G36*
X41984466Y-30605950D02*
X43051321Y-29539095D01*
X43573972Y-30061746D01*
X42507117Y-31128601D01*
X41984466Y-30605950D01*
X41984466Y-30605950D01*
G37*
G36*
X44187323Y-29628000D02*
X45608000Y-28207323D01*
X47028677Y-29628000D01*
X45608000Y-31048677D01*
X44187323Y-29628000D01*
X44187323Y-29628000D01*
G37*
D16*
X45608000Y-26445397D03*
D17*
X56784000Y-22008000D03*
D18*
X56784000Y-24548000D03*
D19*
X56784000Y-27088000D03*
X56784000Y-29628000D03*
D18*
X56784000Y-32168000D03*
X56784000Y-34708000D03*
D19*
X56784000Y-37248000D03*
D10*
G36*
X40549790Y-25566643D02*
X39382357Y-24399210D01*
X40190580Y-23590987D01*
X41358013Y-24758420D01*
X40549790Y-25566643D01*
X40549790Y-25566643D01*
G37*
G36*
X41627420Y-24489013D02*
X40459987Y-23321580D01*
X41268210Y-22513357D01*
X42435643Y-23680790D01*
X41627420Y-24489013D01*
X41627420Y-24489013D01*
G37*
G36*
X52214643Y-24399210D02*
X51047210Y-25566643D01*
X50238987Y-24758420D01*
X51406420Y-23590987D01*
X52214643Y-24399210D01*
X52214643Y-24399210D01*
G37*
G36*
X51137013Y-23321580D02*
X49969580Y-24489013D01*
X49161357Y-23680790D01*
X50328790Y-22513357D01*
X51137013Y-23321580D01*
X51137013Y-23321580D01*
G37*
G36*
X42562643Y-34305210D02*
X41395210Y-35472643D01*
X40586987Y-34664420D01*
X41754420Y-33496987D01*
X42562643Y-34305210D01*
X42562643Y-34305210D01*
G37*
G36*
X41485013Y-33227580D02*
X40317580Y-34395013D01*
X39509357Y-33586790D01*
X40676790Y-32419357D01*
X41485013Y-33227580D01*
X41485013Y-33227580D01*
G37*
G36*
X51047210Y-32419357D02*
X52214643Y-33586790D01*
X51406420Y-34395013D01*
X50238987Y-33227580D01*
X51047210Y-32419357D01*
X51047210Y-32419357D01*
G37*
G36*
X49969580Y-33496987D02*
X51137013Y-34664420D01*
X50328790Y-35472643D01*
X49161357Y-34305210D01*
X49969580Y-33496987D01*
X49969580Y-33496987D01*
G37*
M02*
