G04 #@! TF.FileFunction,Copper,L1,Top,Signal*
%FSLAX46Y46*%
G04 Gerber Fmt 4.6, Leading zero omitted, Abs format (unit mm)*
G04 Created by KiCad (PCBNEW (2015-01-16 BZR 5376)-product) date 7/2/2015 3:56:48 PM*
%MOMM*%
G01*
G04 APERTURE LIST*
%ADD10C,0.150000*%
%ADD11C,0.381000*%
%ADD12C,0.254000*%
%ADD13R,1.800000X0.400000*%
%ADD14O,0.950000X1.250000*%
%ADD15R,1.550000X2.500000*%
%ADD16C,5.000000*%
%ADD17C,0.299720*%
%ADD18R,1.651000X1.651000*%
%ADD19O,2.286000X1.778000*%
%ADD20O,2.286000X1.905000*%
%ADD21C,1.143000*%
%ADD22C,1.270000*%
%ADD23C,0.304800*%
%ADD24C,0.508000*%
%ADD25C,0.355600*%
%ADD26C,0.635000*%
G04 APERTURE END LIST*
D10*
D11*
X28500000Y-39500000D02*
X28500000Y-37000000D01*
X28500000Y-39500000D02*
X31000000Y-39500000D01*
X58500000Y-39500000D02*
X56000000Y-39500000D01*
X58500000Y-39500000D02*
X58500000Y-37000000D01*
X28500000Y-19500000D02*
X28500000Y-22000000D01*
X28500000Y-19500000D02*
X31000000Y-19500000D01*
X58500000Y-19500000D02*
X58500000Y-22000000D01*
X58500000Y-19500000D02*
X56000000Y-19500000D01*
D12*
X30355905Y-21926357D02*
X30307524Y-21974738D01*
X30162381Y-22023119D01*
X30065619Y-22023119D01*
X29920477Y-21974738D01*
X29823715Y-21877976D01*
X29775334Y-21781214D01*
X29726953Y-21587690D01*
X29726953Y-21442548D01*
X29775334Y-21249024D01*
X29823715Y-21152262D01*
X29920477Y-21055500D01*
X30065619Y-21007119D01*
X30162381Y-21007119D01*
X30307524Y-21055500D01*
X30355905Y-21103881D01*
X30936477Y-22023119D02*
X30839715Y-21974738D01*
X30791334Y-21926357D01*
X30742953Y-21829595D01*
X30742953Y-21539310D01*
X30791334Y-21442548D01*
X30839715Y-21394167D01*
X30936477Y-21345786D01*
X31081619Y-21345786D01*
X31178381Y-21394167D01*
X31226762Y-21442548D01*
X31275143Y-21539310D01*
X31275143Y-21829595D01*
X31226762Y-21926357D01*
X31178381Y-21974738D01*
X31081619Y-22023119D01*
X30936477Y-22023119D01*
X31710572Y-22023119D02*
X31710572Y-21345786D01*
X31710572Y-21442548D02*
X31758953Y-21394167D01*
X31855715Y-21345786D01*
X32000857Y-21345786D01*
X32097619Y-21394167D01*
X32146000Y-21490929D01*
X32146000Y-22023119D01*
X32146000Y-21490929D02*
X32194381Y-21394167D01*
X32291143Y-21345786D01*
X32436286Y-21345786D01*
X32533048Y-21394167D01*
X32581429Y-21490929D01*
X32581429Y-22023119D01*
X33065239Y-21345786D02*
X33065239Y-22361786D01*
X33065239Y-21394167D02*
X33162001Y-21345786D01*
X33355524Y-21345786D01*
X33452286Y-21394167D01*
X33500667Y-21442548D01*
X33549048Y-21539310D01*
X33549048Y-21829595D01*
X33500667Y-21926357D01*
X33452286Y-21974738D01*
X33355524Y-22023119D01*
X33162001Y-22023119D01*
X33065239Y-21974738D01*
D13*
X34708000Y-28327100D03*
X34708000Y-28977100D03*
X34708000Y-29627100D03*
X34708000Y-30277100D03*
X34708000Y-30927100D03*
D14*
X34470540Y-27127100D03*
X34470540Y-32127100D03*
D15*
X31808000Y-25028000D03*
X31808000Y-34128000D03*
D16*
X45608000Y-36740000D03*
X45500000Y-22500000D03*
D10*
G36*
X42343677Y-28650050D02*
X42507117Y-28486610D01*
X43214761Y-29194254D01*
X43051321Y-29357694D01*
X42343677Y-28650050D01*
X42343677Y-28650050D01*
G37*
G36*
X42697499Y-28296228D02*
X42860939Y-28132788D01*
X43568583Y-28840432D01*
X43405143Y-29003872D01*
X42697499Y-28296228D01*
X42697499Y-28296228D01*
G37*
G36*
X43051322Y-27942406D02*
X43214762Y-27778966D01*
X43922406Y-28486610D01*
X43758966Y-28650050D01*
X43051322Y-27942406D01*
X43051322Y-27942406D01*
G37*
G36*
X43405144Y-27588584D02*
X43568584Y-27425144D01*
X44276228Y-28132788D01*
X44112788Y-28296228D01*
X43405144Y-27588584D01*
X43405144Y-27588584D01*
G37*
G36*
X43758966Y-27234762D02*
X43922406Y-27071322D01*
X44630050Y-27778966D01*
X44466610Y-27942406D01*
X43758966Y-27234762D01*
X43758966Y-27234762D01*
G37*
G36*
X44112788Y-26880939D02*
X44276228Y-26717499D01*
X44983872Y-27425143D01*
X44820432Y-27588583D01*
X44112788Y-26880939D01*
X44112788Y-26880939D01*
G37*
G36*
X44466610Y-26527117D02*
X44630050Y-26363677D01*
X45337694Y-27071321D01*
X45174254Y-27234761D01*
X44466610Y-26527117D01*
X44466610Y-26527117D01*
G37*
G36*
X45878306Y-27071321D02*
X46585950Y-26363677D01*
X46749390Y-26527117D01*
X46041746Y-27234761D01*
X45878306Y-27071321D01*
X45878306Y-27071321D01*
G37*
G36*
X46232128Y-27425143D02*
X46939772Y-26717499D01*
X47103212Y-26880939D01*
X46395568Y-27588583D01*
X46232128Y-27425143D01*
X46232128Y-27425143D01*
G37*
G36*
X46585950Y-27778966D02*
X47293594Y-27071322D01*
X47457034Y-27234762D01*
X46749390Y-27942406D01*
X46585950Y-27778966D01*
X46585950Y-27778966D01*
G37*
G36*
X46939772Y-28132788D02*
X47647416Y-27425144D01*
X47810856Y-27588584D01*
X47103212Y-28296228D01*
X46939772Y-28132788D01*
X46939772Y-28132788D01*
G37*
G36*
X47293594Y-28486610D02*
X48001238Y-27778966D01*
X48164678Y-27942406D01*
X47457034Y-28650050D01*
X47293594Y-28486610D01*
X47293594Y-28486610D01*
G37*
G36*
X47647417Y-28840432D02*
X48355061Y-28132788D01*
X48518501Y-28296228D01*
X47810857Y-29003872D01*
X47647417Y-28840432D01*
X47647417Y-28840432D01*
G37*
G36*
X48001239Y-29194254D02*
X48708883Y-28486610D01*
X48872323Y-28650050D01*
X48164679Y-29357694D01*
X48001239Y-29194254D01*
X48001239Y-29194254D01*
G37*
G36*
X48001239Y-30061746D02*
X48164679Y-29898306D01*
X48872323Y-30605950D01*
X48708883Y-30769390D01*
X48001239Y-30061746D01*
X48001239Y-30061746D01*
G37*
G36*
X47647417Y-30415568D02*
X47810857Y-30252128D01*
X48518501Y-30959772D01*
X48355061Y-31123212D01*
X47647417Y-30415568D01*
X47647417Y-30415568D01*
G37*
G36*
X47293594Y-30769390D02*
X47457034Y-30605950D01*
X48164678Y-31313594D01*
X48001238Y-31477034D01*
X47293594Y-30769390D01*
X47293594Y-30769390D01*
G37*
G36*
X46939772Y-31123212D02*
X47103212Y-30959772D01*
X47810856Y-31667416D01*
X47647416Y-31830856D01*
X46939772Y-31123212D01*
X46939772Y-31123212D01*
G37*
G36*
X46585950Y-31477034D02*
X46749390Y-31313594D01*
X47457034Y-32021238D01*
X47293594Y-32184678D01*
X46585950Y-31477034D01*
X46585950Y-31477034D01*
G37*
G36*
X46232128Y-31830857D02*
X46395568Y-31667417D01*
X47103212Y-32375061D01*
X46939772Y-32538501D01*
X46232128Y-31830857D01*
X46232128Y-31830857D01*
G37*
G36*
X45878306Y-32184679D02*
X46041746Y-32021239D01*
X46749390Y-32728883D01*
X46585950Y-32892323D01*
X45878306Y-32184679D01*
X45878306Y-32184679D01*
G37*
G36*
X44466610Y-32728883D02*
X45174254Y-32021239D01*
X45337694Y-32184679D01*
X44630050Y-32892323D01*
X44466610Y-32728883D01*
X44466610Y-32728883D01*
G37*
G36*
X44112788Y-32375061D02*
X44820432Y-31667417D01*
X44983872Y-31830857D01*
X44276228Y-32538501D01*
X44112788Y-32375061D01*
X44112788Y-32375061D01*
G37*
G36*
X43758966Y-32021238D02*
X44466610Y-31313594D01*
X44630050Y-31477034D01*
X43922406Y-32184678D01*
X43758966Y-32021238D01*
X43758966Y-32021238D01*
G37*
G36*
X43405144Y-31667416D02*
X44112788Y-30959772D01*
X44276228Y-31123212D01*
X43568584Y-31830856D01*
X43405144Y-31667416D01*
X43405144Y-31667416D01*
G37*
G36*
X43051322Y-31313594D02*
X43758966Y-30605950D01*
X43922406Y-30769390D01*
X43214762Y-31477034D01*
X43051322Y-31313594D01*
X43051322Y-31313594D01*
G37*
G36*
X42697499Y-30959772D02*
X43405143Y-30252128D01*
X43568583Y-30415568D01*
X42860939Y-31123212D01*
X42697499Y-30959772D01*
X42697499Y-30959772D01*
G37*
G36*
X42343677Y-30605950D02*
X43051321Y-29898306D01*
X43214761Y-30061746D01*
X42507117Y-30769390D01*
X42343677Y-30605950D01*
X42343677Y-30605950D01*
G37*
G36*
X44546534Y-29628000D02*
X45608000Y-28566534D01*
X46669466Y-29628000D01*
X45608000Y-30689466D01*
X44546534Y-29628000D01*
X44546534Y-29628000D01*
G37*
D17*
X45608000Y-26445397D03*
D18*
X56784000Y-22008000D03*
D19*
X56784000Y-24548000D03*
D20*
X56784000Y-27088000D03*
X56784000Y-29628000D03*
D19*
X56784000Y-32168000D03*
X56784000Y-34708000D03*
D20*
X56784000Y-37248000D03*
D10*
G36*
X40549790Y-25207433D02*
X39741567Y-24399210D01*
X40190580Y-23950197D01*
X40998803Y-24758420D01*
X40549790Y-25207433D01*
X40549790Y-25207433D01*
G37*
G36*
X41627420Y-24129803D02*
X40819197Y-23321580D01*
X41268210Y-22872567D01*
X42076433Y-23680790D01*
X41627420Y-24129803D01*
X41627420Y-24129803D01*
G37*
G36*
X51855433Y-24399210D02*
X51047210Y-25207433D01*
X50598197Y-24758420D01*
X51406420Y-23950197D01*
X51855433Y-24399210D01*
X51855433Y-24399210D01*
G37*
G36*
X50777803Y-23321580D02*
X49969580Y-24129803D01*
X49520567Y-23680790D01*
X50328790Y-22872567D01*
X50777803Y-23321580D01*
X50777803Y-23321580D01*
G37*
G36*
X42203433Y-34305210D02*
X41395210Y-35113433D01*
X40946197Y-34664420D01*
X41754420Y-33856197D01*
X42203433Y-34305210D01*
X42203433Y-34305210D01*
G37*
G36*
X41125803Y-33227580D02*
X40317580Y-34035803D01*
X39868567Y-33586790D01*
X40676790Y-32778567D01*
X41125803Y-33227580D01*
X41125803Y-33227580D01*
G37*
G36*
X51047210Y-32778567D02*
X51855433Y-33586790D01*
X51406420Y-34035803D01*
X50598197Y-33227580D01*
X51047210Y-32778567D01*
X51047210Y-32778567D01*
G37*
G36*
X49969580Y-33856197D02*
X50777803Y-34664420D01*
X50328790Y-35113433D01*
X49520567Y-34305210D01*
X49969580Y-33856197D01*
X49969580Y-33856197D01*
G37*
D21*
X49926000Y-31850500D03*
X39893000Y-29882000D03*
X39639000Y-27215000D03*
X52656500Y-32739500D03*
X52847000Y-30834500D03*
X52974000Y-29247000D03*
D22*
X51958000Y-36105000D03*
D21*
X38115000Y-27850000D03*
X38750000Y-31152000D03*
X41480500Y-27469000D03*
X38940500Y-25627500D03*
D23*
X48082959Y-28568330D02*
X48082959Y-28550041D01*
X49926000Y-27977000D02*
X49926000Y-31850500D01*
X49608500Y-27659500D02*
X49926000Y-27977000D01*
X48973500Y-27659500D02*
X49608500Y-27659500D01*
X48082959Y-28550041D02*
X48973500Y-27659500D01*
D11*
X37988000Y-29627100D02*
X34470540Y-29627100D01*
D23*
X38115000Y-29628000D02*
X38114100Y-29627100D01*
X38114100Y-29627100D02*
X37988000Y-29627100D01*
X39893000Y-29882000D02*
X39638100Y-29627100D01*
X39638100Y-29627100D02*
X38115900Y-29627100D01*
X42179000Y-26199000D02*
X41671000Y-25691000D01*
X41671000Y-25691000D02*
X40909000Y-25691000D01*
X40909000Y-25691000D02*
X39639000Y-26961000D01*
X39639000Y-26961000D02*
X39639000Y-27215000D01*
X43840686Y-27860686D02*
X42179000Y-26199000D01*
X39400900Y-28977100D02*
X40528000Y-27850000D01*
D11*
X34470540Y-28977100D02*
X39400900Y-28977100D01*
D23*
X43486864Y-28205364D02*
X42496500Y-27215000D01*
X41671000Y-26389500D02*
X41099500Y-26389500D01*
X41099500Y-26389500D02*
X40528000Y-26961000D01*
X40528000Y-26961000D02*
X40528000Y-27850000D01*
X43486864Y-28205364D02*
X41671000Y-26389500D01*
X43486864Y-28214508D02*
X43486864Y-28205364D01*
X46313848Y-26799219D02*
X46341281Y-26799219D01*
D24*
X54498000Y-37248000D02*
X55768000Y-37248000D01*
X54180500Y-37248000D02*
X54498000Y-37248000D01*
X53863000Y-36930500D02*
X54180500Y-37248000D01*
D25*
X53863000Y-28866000D02*
X53863000Y-36930500D01*
D23*
X49672000Y-24675000D02*
X53863000Y-28866000D01*
X48465500Y-24675000D02*
X49672000Y-24675000D01*
X46341281Y-26799219D02*
X48465500Y-24675000D01*
D24*
X56784000Y-37248000D02*
X54498000Y-37248000D01*
D23*
X47729136Y-28214508D02*
X47729136Y-28205364D01*
X50688000Y-27977000D02*
X50688000Y-30771000D01*
X50688000Y-30771000D02*
X52656500Y-32739500D01*
X47729136Y-28205364D02*
X49100500Y-26834000D01*
X49100500Y-26834000D02*
X49545000Y-26834000D01*
X49545000Y-26834000D02*
X50180000Y-27469000D01*
X50180000Y-27469000D02*
X50688000Y-27977000D01*
X51259500Y-27723000D02*
X51259500Y-29247000D01*
X51259500Y-29247000D02*
X52847000Y-30834500D01*
X47957500Y-27278500D02*
X49037000Y-26199000D01*
X49037000Y-26199000D02*
X49735500Y-26199000D01*
X49735500Y-26199000D02*
X50688000Y-27151500D01*
X47375314Y-27860686D02*
X47957500Y-27278500D01*
X50688000Y-27151500D02*
X51259500Y-27723000D01*
X47021492Y-27506864D02*
X47030636Y-27506864D01*
X51577000Y-27342000D02*
X51704000Y-27469000D01*
X49672000Y-25437000D02*
X51577000Y-27342000D01*
X49100500Y-25437000D02*
X49672000Y-25437000D01*
X47030636Y-27506864D02*
X49100500Y-25437000D01*
X52148500Y-27913500D02*
X52148500Y-28421500D01*
X52148500Y-28421500D02*
X52974000Y-29247000D01*
X51577000Y-27342000D02*
X52148500Y-27913500D01*
X51226815Y-33407185D02*
X51292185Y-33407185D01*
D24*
X51292185Y-33407185D02*
X51958000Y-34073000D01*
X51958000Y-34073000D02*
X51958000Y-36105000D01*
X55768000Y-27088000D02*
X53736000Y-27088000D01*
X53736000Y-27088000D02*
X51226815Y-24578815D01*
D23*
X42779219Y-30333848D02*
X42743152Y-30333848D01*
X38115000Y-27850000D02*
X37637900Y-28327100D01*
D11*
X37637900Y-28327100D02*
X34470540Y-28327100D01*
D23*
X39639000Y-31152000D02*
X38750000Y-31152000D01*
X40274000Y-31152000D02*
X39639000Y-31152000D01*
X41036000Y-30390000D02*
X40274000Y-31152000D01*
X41036000Y-28612000D02*
X41036000Y-30390000D01*
X41290000Y-28358000D02*
X41036000Y-28612000D01*
X42179000Y-28358000D02*
X41290000Y-28358000D01*
X42743152Y-28922152D02*
X42179000Y-28358000D01*
X42779219Y-28922152D02*
X42743152Y-28922152D01*
X41925000Y-31152000D02*
X42743152Y-30333848D01*
X41925000Y-31152000D02*
X41417000Y-31152000D01*
X39639000Y-31152000D02*
X41417000Y-31152000D01*
D24*
X56784000Y-27088000D02*
X53736000Y-27088000D01*
X34470540Y-27127100D02*
X34470540Y-26477960D01*
D26*
X34470540Y-27127100D02*
X32377100Y-27127100D01*
X31808000Y-26558000D02*
X31808000Y-25028000D01*
X32377100Y-27127100D02*
X31808000Y-26558000D01*
X34470540Y-32127100D02*
X32122900Y-32127100D01*
X31808000Y-32442000D02*
X31808000Y-34128000D01*
X32122900Y-32127100D02*
X31808000Y-32442000D01*
D24*
X50149185Y-23501185D02*
X49418000Y-22770000D01*
D23*
X49418000Y-22770000D02*
X49291000Y-22770000D01*
X43510630Y-25564000D02*
X41447815Y-23501185D01*
X44194508Y-27506864D02*
X44185364Y-27506864D01*
X44185364Y-27506864D02*
X42750500Y-26072000D01*
X42750500Y-26072000D02*
X42750500Y-24803870D01*
D24*
X54498000Y-22008000D02*
X55768000Y-22008000D01*
X53037500Y-22008000D02*
X54498000Y-22008000D01*
X52529500Y-21500000D02*
X53037500Y-22008000D01*
X50180000Y-21500000D02*
X52529500Y-21500000D01*
X49418000Y-22262000D02*
X50180000Y-21500000D01*
X49418000Y-22770000D02*
X49418000Y-22262000D01*
D11*
X36942900Y-30927100D02*
X34470540Y-30927100D01*
D23*
X34470540Y-32127100D02*
X36631900Y-32127100D01*
D24*
X39217100Y-32127100D02*
X40497185Y-33407185D01*
X34470540Y-32127100D02*
X39217100Y-32127100D01*
X40528000Y-22579500D02*
X38369000Y-22579500D01*
X41447815Y-23499315D02*
X40528000Y-22579500D01*
X38369000Y-22579500D02*
X34470540Y-26477960D01*
D23*
X41447815Y-23501185D02*
X41447815Y-23499315D01*
D11*
X37303600Y-30277100D02*
X37113100Y-30277100D01*
X37416500Y-30390000D02*
X37303600Y-30277100D01*
X37113100Y-30277100D02*
X34470540Y-30277100D01*
X37416500Y-30707500D02*
X37416500Y-30390000D01*
X37196900Y-30927100D02*
X37416500Y-30707500D01*
X34470540Y-30927100D02*
X37196900Y-30927100D01*
X36695400Y-32127100D02*
X37416500Y-31406000D01*
X37416500Y-31406000D02*
X37416500Y-30390000D01*
X34470540Y-32127100D02*
X36695400Y-32127100D01*
X41447815Y-23501185D02*
X42750500Y-24803870D01*
D23*
X49291000Y-22770000D02*
X48275000Y-23786000D01*
X48275000Y-23786000D02*
X48275000Y-24040000D01*
X48275000Y-24040000D02*
X46751000Y-25564000D01*
X46751000Y-25564000D02*
X43510630Y-25564000D01*
D24*
X56784000Y-22008000D02*
X54498000Y-22008000D01*
D23*
X42052000Y-27469000D02*
X41480500Y-27469000D01*
X43133041Y-28550041D02*
X42052000Y-27469000D01*
X43133041Y-28568330D02*
X43133041Y-28550041D01*
X40370185Y-24578815D02*
X39989185Y-24578815D01*
X39385000Y-25627500D02*
X38940500Y-25627500D01*
X40370185Y-24642315D02*
X39385000Y-25627500D01*
X40370185Y-24578815D02*
X40370185Y-24642315D01*
X41574815Y-34484815D02*
X42306000Y-35216000D01*
D24*
X49291000Y-35343000D02*
X50149185Y-34484815D01*
X48910000Y-35343000D02*
X49291000Y-35343000D01*
D23*
X47259000Y-33692000D02*
X48910000Y-35343000D01*
X44211000Y-33692000D02*
X47259000Y-33692000D01*
X42687000Y-35216000D02*
X44211000Y-33692000D01*
X42306000Y-35216000D02*
X42687000Y-35216000D01*
M02*
