M48
;DRILL file {kicad (2015-01-16 BZR 5376)-product} date 7/2/2015 3:57:20 PM
;FORMAT={-:-/ absolute / metric / decimal}
FMAT,2
METRIC,TZ
T1C0.550
T2C0.762
T3C0.813
T4C3.048
%
G90
G05
M71
T2
X38.115Y-27.85
X38.75Y-31.152
X38.941Y-25.627
X39.639Y-27.215
X39.893Y-29.882
X41.48Y-27.469
X49.926Y-31.851
X51.958Y-36.105
X52.656Y-32.74
X52.847Y-30.834
X52.974Y-29.247
T3
X56.784Y-22.008
X56.784Y-24.548
X56.784Y-27.088
X56.784Y-29.628
X56.784Y-32.168
X56.784Y-34.708
X56.784Y-37.248
T4
X45.5Y-22.5
X45.608Y-36.74
T1
X34.471Y-26.977G85X34.471Y-27.277
G05
X34.471Y-31.977G85X34.471Y-32.277
G05
T0
M30
