M48
;DRILL file {kicad (2015-01-16 BZR 5376)-product} date 6/25/2015 4:26:08 PM
;FORMAT={-:-/ absolute / metric / decimal}
FMAT,2
METRIC,TZ
T1C0.762
T2C0.800
T3C0.813
T4C1.016
%
G90
G05
M71
T1
X208.28Y-124.968
X208.28Y-130.048
T2
X195.326Y-139.954
X197.866Y-134.366
X199.39Y-78.232
X206.121Y-147.828
X209.042Y-147.828
T3
X190.5Y-90.17
X190.5Y-92.71
X190.5Y-95.25
X190.5Y-97.79
X190.5Y-100.33
X190.5Y-102.87
X190.5Y-105.41
X190.5Y-107.95
X190.5Y-110.49
X190.5Y-113.03
X190.5Y-115.57
X190.5Y-118.11
X190.5Y-120.65
X190.5Y-123.19
X190.5Y-125.73
X190.5Y-128.27
X190.5Y-130.81
X190.5Y-133.35
X190.5Y-135.89
X190.5Y-138.43
X190.96Y-144.
X196.04Y-144.
X200.66Y-90.17
X200.66Y-92.71
X200.66Y-95.25
X200.66Y-97.79
X200.66Y-100.33
X200.66Y-102.87
X200.66Y-105.41
X200.66Y-107.95
X200.66Y-110.49
X200.66Y-113.03
X200.66Y-115.57
X200.66Y-118.11
X200.66Y-120.65
X200.66Y-123.19
X200.66Y-125.73
X200.66Y-128.27
X200.66Y-130.81
X200.66Y-133.35
X200.66Y-135.89
X200.66Y-138.43
X200.914Y-143.51
X203.454Y-143.51
X204.724Y-80.01
X205.994Y-143.51
X207.264Y-80.01
X208.534Y-143.51
X209.804Y-80.01
X211.074Y-143.51
X212.344Y-80.01
X213.614Y-143.51
X214.884Y-80.01
X215.9Y-90.17
X215.9Y-92.71
X215.9Y-95.25
X215.9Y-97.79
X215.9Y-100.33
X215.9Y-102.87
X215.9Y-105.41
X215.9Y-107.95
X215.9Y-110.49
X215.9Y-113.03
X215.9Y-115.57
X215.9Y-118.11
X215.9Y-120.65
X215.9Y-123.19
X215.9Y-125.73
X215.9Y-128.27
X215.9Y-130.81
X215.9Y-133.35
X215.9Y-135.89
X215.9Y-138.43
X216.154Y-143.51
X217.424Y-80.01
X226.06Y-90.17
X226.06Y-92.71
X226.06Y-95.25
X226.06Y-97.79
X226.06Y-100.33
X226.06Y-102.87
X226.06Y-105.41
X226.06Y-107.95
X226.06Y-110.49
X226.06Y-113.03
X226.06Y-115.57
X226.06Y-118.11
X226.06Y-120.65
X226.06Y-123.19
X226.06Y-125.73
X226.06Y-128.27
X226.06Y-130.81
X226.06Y-133.35
X226.06Y-135.89
X226.06Y-138.43
X226.06Y-143.51
X226.06Y-146.05
T4
X194.056Y-130.302
T0
M30
