G04 #@! TF.FileFunction,Soldermask,Top*
%FSLAX46Y46*%
G04 Gerber Fmt 4.6, Leading zero omitted, Abs format (unit mm)*
G04 Created by KiCad (PCBNEW (2015-01-16 BZR 5376)-product) date 6/25/2015 4:24:31 PM*
%MOMM*%
G01*
G04 APERTURE LIST*
%ADD10C,0.150000*%
%ADD11C,0.100000*%
%ADD12R,1.524000X2.032000*%
%ADD13R,1.574800X2.286000*%
%ADD14O,1.574800X2.286000*%
%ADD15R,2.286000X1.574800*%
%ADD16O,2.286000X1.574800*%
%ADD17C,1.422400*%
%ADD18R,2.032000X1.524000*%
%ADD19R,1.397000X1.397000*%
%ADD20C,1.397000*%
G04 APERTURE END LIST*
D10*
D11*
X228500000Y-150000000D02*
X188500000Y-150000000D01*
X228500000Y-75000000D02*
X228500000Y-150000000D01*
X188500000Y-75000000D02*
X188500000Y-150000000D01*
X188500000Y-75000000D02*
X228500000Y-75000000D01*
D12*
X206121000Y-97028000D03*
X209423000Y-97028000D03*
X206629000Y-119380000D03*
X209931000Y-119380000D03*
X206629000Y-135636000D03*
X209931000Y-135636000D03*
X206121000Y-106680000D03*
X209423000Y-106680000D03*
X206121000Y-103124000D03*
X209423000Y-103124000D03*
D13*
X204724000Y-80010000D03*
D14*
X207264000Y-80010000D03*
X209804000Y-80010000D03*
X212344000Y-80010000D03*
X214884000Y-80010000D03*
X217424000Y-80010000D03*
D15*
X190500000Y-113030000D03*
D16*
X190500000Y-110490000D03*
X190500000Y-107950000D03*
X190500000Y-105410000D03*
X190500000Y-102870000D03*
X190500000Y-100330000D03*
X190500000Y-97790000D03*
X190500000Y-95250000D03*
X190500000Y-92710000D03*
X190500000Y-90170000D03*
D15*
X190500000Y-138430000D03*
D16*
X190500000Y-135890000D03*
X190500000Y-133350000D03*
X190500000Y-130810000D03*
X190500000Y-128270000D03*
X190500000Y-125730000D03*
X190500000Y-123190000D03*
X190500000Y-120650000D03*
X190500000Y-118110000D03*
X190500000Y-115570000D03*
D15*
X226060000Y-115570000D03*
D16*
X226060000Y-118110000D03*
X226060000Y-120650000D03*
X226060000Y-123190000D03*
X226060000Y-125730000D03*
X226060000Y-128270000D03*
X226060000Y-130810000D03*
X226060000Y-133350000D03*
X226060000Y-135890000D03*
X226060000Y-138430000D03*
D15*
X226060000Y-90170000D03*
D16*
X226060000Y-92710000D03*
X226060000Y-95250000D03*
X226060000Y-97790000D03*
X226060000Y-100330000D03*
X226060000Y-102870000D03*
X226060000Y-105410000D03*
X226060000Y-107950000D03*
X226060000Y-110490000D03*
X226060000Y-113030000D03*
D17*
X208280000Y-130048000D03*
X208280000Y-124968000D03*
D15*
X200660000Y-90170000D03*
D16*
X200660000Y-92710000D03*
X200660000Y-95250000D03*
X200660000Y-97790000D03*
X200660000Y-100330000D03*
X200660000Y-102870000D03*
X200660000Y-105410000D03*
X200660000Y-107950000D03*
X200660000Y-110490000D03*
X200660000Y-113030000D03*
X200660000Y-115570000D03*
X200660000Y-118110000D03*
X200660000Y-120650000D03*
X200660000Y-123190000D03*
X200660000Y-125730000D03*
X200660000Y-128270000D03*
X200660000Y-130810000D03*
X200660000Y-133350000D03*
X200660000Y-135890000D03*
X200660000Y-138430000D03*
X215900000Y-138430000D03*
X215900000Y-135890000D03*
X215900000Y-133350000D03*
X215900000Y-130810000D03*
X215900000Y-128270000D03*
X215900000Y-125730000D03*
X215900000Y-123190000D03*
X215900000Y-120650000D03*
X215900000Y-118110000D03*
X215900000Y-115570000D03*
X215900000Y-113030000D03*
X215900000Y-110490000D03*
X215900000Y-107950000D03*
X215900000Y-105410000D03*
X215900000Y-102870000D03*
X215900000Y-100330000D03*
X215900000Y-97790000D03*
X215900000Y-95250000D03*
X215900000Y-92710000D03*
X215900000Y-90170000D03*
D12*
X225933000Y-86614000D03*
X222631000Y-86614000D03*
D18*
X224028000Y-82677000D03*
X224028000Y-79375000D03*
D12*
X193675000Y-82550000D03*
X190373000Y-82550000D03*
X193675000Y-86360000D03*
X190373000Y-86360000D03*
X190373000Y-78994000D03*
X193675000Y-78994000D03*
D19*
X200914000Y-143510000D03*
D20*
X203454000Y-143510000D03*
X205994000Y-143510000D03*
X208534000Y-143510000D03*
X211074000Y-143510000D03*
X213614000Y-143510000D03*
X216154000Y-143510000D03*
D19*
X226060000Y-146050000D03*
D20*
X226060000Y-143510000D03*
X196040000Y-144000000D03*
X190960000Y-144000000D03*
M02*
