G04 #@! TF.FileFunction,Legend,Top*
%FSLAX46Y46*%
G04 Gerber Fmt 4.6, Leading zero omitted, Abs format (unit mm)*
G04 Created by KiCad (PCBNEW (2015-01-16 BZR 5376)-product) date 6/25/2015 4:24:30 PM*
%MOMM*%
G01*
G04 APERTURE LIST*
%ADD10C,0.150000*%
%ADD11C,0.300000*%
%ADD12C,0.254000*%
%ADD13C,0.100000*%
%ADD14C,0.317500*%
%ADD15C,0.127000*%
%ADD16C,0.304800*%
%ADD17C,0.381000*%
G04 APERTURE END LIST*
D10*
D11*
X220358286Y-146249571D02*
X220418762Y-146068142D01*
X220479238Y-146007666D01*
X220600190Y-145947190D01*
X220781619Y-145947190D01*
X220902571Y-146007666D01*
X220963048Y-146068142D01*
X221023524Y-146189095D01*
X221023524Y-146672904D01*
X219753524Y-146672904D01*
X219753524Y-146249571D01*
X219814000Y-146128618D01*
X219874476Y-146068142D01*
X219995429Y-146007666D01*
X220116381Y-146007666D01*
X220237333Y-146068142D01*
X220297810Y-146128618D01*
X220358286Y-146249571D01*
X220358286Y-146672904D01*
X219753524Y-145160999D02*
X219753524Y-144919095D01*
X219814000Y-144798142D01*
X219934952Y-144677190D01*
X220176857Y-144616714D01*
X220600190Y-144616714D01*
X220842095Y-144677190D01*
X220963048Y-144798142D01*
X221023524Y-144919095D01*
X221023524Y-145160999D01*
X220963048Y-145281952D01*
X220842095Y-145402904D01*
X220600190Y-145463380D01*
X220176857Y-145463380D01*
X219934952Y-145402904D01*
X219814000Y-145281952D01*
X219753524Y-145160999D01*
X219753524Y-143830523D02*
X219753524Y-143588619D01*
X219814000Y-143467666D01*
X219934952Y-143346714D01*
X220176857Y-143286238D01*
X220600190Y-143286238D01*
X220842095Y-143346714D01*
X220963048Y-143467666D01*
X221023524Y-143588619D01*
X221023524Y-143830523D01*
X220963048Y-143951476D01*
X220842095Y-144072428D01*
X220600190Y-144132904D01*
X220176857Y-144132904D01*
X219934952Y-144072428D01*
X219814000Y-143951476D01*
X219753524Y-143830523D01*
X219753524Y-142923381D02*
X219753524Y-142197666D01*
X221023524Y-142560523D02*
X219753524Y-142560523D01*
X221831524Y-147580048D02*
X222738667Y-147580048D01*
X222920095Y-147640524D01*
X223041048Y-147761476D01*
X223101524Y-147942905D01*
X223101524Y-148063857D01*
X221831524Y-146975286D02*
X222859619Y-146975286D01*
X222980571Y-146914810D01*
X223041048Y-146854334D01*
X223101524Y-146733381D01*
X223101524Y-146491477D01*
X223041048Y-146370524D01*
X222980571Y-146310048D01*
X222859619Y-146249572D01*
X221831524Y-146249572D01*
X223101524Y-145644810D02*
X221831524Y-145644810D01*
X222738667Y-145221477D01*
X221831524Y-144798143D01*
X223101524Y-144798143D01*
X223101524Y-144193381D02*
X221831524Y-144193381D01*
X221831524Y-143709572D01*
X221892000Y-143588619D01*
X221952476Y-143528143D01*
X222073429Y-143467667D01*
X222254857Y-143467667D01*
X222375810Y-143528143D01*
X222436286Y-143588619D01*
X222496762Y-143709572D01*
X222496762Y-144193381D01*
X222436286Y-142923381D02*
X222436286Y-142500048D01*
X223101524Y-142318619D02*
X223101524Y-142923381D01*
X221831524Y-142923381D01*
X221831524Y-142318619D01*
X223101524Y-141048619D02*
X222496762Y-141471952D01*
X223101524Y-141774333D02*
X221831524Y-141774333D01*
X221831524Y-141290524D01*
X221892000Y-141169571D01*
X221952476Y-141109095D01*
X222073429Y-141048619D01*
X222254857Y-141048619D01*
X222375810Y-141109095D01*
X222436286Y-141169571D01*
X222496762Y-141290524D01*
X222496762Y-141774333D01*
D12*
X215246858Y-141683619D02*
X215246858Y-140667619D01*
X215488763Y-140667619D01*
X215633905Y-140716000D01*
X215730667Y-140812762D01*
X215779048Y-140909524D01*
X215827429Y-141103048D01*
X215827429Y-141248190D01*
X215779048Y-141441714D01*
X215730667Y-141538476D01*
X215633905Y-141635238D01*
X215488763Y-141683619D01*
X215246858Y-141683619D01*
X216117715Y-140667619D02*
X216698286Y-140667619D01*
X216408001Y-141683619D02*
X216408001Y-140667619D01*
X217617524Y-141683619D02*
X217278858Y-141199810D01*
X217036953Y-141683619D02*
X217036953Y-140667619D01*
X217424000Y-140667619D01*
X217520762Y-140716000D01*
X217569143Y-140764381D01*
X217617524Y-140861143D01*
X217617524Y-141006286D01*
X217569143Y-141103048D01*
X217520762Y-141151429D01*
X217424000Y-141199810D01*
X217036953Y-141199810D01*
X199123905Y-140716000D02*
X199027143Y-140667619D01*
X198882000Y-140667619D01*
X198736858Y-140716000D01*
X198640096Y-140812762D01*
X198591715Y-140909524D01*
X198543334Y-141103048D01*
X198543334Y-141248190D01*
X198591715Y-141441714D01*
X198640096Y-141538476D01*
X198736858Y-141635238D01*
X198882000Y-141683619D01*
X198978762Y-141683619D01*
X199123905Y-141635238D01*
X199172286Y-141586857D01*
X199172286Y-141248190D01*
X198978762Y-141248190D01*
X199607715Y-141683619D02*
X199607715Y-140667619D01*
X200188286Y-141683619D01*
X200188286Y-140667619D01*
X200672096Y-141683619D02*
X200672096Y-140667619D01*
X200914001Y-140667619D01*
X201059143Y-140716000D01*
X201155905Y-140812762D01*
X201204286Y-140909524D01*
X201252667Y-141103048D01*
X201252667Y-141248190D01*
X201204286Y-141441714D01*
X201155905Y-141538476D01*
X201059143Y-141635238D01*
X200914001Y-141683619D01*
X200672096Y-141683619D01*
D11*
X195199143Y-81982571D02*
X196056286Y-81982571D01*
X195627715Y-83482571D02*
X195627715Y-81982571D01*
X196413429Y-81982571D02*
X197413429Y-83482571D01*
X197413429Y-81982571D02*
X196413429Y-83482571D01*
D13*
X228500000Y-150000000D02*
X188500000Y-150000000D01*
X228500000Y-75000000D02*
X228500000Y-150000000D01*
X188500000Y-75000000D02*
X188500000Y-150000000D01*
X188500000Y-75000000D02*
X228500000Y-75000000D01*
D11*
X189992000Y-76774524D02*
X189992000Y-75504524D01*
X190475809Y-75504524D01*
X190596762Y-75565000D01*
X190657238Y-75625476D01*
X190717714Y-75746429D01*
X190717714Y-75927857D01*
X190657238Y-76048810D01*
X190596762Y-76109286D01*
X190475809Y-76169762D01*
X189992000Y-76169762D01*
X191262000Y-76774524D02*
X191262000Y-75504524D01*
X192592476Y-76653571D02*
X192532000Y-76714048D01*
X192350571Y-76774524D01*
X192229619Y-76774524D01*
X192048191Y-76714048D01*
X191927238Y-76593095D01*
X191866762Y-76472143D01*
X191806286Y-76230238D01*
X191806286Y-76048810D01*
X191866762Y-75806905D01*
X191927238Y-75685952D01*
X192048191Y-75565000D01*
X192229619Y-75504524D01*
X192350571Y-75504524D01*
X192532000Y-75565000D01*
X192592476Y-75625476D01*
X196092001Y-87038571D02*
X195592001Y-86324286D01*
X195234858Y-87038571D02*
X195234858Y-85538571D01*
X195806286Y-85538571D01*
X195949144Y-85610000D01*
X196020572Y-85681429D01*
X196092001Y-85824286D01*
X196092001Y-86038571D01*
X196020572Y-86181429D01*
X195949144Y-86252857D01*
X195806286Y-86324286D01*
X195234858Y-86324286D01*
X196592001Y-85538571D02*
X197592001Y-87038571D01*
X197592001Y-85538571D02*
X196592001Y-87038571D01*
D14*
X201047048Y-76363286D02*
X201470381Y-76363286D01*
X201651810Y-77028524D02*
X201047048Y-77028524D01*
X201047048Y-75758524D01*
X201651810Y-75758524D01*
X202075144Y-77028524D02*
X202740382Y-76181857D01*
X202075144Y-76181857D02*
X202740382Y-77028524D01*
X203224191Y-76181857D02*
X203224191Y-77451857D01*
X203224191Y-76242333D02*
X203345143Y-76181857D01*
X203587048Y-76181857D01*
X203708000Y-76242333D01*
X203768477Y-76302810D01*
X203828953Y-76423762D01*
X203828953Y-76786619D01*
X203768477Y-76907571D01*
X203708000Y-76968048D01*
X203587048Y-77028524D01*
X203345143Y-77028524D01*
X203224191Y-76968048D01*
X204554668Y-77028524D02*
X204433715Y-76968048D01*
X204373239Y-76847095D01*
X204373239Y-75758524D01*
X205219906Y-77028524D02*
X205098953Y-76968048D01*
X205038477Y-76907571D01*
X204978001Y-76786619D01*
X204978001Y-76423762D01*
X205038477Y-76302810D01*
X205098953Y-76242333D01*
X205219906Y-76181857D01*
X205401334Y-76181857D01*
X205522286Y-76242333D01*
X205582763Y-76302810D01*
X205643239Y-76423762D01*
X205643239Y-76786619D01*
X205582763Y-76907571D01*
X205522286Y-76968048D01*
X205401334Y-77028524D01*
X205219906Y-77028524D01*
X206187525Y-77028524D02*
X206187525Y-76181857D01*
X206187525Y-76423762D02*
X206248001Y-76302810D01*
X206308477Y-76242333D01*
X206429430Y-76181857D01*
X206550382Y-76181857D01*
X207457524Y-76968048D02*
X207336572Y-77028524D01*
X207094667Y-77028524D01*
X206973715Y-76968048D01*
X206913239Y-76847095D01*
X206913239Y-76363286D01*
X206973715Y-76242333D01*
X207094667Y-76181857D01*
X207336572Y-76181857D01*
X207457524Y-76242333D01*
X207518001Y-76363286D01*
X207518001Y-76484238D01*
X206913239Y-76605190D01*
X208062286Y-76363286D02*
X208485619Y-76363286D01*
X208667048Y-77028524D02*
X208062286Y-77028524D01*
X208062286Y-75758524D01*
X208667048Y-75758524D01*
X209211334Y-77028524D02*
X209211334Y-76181857D01*
X209211334Y-76302810D02*
X209271810Y-76242333D01*
X209392763Y-76181857D01*
X209574191Y-76181857D01*
X209695143Y-76242333D01*
X209755620Y-76363286D01*
X209755620Y-77028524D01*
X209755620Y-76363286D02*
X209816096Y-76242333D01*
X209937048Y-76181857D01*
X210118477Y-76181857D01*
X210239429Y-76242333D01*
X210299905Y-76363286D01*
X210299905Y-77028524D01*
X210904667Y-77028524D02*
X210904667Y-75758524D01*
X210904667Y-76242333D02*
X211025619Y-76181857D01*
X211267524Y-76181857D01*
X211388476Y-76242333D01*
X211448953Y-76302810D01*
X211509429Y-76423762D01*
X211509429Y-76786619D01*
X211448953Y-76907571D01*
X211388476Y-76968048D01*
X211267524Y-77028524D01*
X211025619Y-77028524D01*
X210904667Y-76968048D01*
X212537524Y-76968048D02*
X212416572Y-77028524D01*
X212174667Y-77028524D01*
X212053715Y-76968048D01*
X211993239Y-76847095D01*
X211993239Y-76363286D01*
X212053715Y-76242333D01*
X212174667Y-76181857D01*
X212416572Y-76181857D01*
X212537524Y-76242333D01*
X212598001Y-76363286D01*
X212598001Y-76484238D01*
X211993239Y-76605190D01*
X213686572Y-77028524D02*
X213686572Y-75758524D01*
X213686572Y-76968048D02*
X213565619Y-77028524D01*
X213323715Y-77028524D01*
X213202762Y-76968048D01*
X213142286Y-76907571D01*
X213081810Y-76786619D01*
X213081810Y-76423762D01*
X213142286Y-76302810D01*
X213202762Y-76242333D01*
X213323715Y-76181857D01*
X213565619Y-76181857D01*
X213686572Y-76242333D01*
X214835620Y-77028524D02*
X214835620Y-75758524D01*
X214835620Y-76968048D02*
X214714667Y-77028524D01*
X214472763Y-77028524D01*
X214351810Y-76968048D01*
X214291334Y-76907571D01*
X214230858Y-76786619D01*
X214230858Y-76423762D01*
X214291334Y-76302810D01*
X214351810Y-76242333D01*
X214472763Y-76181857D01*
X214714667Y-76181857D01*
X214835620Y-76242333D01*
X215924191Y-76968048D02*
X215803239Y-77028524D01*
X215561334Y-77028524D01*
X215440382Y-76968048D01*
X215379906Y-76847095D01*
X215379906Y-76363286D01*
X215440382Y-76242333D01*
X215561334Y-76181857D01*
X215803239Y-76181857D01*
X215924191Y-76242333D01*
X215984668Y-76363286D01*
X215984668Y-76484238D01*
X215379906Y-76605190D01*
X217073239Y-77028524D02*
X217073239Y-75758524D01*
X217073239Y-76968048D02*
X216952286Y-77028524D01*
X216710382Y-77028524D01*
X216589429Y-76968048D01*
X216528953Y-76907571D01*
X216468477Y-76786619D01*
X216468477Y-76423762D01*
X216528953Y-76302810D01*
X216589429Y-76242333D01*
X216710382Y-76181857D01*
X216952286Y-76181857D01*
X217073239Y-76242333D01*
X217678001Y-76907571D02*
X217738477Y-76968048D01*
X217678001Y-77028524D01*
X217617525Y-76968048D01*
X217678001Y-76907571D01*
X217678001Y-77028524D01*
X218827049Y-76968048D02*
X218706096Y-77028524D01*
X218464192Y-77028524D01*
X218343239Y-76968048D01*
X218282763Y-76907571D01*
X218222287Y-76786619D01*
X218222287Y-76423762D01*
X218282763Y-76302810D01*
X218343239Y-76242333D01*
X218464192Y-76181857D01*
X218706096Y-76181857D01*
X218827049Y-76242333D01*
X219552763Y-77028524D02*
X219431810Y-76968048D01*
X219371334Y-76907571D01*
X219310858Y-76786619D01*
X219310858Y-76423762D01*
X219371334Y-76302810D01*
X219431810Y-76242333D01*
X219552763Y-76181857D01*
X219734191Y-76181857D01*
X219855143Y-76242333D01*
X219915620Y-76302810D01*
X219976096Y-76423762D01*
X219976096Y-76786619D01*
X219915620Y-76907571D01*
X219855143Y-76968048D01*
X219734191Y-77028524D01*
X219552763Y-77028524D01*
X220520382Y-77028524D02*
X220520382Y-76181857D01*
X220520382Y-76302810D02*
X220580858Y-76242333D01*
X220701811Y-76181857D01*
X220883239Y-76181857D01*
X221004191Y-76242333D01*
X221064668Y-76363286D01*
X221064668Y-77028524D01*
X221064668Y-76363286D02*
X221125144Y-76242333D01*
X221246096Y-76181857D01*
X221427525Y-76181857D01*
X221548477Y-76242333D01*
X221608953Y-76363286D01*
X221608953Y-77028524D01*
D11*
X220638857Y-118788571D02*
X220638857Y-117288571D01*
X221353143Y-118788571D02*
X221353143Y-117288571D01*
X222210286Y-118788571D01*
X222210286Y-117288571D01*
X222710286Y-117288571D02*
X223567429Y-117288571D01*
X223138858Y-118788571D02*
X223138858Y-117288571D01*
X220817429Y-116248571D02*
X220817429Y-114748571D01*
X221674572Y-116248571D01*
X221674572Y-114748571D01*
X223246001Y-116105714D02*
X223174572Y-116177143D01*
X222960286Y-116248571D01*
X222817429Y-116248571D01*
X222603144Y-116177143D01*
X222460286Y-116034286D01*
X222388858Y-115891429D01*
X222317429Y-115605714D01*
X222317429Y-115391429D01*
X222388858Y-115105714D01*
X222460286Y-114962857D01*
X222603144Y-114820000D01*
X222817429Y-114748571D01*
X222960286Y-114748571D01*
X223174572Y-114820000D01*
X223246001Y-114891429D01*
X220067429Y-90531143D02*
X221210286Y-90531143D01*
X220638857Y-91102571D02*
X220638857Y-89959714D01*
X222638858Y-89602571D02*
X221924572Y-89602571D01*
X221853143Y-90316857D01*
X221924572Y-90245429D01*
X222067429Y-90174000D01*
X222424572Y-90174000D01*
X222567429Y-90245429D01*
X222638858Y-90316857D01*
X222710286Y-90459714D01*
X222710286Y-90816857D01*
X222638858Y-90959714D01*
X222567429Y-91031143D01*
X222424572Y-91102571D01*
X222067429Y-91102571D01*
X221924572Y-91031143D01*
X221853143Y-90959714D01*
X223138857Y-89602571D02*
X223638857Y-91102571D01*
X224138857Y-89602571D01*
X220853143Y-92214000D02*
X220710286Y-92142571D01*
X220496000Y-92142571D01*
X220281715Y-92214000D01*
X220138857Y-92356857D01*
X220067429Y-92499714D01*
X219996000Y-92785429D01*
X219996000Y-92999714D01*
X220067429Y-93285429D01*
X220138857Y-93428286D01*
X220281715Y-93571143D01*
X220496000Y-93642571D01*
X220638857Y-93642571D01*
X220853143Y-93571143D01*
X220924572Y-93499714D01*
X220924572Y-92999714D01*
X220638857Y-92999714D01*
X221567429Y-93642571D02*
X221567429Y-92142571D01*
X222424572Y-93642571D01*
X222424572Y-92142571D01*
X223138858Y-93642571D02*
X223138858Y-92142571D01*
X223496001Y-92142571D01*
X223710286Y-92214000D01*
X223853144Y-92356857D01*
X223924572Y-92499714D01*
X223996001Y-92785429D01*
X223996001Y-92999714D01*
X223924572Y-93285429D01*
X223853144Y-93428286D01*
X223710286Y-93571143D01*
X223496001Y-93642571D01*
X223138858Y-93642571D01*
X220138858Y-113708571D02*
X220138858Y-112208571D01*
X220710286Y-112208571D01*
X220853144Y-112280000D01*
X220924572Y-112351429D01*
X220996001Y-112494286D01*
X220996001Y-112708571D01*
X220924572Y-112851429D01*
X220853144Y-112922857D01*
X220710286Y-112994286D01*
X220138858Y-112994286D01*
X222138858Y-112922857D02*
X222353144Y-112994286D01*
X222424572Y-113065714D01*
X222496001Y-113208571D01*
X222496001Y-113422857D01*
X222424572Y-113565714D01*
X222353144Y-113637143D01*
X222210286Y-113708571D01*
X221638858Y-113708571D01*
X221638858Y-112208571D01*
X222138858Y-112208571D01*
X222281715Y-112280000D01*
X222353144Y-112351429D01*
X222424572Y-112494286D01*
X222424572Y-112637143D01*
X222353144Y-112780000D01*
X222281715Y-112851429D01*
X222138858Y-112922857D01*
X221638858Y-112922857D01*
X223424572Y-112208571D02*
X223567429Y-112208571D01*
X223710286Y-112280000D01*
X223781715Y-112351429D01*
X223853144Y-112494286D01*
X223924572Y-112780000D01*
X223924572Y-113137143D01*
X223853144Y-113422857D01*
X223781715Y-113565714D01*
X223710286Y-113637143D01*
X223567429Y-113708571D01*
X223424572Y-113708571D01*
X223281715Y-113637143D01*
X223210286Y-113565714D01*
X223138858Y-113422857D01*
X223067429Y-113137143D01*
X223067429Y-112780000D01*
X223138858Y-112494286D01*
X223210286Y-112351429D01*
X223281715Y-112280000D01*
X223424572Y-112208571D01*
X220138858Y-111168571D02*
X220138858Y-109668571D01*
X220710286Y-109668571D01*
X220853144Y-109740000D01*
X220924572Y-109811429D01*
X220996001Y-109954286D01*
X220996001Y-110168571D01*
X220924572Y-110311429D01*
X220853144Y-110382857D01*
X220710286Y-110454286D01*
X220138858Y-110454286D01*
X222138858Y-110382857D02*
X222353144Y-110454286D01*
X222424572Y-110525714D01*
X222496001Y-110668571D01*
X222496001Y-110882857D01*
X222424572Y-111025714D01*
X222353144Y-111097143D01*
X222210286Y-111168571D01*
X221638858Y-111168571D01*
X221638858Y-109668571D01*
X222138858Y-109668571D01*
X222281715Y-109740000D01*
X222353144Y-109811429D01*
X222424572Y-109954286D01*
X222424572Y-110097143D01*
X222353144Y-110240000D01*
X222281715Y-110311429D01*
X222138858Y-110382857D01*
X221638858Y-110382857D01*
X223924572Y-111168571D02*
X223067429Y-111168571D01*
X223496001Y-111168571D02*
X223496001Y-109668571D01*
X223353144Y-109882857D01*
X223210286Y-110025714D01*
X223067429Y-110097143D01*
X220138858Y-108628571D02*
X220138858Y-107128571D01*
X220710286Y-107128571D01*
X220853144Y-107200000D01*
X220924572Y-107271429D01*
X220996001Y-107414286D01*
X220996001Y-107628571D01*
X220924572Y-107771429D01*
X220853144Y-107842857D01*
X220710286Y-107914286D01*
X220138858Y-107914286D01*
X222138858Y-107842857D02*
X222353144Y-107914286D01*
X222424572Y-107985714D01*
X222496001Y-108128571D01*
X222496001Y-108342857D01*
X222424572Y-108485714D01*
X222353144Y-108557143D01*
X222210286Y-108628571D01*
X221638858Y-108628571D01*
X221638858Y-107128571D01*
X222138858Y-107128571D01*
X222281715Y-107200000D01*
X222353144Y-107271429D01*
X222424572Y-107414286D01*
X222424572Y-107557143D01*
X222353144Y-107700000D01*
X222281715Y-107771429D01*
X222138858Y-107842857D01*
X221638858Y-107842857D01*
X223067429Y-107271429D02*
X223138858Y-107200000D01*
X223281715Y-107128571D01*
X223638858Y-107128571D01*
X223781715Y-107200000D01*
X223853144Y-107271429D01*
X223924572Y-107414286D01*
X223924572Y-107557143D01*
X223853144Y-107771429D01*
X222996001Y-108628571D01*
X223924572Y-108628571D01*
X220138858Y-106088571D02*
X220138858Y-104588571D01*
X220710286Y-104588571D01*
X220853144Y-104660000D01*
X220924572Y-104731429D01*
X220996001Y-104874286D01*
X220996001Y-105088571D01*
X220924572Y-105231429D01*
X220853144Y-105302857D01*
X220710286Y-105374286D01*
X220138858Y-105374286D01*
X222138858Y-105302857D02*
X222353144Y-105374286D01*
X222424572Y-105445714D01*
X222496001Y-105588571D01*
X222496001Y-105802857D01*
X222424572Y-105945714D01*
X222353144Y-106017143D01*
X222210286Y-106088571D01*
X221638858Y-106088571D01*
X221638858Y-104588571D01*
X222138858Y-104588571D01*
X222281715Y-104660000D01*
X222353144Y-104731429D01*
X222424572Y-104874286D01*
X222424572Y-105017143D01*
X222353144Y-105160000D01*
X222281715Y-105231429D01*
X222138858Y-105302857D01*
X221638858Y-105302857D01*
X222996001Y-104588571D02*
X223924572Y-104588571D01*
X223424572Y-105160000D01*
X223638858Y-105160000D01*
X223781715Y-105231429D01*
X223853144Y-105302857D01*
X223924572Y-105445714D01*
X223924572Y-105802857D01*
X223853144Y-105945714D01*
X223781715Y-106017143D01*
X223638858Y-106088571D01*
X223210286Y-106088571D01*
X223067429Y-106017143D01*
X222996001Y-105945714D01*
X220138858Y-103548571D02*
X220138858Y-102048571D01*
X220710286Y-102048571D01*
X220853144Y-102120000D01*
X220924572Y-102191429D01*
X220996001Y-102334286D01*
X220996001Y-102548571D01*
X220924572Y-102691429D01*
X220853144Y-102762857D01*
X220710286Y-102834286D01*
X220138858Y-102834286D01*
X222138858Y-102762857D02*
X222353144Y-102834286D01*
X222424572Y-102905714D01*
X222496001Y-103048571D01*
X222496001Y-103262857D01*
X222424572Y-103405714D01*
X222353144Y-103477143D01*
X222210286Y-103548571D01*
X221638858Y-103548571D01*
X221638858Y-102048571D01*
X222138858Y-102048571D01*
X222281715Y-102120000D01*
X222353144Y-102191429D01*
X222424572Y-102334286D01*
X222424572Y-102477143D01*
X222353144Y-102620000D01*
X222281715Y-102691429D01*
X222138858Y-102762857D01*
X221638858Y-102762857D01*
X223781715Y-102548571D02*
X223781715Y-103548571D01*
X223424572Y-101977143D02*
X223067429Y-103048571D01*
X223996001Y-103048571D01*
X220138858Y-101008571D02*
X220138858Y-99508571D01*
X220710286Y-99508571D01*
X220853144Y-99580000D01*
X220924572Y-99651429D01*
X220996001Y-99794286D01*
X220996001Y-100008571D01*
X220924572Y-100151429D01*
X220853144Y-100222857D01*
X220710286Y-100294286D01*
X220138858Y-100294286D01*
X222138858Y-100222857D02*
X222353144Y-100294286D01*
X222424572Y-100365714D01*
X222496001Y-100508571D01*
X222496001Y-100722857D01*
X222424572Y-100865714D01*
X222353144Y-100937143D01*
X222210286Y-101008571D01*
X221638858Y-101008571D01*
X221638858Y-99508571D01*
X222138858Y-99508571D01*
X222281715Y-99580000D01*
X222353144Y-99651429D01*
X222424572Y-99794286D01*
X222424572Y-99937143D01*
X222353144Y-100080000D01*
X222281715Y-100151429D01*
X222138858Y-100222857D01*
X221638858Y-100222857D01*
X223853144Y-99508571D02*
X223138858Y-99508571D01*
X223067429Y-100222857D01*
X223138858Y-100151429D01*
X223281715Y-100080000D01*
X223638858Y-100080000D01*
X223781715Y-100151429D01*
X223853144Y-100222857D01*
X223924572Y-100365714D01*
X223924572Y-100722857D01*
X223853144Y-100865714D01*
X223781715Y-100937143D01*
X223638858Y-101008571D01*
X223281715Y-101008571D01*
X223138858Y-100937143D01*
X223067429Y-100865714D01*
X220138858Y-98468571D02*
X220138858Y-96968571D01*
X220710286Y-96968571D01*
X220853144Y-97040000D01*
X220924572Y-97111429D01*
X220996001Y-97254286D01*
X220996001Y-97468571D01*
X220924572Y-97611429D01*
X220853144Y-97682857D01*
X220710286Y-97754286D01*
X220138858Y-97754286D01*
X222138858Y-97682857D02*
X222353144Y-97754286D01*
X222424572Y-97825714D01*
X222496001Y-97968571D01*
X222496001Y-98182857D01*
X222424572Y-98325714D01*
X222353144Y-98397143D01*
X222210286Y-98468571D01*
X221638858Y-98468571D01*
X221638858Y-96968571D01*
X222138858Y-96968571D01*
X222281715Y-97040000D01*
X222353144Y-97111429D01*
X222424572Y-97254286D01*
X222424572Y-97397143D01*
X222353144Y-97540000D01*
X222281715Y-97611429D01*
X222138858Y-97682857D01*
X221638858Y-97682857D01*
X223781715Y-96968571D02*
X223496001Y-96968571D01*
X223353144Y-97040000D01*
X223281715Y-97111429D01*
X223138858Y-97325714D01*
X223067429Y-97611429D01*
X223067429Y-98182857D01*
X223138858Y-98325714D01*
X223210286Y-98397143D01*
X223353144Y-98468571D01*
X223638858Y-98468571D01*
X223781715Y-98397143D01*
X223853144Y-98325714D01*
X223924572Y-98182857D01*
X223924572Y-97825714D01*
X223853144Y-97682857D01*
X223781715Y-97611429D01*
X223638858Y-97540000D01*
X223353144Y-97540000D01*
X223210286Y-97611429D01*
X223138858Y-97682857D01*
X223067429Y-97825714D01*
X220138858Y-96182571D02*
X220138858Y-94682571D01*
X220710286Y-94682571D01*
X220853144Y-94754000D01*
X220924572Y-94825429D01*
X220996001Y-94968286D01*
X220996001Y-95182571D01*
X220924572Y-95325429D01*
X220853144Y-95396857D01*
X220710286Y-95468286D01*
X220138858Y-95468286D01*
X222138858Y-95396857D02*
X222353144Y-95468286D01*
X222424572Y-95539714D01*
X222496001Y-95682571D01*
X222496001Y-95896857D01*
X222424572Y-96039714D01*
X222353144Y-96111143D01*
X222210286Y-96182571D01*
X221638858Y-96182571D01*
X221638858Y-94682571D01*
X222138858Y-94682571D01*
X222281715Y-94754000D01*
X222353144Y-94825429D01*
X222424572Y-94968286D01*
X222424572Y-95111143D01*
X222353144Y-95254000D01*
X222281715Y-95325429D01*
X222138858Y-95396857D01*
X221638858Y-95396857D01*
X222996001Y-94682571D02*
X223996001Y-94682571D01*
X223353144Y-96182571D01*
X220138858Y-139362571D02*
X220138858Y-137862571D01*
X220710286Y-137862571D01*
X220853144Y-137934000D01*
X220924572Y-138005429D01*
X220996001Y-138148286D01*
X220996001Y-138362571D01*
X220924572Y-138505429D01*
X220853144Y-138576857D01*
X220710286Y-138648286D01*
X220138858Y-138648286D01*
X221638858Y-139362571D02*
X221638858Y-137862571D01*
X221996001Y-137862571D01*
X222210286Y-137934000D01*
X222353144Y-138076857D01*
X222424572Y-138219714D01*
X222496001Y-138505429D01*
X222496001Y-138719714D01*
X222424572Y-139005429D01*
X222353144Y-139148286D01*
X222210286Y-139291143D01*
X221996001Y-139362571D01*
X221638858Y-139362571D01*
X223424572Y-137862571D02*
X223567429Y-137862571D01*
X223710286Y-137934000D01*
X223781715Y-138005429D01*
X223853144Y-138148286D01*
X223924572Y-138434000D01*
X223924572Y-138791143D01*
X223853144Y-139076857D01*
X223781715Y-139219714D01*
X223710286Y-139291143D01*
X223567429Y-139362571D01*
X223424572Y-139362571D01*
X223281715Y-139291143D01*
X223210286Y-139219714D01*
X223138858Y-139076857D01*
X223067429Y-138791143D01*
X223067429Y-138434000D01*
X223138858Y-138148286D01*
X223210286Y-138005429D01*
X223281715Y-137934000D01*
X223424572Y-137862571D01*
X220138858Y-136822571D02*
X220138858Y-135322571D01*
X220710286Y-135322571D01*
X220853144Y-135394000D01*
X220924572Y-135465429D01*
X220996001Y-135608286D01*
X220996001Y-135822571D01*
X220924572Y-135965429D01*
X220853144Y-136036857D01*
X220710286Y-136108286D01*
X220138858Y-136108286D01*
X221638858Y-136822571D02*
X221638858Y-135322571D01*
X221996001Y-135322571D01*
X222210286Y-135394000D01*
X222353144Y-135536857D01*
X222424572Y-135679714D01*
X222496001Y-135965429D01*
X222496001Y-136179714D01*
X222424572Y-136465429D01*
X222353144Y-136608286D01*
X222210286Y-136751143D01*
X221996001Y-136822571D01*
X221638858Y-136822571D01*
X223924572Y-136822571D02*
X223067429Y-136822571D01*
X223496001Y-136822571D02*
X223496001Y-135322571D01*
X223353144Y-135536857D01*
X223210286Y-135679714D01*
X223067429Y-135751143D01*
X220138858Y-134282571D02*
X220138858Y-132782571D01*
X220710286Y-132782571D01*
X220853144Y-132854000D01*
X220924572Y-132925429D01*
X220996001Y-133068286D01*
X220996001Y-133282571D01*
X220924572Y-133425429D01*
X220853144Y-133496857D01*
X220710286Y-133568286D01*
X220138858Y-133568286D01*
X221638858Y-134282571D02*
X221638858Y-132782571D01*
X221996001Y-132782571D01*
X222210286Y-132854000D01*
X222353144Y-132996857D01*
X222424572Y-133139714D01*
X222496001Y-133425429D01*
X222496001Y-133639714D01*
X222424572Y-133925429D01*
X222353144Y-134068286D01*
X222210286Y-134211143D01*
X221996001Y-134282571D01*
X221638858Y-134282571D01*
X223067429Y-132925429D02*
X223138858Y-132854000D01*
X223281715Y-132782571D01*
X223638858Y-132782571D01*
X223781715Y-132854000D01*
X223853144Y-132925429D01*
X223924572Y-133068286D01*
X223924572Y-133211143D01*
X223853144Y-133425429D01*
X222996001Y-134282571D01*
X223924572Y-134282571D01*
X220138858Y-131742571D02*
X220138858Y-130242571D01*
X220710286Y-130242571D01*
X220853144Y-130314000D01*
X220924572Y-130385429D01*
X220996001Y-130528286D01*
X220996001Y-130742571D01*
X220924572Y-130885429D01*
X220853144Y-130956857D01*
X220710286Y-131028286D01*
X220138858Y-131028286D01*
X221638858Y-131742571D02*
X221638858Y-130242571D01*
X221996001Y-130242571D01*
X222210286Y-130314000D01*
X222353144Y-130456857D01*
X222424572Y-130599714D01*
X222496001Y-130885429D01*
X222496001Y-131099714D01*
X222424572Y-131385429D01*
X222353144Y-131528286D01*
X222210286Y-131671143D01*
X221996001Y-131742571D01*
X221638858Y-131742571D01*
X222996001Y-130242571D02*
X223924572Y-130242571D01*
X223424572Y-130814000D01*
X223638858Y-130814000D01*
X223781715Y-130885429D01*
X223853144Y-130956857D01*
X223924572Y-131099714D01*
X223924572Y-131456857D01*
X223853144Y-131599714D01*
X223781715Y-131671143D01*
X223638858Y-131742571D01*
X223210286Y-131742571D01*
X223067429Y-131671143D01*
X222996001Y-131599714D01*
X220138858Y-129202571D02*
X220138858Y-127702571D01*
X220710286Y-127702571D01*
X220853144Y-127774000D01*
X220924572Y-127845429D01*
X220996001Y-127988286D01*
X220996001Y-128202571D01*
X220924572Y-128345429D01*
X220853144Y-128416857D01*
X220710286Y-128488286D01*
X220138858Y-128488286D01*
X221638858Y-129202571D02*
X221638858Y-127702571D01*
X221996001Y-127702571D01*
X222210286Y-127774000D01*
X222353144Y-127916857D01*
X222424572Y-128059714D01*
X222496001Y-128345429D01*
X222496001Y-128559714D01*
X222424572Y-128845429D01*
X222353144Y-128988286D01*
X222210286Y-129131143D01*
X221996001Y-129202571D01*
X221638858Y-129202571D01*
X223781715Y-128202571D02*
X223781715Y-129202571D01*
X223424572Y-127631143D02*
X223067429Y-128702571D01*
X223996001Y-128702571D01*
X220138858Y-126662571D02*
X220138858Y-125162571D01*
X220710286Y-125162571D01*
X220853144Y-125234000D01*
X220924572Y-125305429D01*
X220996001Y-125448286D01*
X220996001Y-125662571D01*
X220924572Y-125805429D01*
X220853144Y-125876857D01*
X220710286Y-125948286D01*
X220138858Y-125948286D01*
X221638858Y-126662571D02*
X221638858Y-125162571D01*
X221996001Y-125162571D01*
X222210286Y-125234000D01*
X222353144Y-125376857D01*
X222424572Y-125519714D01*
X222496001Y-125805429D01*
X222496001Y-126019714D01*
X222424572Y-126305429D01*
X222353144Y-126448286D01*
X222210286Y-126591143D01*
X221996001Y-126662571D01*
X221638858Y-126662571D01*
X223853144Y-125162571D02*
X223138858Y-125162571D01*
X223067429Y-125876857D01*
X223138858Y-125805429D01*
X223281715Y-125734000D01*
X223638858Y-125734000D01*
X223781715Y-125805429D01*
X223853144Y-125876857D01*
X223924572Y-126019714D01*
X223924572Y-126376857D01*
X223853144Y-126519714D01*
X223781715Y-126591143D01*
X223638858Y-126662571D01*
X223281715Y-126662571D01*
X223138858Y-126591143D01*
X223067429Y-126519714D01*
X220138858Y-124122571D02*
X220138858Y-122622571D01*
X220710286Y-122622571D01*
X220853144Y-122694000D01*
X220924572Y-122765429D01*
X220996001Y-122908286D01*
X220996001Y-123122571D01*
X220924572Y-123265429D01*
X220853144Y-123336857D01*
X220710286Y-123408286D01*
X220138858Y-123408286D01*
X221638858Y-124122571D02*
X221638858Y-122622571D01*
X221996001Y-122622571D01*
X222210286Y-122694000D01*
X222353144Y-122836857D01*
X222424572Y-122979714D01*
X222496001Y-123265429D01*
X222496001Y-123479714D01*
X222424572Y-123765429D01*
X222353144Y-123908286D01*
X222210286Y-124051143D01*
X221996001Y-124122571D01*
X221638858Y-124122571D01*
X223781715Y-122622571D02*
X223496001Y-122622571D01*
X223353144Y-122694000D01*
X223281715Y-122765429D01*
X223138858Y-122979714D01*
X223067429Y-123265429D01*
X223067429Y-123836857D01*
X223138858Y-123979714D01*
X223210286Y-124051143D01*
X223353144Y-124122571D01*
X223638858Y-124122571D01*
X223781715Y-124051143D01*
X223853144Y-123979714D01*
X223924572Y-123836857D01*
X223924572Y-123479714D01*
X223853144Y-123336857D01*
X223781715Y-123265429D01*
X223638858Y-123194000D01*
X223353144Y-123194000D01*
X223210286Y-123265429D01*
X223138858Y-123336857D01*
X223067429Y-123479714D01*
X220138858Y-121582571D02*
X220138858Y-120082571D01*
X220710286Y-120082571D01*
X220853144Y-120154000D01*
X220924572Y-120225429D01*
X220996001Y-120368286D01*
X220996001Y-120582571D01*
X220924572Y-120725429D01*
X220853144Y-120796857D01*
X220710286Y-120868286D01*
X220138858Y-120868286D01*
X221638858Y-121582571D02*
X221638858Y-120082571D01*
X221996001Y-120082571D01*
X222210286Y-120154000D01*
X222353144Y-120296857D01*
X222424572Y-120439714D01*
X222496001Y-120725429D01*
X222496001Y-120939714D01*
X222424572Y-121225429D01*
X222353144Y-121368286D01*
X222210286Y-121511143D01*
X221996001Y-121582571D01*
X221638858Y-121582571D01*
X222996001Y-120082571D02*
X223996001Y-120082571D01*
X223353144Y-121582571D01*
X193147429Y-119042571D02*
X192647429Y-118328286D01*
X192290286Y-119042571D02*
X192290286Y-117542571D01*
X192861714Y-117542571D01*
X193004572Y-117614000D01*
X193076000Y-117685429D01*
X193147429Y-117828286D01*
X193147429Y-118042571D01*
X193076000Y-118185429D01*
X193004572Y-118256857D01*
X192861714Y-118328286D01*
X192290286Y-118328286D01*
X193790286Y-118256857D02*
X194290286Y-118256857D01*
X194504572Y-119042571D02*
X193790286Y-119042571D01*
X193790286Y-117542571D01*
X194504572Y-117542571D01*
X195076000Y-118971143D02*
X195290286Y-119042571D01*
X195647429Y-119042571D01*
X195790286Y-118971143D01*
X195861715Y-118899714D01*
X195933143Y-118756857D01*
X195933143Y-118614000D01*
X195861715Y-118471143D01*
X195790286Y-118399714D01*
X195647429Y-118328286D01*
X195361715Y-118256857D01*
X195218857Y-118185429D01*
X195147429Y-118114000D01*
X195076000Y-117971143D01*
X195076000Y-117828286D01*
X195147429Y-117685429D01*
X195218857Y-117614000D01*
X195361715Y-117542571D01*
X195718857Y-117542571D01*
X195933143Y-117614000D01*
X196576000Y-118256857D02*
X197076000Y-118256857D01*
X197290286Y-119042571D02*
X196576000Y-119042571D01*
X196576000Y-117542571D01*
X197290286Y-117542571D01*
X197718857Y-117542571D02*
X198576000Y-117542571D01*
X198147429Y-119042571D02*
X198147429Y-117542571D01*
X193564001Y-139362571D02*
X193064001Y-138648286D01*
X192706858Y-139362571D02*
X192706858Y-137862571D01*
X193278286Y-137862571D01*
X193421144Y-137934000D01*
X193492572Y-138005429D01*
X193564001Y-138148286D01*
X193564001Y-138362571D01*
X193492572Y-138505429D01*
X193421144Y-138576857D01*
X193278286Y-138648286D01*
X192706858Y-138648286D01*
X195064001Y-139219714D02*
X194992572Y-139291143D01*
X194778286Y-139362571D01*
X194635429Y-139362571D01*
X194421144Y-139291143D01*
X194278286Y-139148286D01*
X194206858Y-139005429D01*
X194135429Y-138719714D01*
X194135429Y-138505429D01*
X194206858Y-138219714D01*
X194278286Y-138076857D01*
X194421144Y-137934000D01*
X194635429Y-137862571D01*
X194778286Y-137862571D01*
X194992572Y-137934000D01*
X195064001Y-138005429D01*
X195564001Y-137862571D02*
X196564001Y-137862571D01*
X195921144Y-139362571D01*
X193564001Y-136822571D02*
X193064001Y-136108286D01*
X192706858Y-136822571D02*
X192706858Y-135322571D01*
X193278286Y-135322571D01*
X193421144Y-135394000D01*
X193492572Y-135465429D01*
X193564001Y-135608286D01*
X193564001Y-135822571D01*
X193492572Y-135965429D01*
X193421144Y-136036857D01*
X193278286Y-136108286D01*
X192706858Y-136108286D01*
X195064001Y-136679714D02*
X194992572Y-136751143D01*
X194778286Y-136822571D01*
X194635429Y-136822571D01*
X194421144Y-136751143D01*
X194278286Y-136608286D01*
X194206858Y-136465429D01*
X194135429Y-136179714D01*
X194135429Y-135965429D01*
X194206858Y-135679714D01*
X194278286Y-135536857D01*
X194421144Y-135394000D01*
X194635429Y-135322571D01*
X194778286Y-135322571D01*
X194992572Y-135394000D01*
X195064001Y-135465429D01*
X196349715Y-135322571D02*
X196064001Y-135322571D01*
X195921144Y-135394000D01*
X195849715Y-135465429D01*
X195706858Y-135679714D01*
X195635429Y-135965429D01*
X195635429Y-136536857D01*
X195706858Y-136679714D01*
X195778286Y-136751143D01*
X195921144Y-136822571D01*
X196206858Y-136822571D01*
X196349715Y-136751143D01*
X196421144Y-136679714D01*
X196492572Y-136536857D01*
X196492572Y-136179714D01*
X196421144Y-136036857D01*
X196349715Y-135965429D01*
X196206858Y-135894000D01*
X195921144Y-135894000D01*
X195778286Y-135965429D01*
X195706858Y-136036857D01*
X195635429Y-136179714D01*
X193564001Y-134282571D02*
X193064001Y-133568286D01*
X192706858Y-134282571D02*
X192706858Y-132782571D01*
X193278286Y-132782571D01*
X193421144Y-132854000D01*
X193492572Y-132925429D01*
X193564001Y-133068286D01*
X193564001Y-133282571D01*
X193492572Y-133425429D01*
X193421144Y-133496857D01*
X193278286Y-133568286D01*
X192706858Y-133568286D01*
X195064001Y-134139714D02*
X194992572Y-134211143D01*
X194778286Y-134282571D01*
X194635429Y-134282571D01*
X194421144Y-134211143D01*
X194278286Y-134068286D01*
X194206858Y-133925429D01*
X194135429Y-133639714D01*
X194135429Y-133425429D01*
X194206858Y-133139714D01*
X194278286Y-132996857D01*
X194421144Y-132854000D01*
X194635429Y-132782571D01*
X194778286Y-132782571D01*
X194992572Y-132854000D01*
X195064001Y-132925429D01*
X196421144Y-132782571D02*
X195706858Y-132782571D01*
X195635429Y-133496857D01*
X195706858Y-133425429D01*
X195849715Y-133354000D01*
X196206858Y-133354000D01*
X196349715Y-133425429D01*
X196421144Y-133496857D01*
X196492572Y-133639714D01*
X196492572Y-133996857D01*
X196421144Y-134139714D01*
X196349715Y-134211143D01*
X196206858Y-134282571D01*
X195849715Y-134282571D01*
X195706858Y-134211143D01*
X195635429Y-134139714D01*
X193564001Y-131742571D02*
X193064001Y-131028286D01*
X192706858Y-131742571D02*
X192706858Y-130242571D01*
X193278286Y-130242571D01*
X193421144Y-130314000D01*
X193492572Y-130385429D01*
X193564001Y-130528286D01*
X193564001Y-130742571D01*
X193492572Y-130885429D01*
X193421144Y-130956857D01*
X193278286Y-131028286D01*
X192706858Y-131028286D01*
X195064001Y-131599714D02*
X194992572Y-131671143D01*
X194778286Y-131742571D01*
X194635429Y-131742571D01*
X194421144Y-131671143D01*
X194278286Y-131528286D01*
X194206858Y-131385429D01*
X194135429Y-131099714D01*
X194135429Y-130885429D01*
X194206858Y-130599714D01*
X194278286Y-130456857D01*
X194421144Y-130314000D01*
X194635429Y-130242571D01*
X194778286Y-130242571D01*
X194992572Y-130314000D01*
X195064001Y-130385429D01*
X196349715Y-130742571D02*
X196349715Y-131742571D01*
X195992572Y-130171143D02*
X195635429Y-131242571D01*
X196564001Y-131242571D01*
X193564001Y-129202571D02*
X193064001Y-128488286D01*
X192706858Y-129202571D02*
X192706858Y-127702571D01*
X193278286Y-127702571D01*
X193421144Y-127774000D01*
X193492572Y-127845429D01*
X193564001Y-127988286D01*
X193564001Y-128202571D01*
X193492572Y-128345429D01*
X193421144Y-128416857D01*
X193278286Y-128488286D01*
X192706858Y-128488286D01*
X195064001Y-129059714D02*
X194992572Y-129131143D01*
X194778286Y-129202571D01*
X194635429Y-129202571D01*
X194421144Y-129131143D01*
X194278286Y-128988286D01*
X194206858Y-128845429D01*
X194135429Y-128559714D01*
X194135429Y-128345429D01*
X194206858Y-128059714D01*
X194278286Y-127916857D01*
X194421144Y-127774000D01*
X194635429Y-127702571D01*
X194778286Y-127702571D01*
X194992572Y-127774000D01*
X195064001Y-127845429D01*
X195564001Y-127702571D02*
X196492572Y-127702571D01*
X195992572Y-128274000D01*
X196206858Y-128274000D01*
X196349715Y-128345429D01*
X196421144Y-128416857D01*
X196492572Y-128559714D01*
X196492572Y-128916857D01*
X196421144Y-129059714D01*
X196349715Y-129131143D01*
X196206858Y-129202571D01*
X195778286Y-129202571D01*
X195635429Y-129131143D01*
X195564001Y-129059714D01*
X193564001Y-126662571D02*
X193064001Y-125948286D01*
X192706858Y-126662571D02*
X192706858Y-125162571D01*
X193278286Y-125162571D01*
X193421144Y-125234000D01*
X193492572Y-125305429D01*
X193564001Y-125448286D01*
X193564001Y-125662571D01*
X193492572Y-125805429D01*
X193421144Y-125876857D01*
X193278286Y-125948286D01*
X192706858Y-125948286D01*
X195064001Y-126519714D02*
X194992572Y-126591143D01*
X194778286Y-126662571D01*
X194635429Y-126662571D01*
X194421144Y-126591143D01*
X194278286Y-126448286D01*
X194206858Y-126305429D01*
X194135429Y-126019714D01*
X194135429Y-125805429D01*
X194206858Y-125519714D01*
X194278286Y-125376857D01*
X194421144Y-125234000D01*
X194635429Y-125162571D01*
X194778286Y-125162571D01*
X194992572Y-125234000D01*
X195064001Y-125305429D01*
X195635429Y-125305429D02*
X195706858Y-125234000D01*
X195849715Y-125162571D01*
X196206858Y-125162571D01*
X196349715Y-125234000D01*
X196421144Y-125305429D01*
X196492572Y-125448286D01*
X196492572Y-125591143D01*
X196421144Y-125805429D01*
X195564001Y-126662571D01*
X196492572Y-126662571D01*
X193564001Y-124122571D02*
X193064001Y-123408286D01*
X192706858Y-124122571D02*
X192706858Y-122622571D01*
X193278286Y-122622571D01*
X193421144Y-122694000D01*
X193492572Y-122765429D01*
X193564001Y-122908286D01*
X193564001Y-123122571D01*
X193492572Y-123265429D01*
X193421144Y-123336857D01*
X193278286Y-123408286D01*
X192706858Y-123408286D01*
X195064001Y-123979714D02*
X194992572Y-124051143D01*
X194778286Y-124122571D01*
X194635429Y-124122571D01*
X194421144Y-124051143D01*
X194278286Y-123908286D01*
X194206858Y-123765429D01*
X194135429Y-123479714D01*
X194135429Y-123265429D01*
X194206858Y-122979714D01*
X194278286Y-122836857D01*
X194421144Y-122694000D01*
X194635429Y-122622571D01*
X194778286Y-122622571D01*
X194992572Y-122694000D01*
X195064001Y-122765429D01*
X196492572Y-124122571D02*
X195635429Y-124122571D01*
X196064001Y-124122571D02*
X196064001Y-122622571D01*
X195921144Y-122836857D01*
X195778286Y-122979714D01*
X195635429Y-123051143D01*
X193564001Y-121582571D02*
X193064001Y-120868286D01*
X192706858Y-121582571D02*
X192706858Y-120082571D01*
X193278286Y-120082571D01*
X193421144Y-120154000D01*
X193492572Y-120225429D01*
X193564001Y-120368286D01*
X193564001Y-120582571D01*
X193492572Y-120725429D01*
X193421144Y-120796857D01*
X193278286Y-120868286D01*
X192706858Y-120868286D01*
X195064001Y-121439714D02*
X194992572Y-121511143D01*
X194778286Y-121582571D01*
X194635429Y-121582571D01*
X194421144Y-121511143D01*
X194278286Y-121368286D01*
X194206858Y-121225429D01*
X194135429Y-120939714D01*
X194135429Y-120725429D01*
X194206858Y-120439714D01*
X194278286Y-120296857D01*
X194421144Y-120154000D01*
X194635429Y-120082571D01*
X194778286Y-120082571D01*
X194992572Y-120154000D01*
X195064001Y-120225429D01*
X195992572Y-120082571D02*
X196135429Y-120082571D01*
X196278286Y-120154000D01*
X196349715Y-120225429D01*
X196421144Y-120368286D01*
X196492572Y-120654000D01*
X196492572Y-121011143D01*
X196421144Y-121296857D01*
X196349715Y-121439714D01*
X196278286Y-121511143D01*
X196135429Y-121582571D01*
X195992572Y-121582571D01*
X195849715Y-121511143D01*
X195778286Y-121439714D01*
X195706858Y-121296857D01*
X195635429Y-121011143D01*
X195635429Y-120654000D01*
X195706858Y-120368286D01*
X195778286Y-120225429D01*
X195849715Y-120154000D01*
X195992572Y-120082571D01*
X192778286Y-116502571D02*
X192778286Y-115002571D01*
X193349714Y-115002571D01*
X193492572Y-115074000D01*
X193564000Y-115145429D01*
X193635429Y-115288286D01*
X193635429Y-115502571D01*
X193564000Y-115645429D01*
X193492572Y-115716857D01*
X193349714Y-115788286D01*
X192778286Y-115788286D01*
X194278286Y-115716857D02*
X194778286Y-115716857D01*
X194992572Y-116502571D02*
X194278286Y-116502571D01*
X194278286Y-115002571D01*
X194992572Y-115002571D01*
X195564000Y-115145429D02*
X195635429Y-115074000D01*
X195778286Y-115002571D01*
X196135429Y-115002571D01*
X196278286Y-115074000D01*
X196349715Y-115145429D01*
X196421143Y-115288286D01*
X196421143Y-115431143D01*
X196349715Y-115645429D01*
X195492572Y-116502571D01*
X196421143Y-116502571D01*
X192778286Y-113962571D02*
X192778286Y-112462571D01*
X193349714Y-112462571D01*
X193492572Y-112534000D01*
X193564000Y-112605429D01*
X193635429Y-112748286D01*
X193635429Y-112962571D01*
X193564000Y-113105429D01*
X193492572Y-113176857D01*
X193349714Y-113248286D01*
X192778286Y-113248286D01*
X194278286Y-113176857D02*
X194778286Y-113176857D01*
X194992572Y-113962571D02*
X194278286Y-113962571D01*
X194278286Y-112462571D01*
X194992572Y-112462571D01*
X196421143Y-113962571D02*
X195564000Y-113962571D01*
X195992572Y-113962571D02*
X195992572Y-112462571D01*
X195849715Y-112676857D01*
X195706857Y-112819714D01*
X195564000Y-112891143D01*
X192778286Y-111422571D02*
X192778286Y-109922571D01*
X193349714Y-109922571D01*
X193492572Y-109994000D01*
X193564000Y-110065429D01*
X193635429Y-110208286D01*
X193635429Y-110422571D01*
X193564000Y-110565429D01*
X193492572Y-110636857D01*
X193349714Y-110708286D01*
X192778286Y-110708286D01*
X194278286Y-110636857D02*
X194778286Y-110636857D01*
X194992572Y-111422571D02*
X194278286Y-111422571D01*
X194278286Y-109922571D01*
X194992572Y-109922571D01*
X195921143Y-109922571D02*
X196064000Y-109922571D01*
X196206857Y-109994000D01*
X196278286Y-110065429D01*
X196349715Y-110208286D01*
X196421143Y-110494000D01*
X196421143Y-110851143D01*
X196349715Y-111136857D01*
X196278286Y-111279714D01*
X196206857Y-111351143D01*
X196064000Y-111422571D01*
X195921143Y-111422571D01*
X195778286Y-111351143D01*
X195706857Y-111279714D01*
X195635429Y-111136857D01*
X195564000Y-110851143D01*
X195564000Y-110494000D01*
X195635429Y-110208286D01*
X195706857Y-110065429D01*
X195778286Y-109994000D01*
X195921143Y-109922571D01*
X192814001Y-108882571D02*
X192814001Y-107382571D01*
X193385429Y-107382571D01*
X193528287Y-107454000D01*
X193599715Y-107525429D01*
X193671144Y-107668286D01*
X193671144Y-107882571D01*
X193599715Y-108025429D01*
X193528287Y-108096857D01*
X193385429Y-108168286D01*
X192814001Y-108168286D01*
X194242572Y-108454000D02*
X194956858Y-108454000D01*
X194099715Y-108882571D02*
X194599715Y-107382571D01*
X195099715Y-108882571D01*
X196242572Y-107382571D02*
X195956858Y-107382571D01*
X195814001Y-107454000D01*
X195742572Y-107525429D01*
X195599715Y-107739714D01*
X195528286Y-108025429D01*
X195528286Y-108596857D01*
X195599715Y-108739714D01*
X195671143Y-108811143D01*
X195814001Y-108882571D01*
X196099715Y-108882571D01*
X196242572Y-108811143D01*
X196314001Y-108739714D01*
X196385429Y-108596857D01*
X196385429Y-108239714D01*
X196314001Y-108096857D01*
X196242572Y-108025429D01*
X196099715Y-107954000D01*
X195814001Y-107954000D01*
X195671143Y-108025429D01*
X195599715Y-108096857D01*
X195528286Y-108239714D01*
X192814001Y-106342571D02*
X192814001Y-104842571D01*
X193385429Y-104842571D01*
X193528287Y-104914000D01*
X193599715Y-104985429D01*
X193671144Y-105128286D01*
X193671144Y-105342571D01*
X193599715Y-105485429D01*
X193528287Y-105556857D01*
X193385429Y-105628286D01*
X192814001Y-105628286D01*
X194242572Y-105914000D02*
X194956858Y-105914000D01*
X194099715Y-106342571D02*
X194599715Y-104842571D01*
X195099715Y-106342571D01*
X196314001Y-104842571D02*
X195599715Y-104842571D01*
X195528286Y-105556857D01*
X195599715Y-105485429D01*
X195742572Y-105414000D01*
X196099715Y-105414000D01*
X196242572Y-105485429D01*
X196314001Y-105556857D01*
X196385429Y-105699714D01*
X196385429Y-106056857D01*
X196314001Y-106199714D01*
X196242572Y-106271143D01*
X196099715Y-106342571D01*
X195742572Y-106342571D01*
X195599715Y-106271143D01*
X195528286Y-106199714D01*
X192814001Y-103548571D02*
X192814001Y-102048571D01*
X193385429Y-102048571D01*
X193528287Y-102120000D01*
X193599715Y-102191429D01*
X193671144Y-102334286D01*
X193671144Y-102548571D01*
X193599715Y-102691429D01*
X193528287Y-102762857D01*
X193385429Y-102834286D01*
X192814001Y-102834286D01*
X194242572Y-103120000D02*
X194956858Y-103120000D01*
X194099715Y-103548571D02*
X194599715Y-102048571D01*
X195099715Y-103548571D01*
X195456858Y-102048571D02*
X196385429Y-102048571D01*
X195885429Y-102620000D01*
X196099715Y-102620000D01*
X196242572Y-102691429D01*
X196314001Y-102762857D01*
X196385429Y-102905714D01*
X196385429Y-103262857D01*
X196314001Y-103405714D01*
X196242572Y-103477143D01*
X196099715Y-103548571D01*
X195671143Y-103548571D01*
X195528286Y-103477143D01*
X195456858Y-103405714D01*
X192814001Y-101008571D02*
X192814001Y-99508571D01*
X193385429Y-99508571D01*
X193528287Y-99580000D01*
X193599715Y-99651429D01*
X193671144Y-99794286D01*
X193671144Y-100008571D01*
X193599715Y-100151429D01*
X193528287Y-100222857D01*
X193385429Y-100294286D01*
X192814001Y-100294286D01*
X194242572Y-100580000D02*
X194956858Y-100580000D01*
X194099715Y-101008571D02*
X194599715Y-99508571D01*
X195099715Y-101008571D01*
X195528286Y-99651429D02*
X195599715Y-99580000D01*
X195742572Y-99508571D01*
X196099715Y-99508571D01*
X196242572Y-99580000D01*
X196314001Y-99651429D01*
X196385429Y-99794286D01*
X196385429Y-99937143D01*
X196314001Y-100151429D01*
X195456858Y-101008571D01*
X196385429Y-101008571D01*
X192814001Y-98722571D02*
X192814001Y-97222571D01*
X193385429Y-97222571D01*
X193528287Y-97294000D01*
X193599715Y-97365429D01*
X193671144Y-97508286D01*
X193671144Y-97722571D01*
X193599715Y-97865429D01*
X193528287Y-97936857D01*
X193385429Y-98008286D01*
X192814001Y-98008286D01*
X194242572Y-98294000D02*
X194956858Y-98294000D01*
X194099715Y-98722571D02*
X194599715Y-97222571D01*
X195099715Y-98722571D01*
X196385429Y-98722571D02*
X195528286Y-98722571D01*
X195956858Y-98722571D02*
X195956858Y-97222571D01*
X195814001Y-97436857D01*
X195671143Y-97579714D01*
X195528286Y-97651143D01*
X192814001Y-96182571D02*
X192814001Y-94682571D01*
X193385429Y-94682571D01*
X193528287Y-94754000D01*
X193599715Y-94825429D01*
X193671144Y-94968286D01*
X193671144Y-95182571D01*
X193599715Y-95325429D01*
X193528287Y-95396857D01*
X193385429Y-95468286D01*
X192814001Y-95468286D01*
X194242572Y-95754000D02*
X194956858Y-95754000D01*
X194099715Y-96182571D02*
X194599715Y-94682571D01*
X195099715Y-96182571D01*
X195885429Y-94682571D02*
X196028286Y-94682571D01*
X196171143Y-94754000D01*
X196242572Y-94825429D01*
X196314001Y-94968286D01*
X196385429Y-95254000D01*
X196385429Y-95611143D01*
X196314001Y-95896857D01*
X196242572Y-96039714D01*
X196171143Y-96111143D01*
X196028286Y-96182571D01*
X195885429Y-96182571D01*
X195742572Y-96111143D01*
X195671143Y-96039714D01*
X195599715Y-95896857D01*
X195528286Y-95611143D01*
X195528286Y-95254000D01*
X195599715Y-94968286D01*
X195671143Y-94825429D01*
X195742572Y-94754000D01*
X195885429Y-94682571D01*
D12*
X217635667Y-85392380D02*
X217635667Y-84787618D01*
X217998524Y-85513333D02*
X216728524Y-85089999D01*
X217998524Y-84666666D01*
X216728524Y-84243333D02*
X217756619Y-84243333D01*
X217877571Y-84182857D01*
X217938048Y-84122381D01*
X217998524Y-84001428D01*
X217998524Y-83759524D01*
X217938048Y-83638571D01*
X217877571Y-83578095D01*
X217756619Y-83517619D01*
X216728524Y-83517619D01*
X216728524Y-83033809D02*
X217998524Y-82187143D01*
X216728524Y-82187143D02*
X217998524Y-83033809D01*
X215712524Y-85422619D02*
X214442524Y-85422619D01*
X214442524Y-84938810D01*
X214503000Y-84817857D01*
X214563476Y-84757381D01*
X214684429Y-84696905D01*
X214865857Y-84696905D01*
X214986810Y-84757381D01*
X215047286Y-84817857D01*
X215107762Y-84938810D01*
X215107762Y-85422619D01*
X214503000Y-83487381D02*
X214442524Y-83608333D01*
X214442524Y-83789762D01*
X214503000Y-83971190D01*
X214623952Y-84092143D01*
X214744905Y-84152619D01*
X214986810Y-84213095D01*
X215168238Y-84213095D01*
X215410143Y-84152619D01*
X215531095Y-84092143D01*
X215652048Y-83971190D01*
X215712524Y-83789762D01*
X215712524Y-83668810D01*
X215652048Y-83487381D01*
X215591571Y-83426905D01*
X215168238Y-83426905D01*
X215168238Y-83668810D01*
X215591571Y-82156905D02*
X215652048Y-82217381D01*
X215712524Y-82398810D01*
X215712524Y-82519762D01*
X215652048Y-82701190D01*
X215531095Y-82822143D01*
X215410143Y-82882619D01*
X215168238Y-82943095D01*
X214986810Y-82943095D01*
X214744905Y-82882619D01*
X214623952Y-82822143D01*
X214503000Y-82701190D01*
X214442524Y-82519762D01*
X214442524Y-82398810D01*
X214503000Y-82217381D01*
X214563476Y-82156905D01*
X213172524Y-85422619D02*
X211902524Y-85422619D01*
X211902524Y-84938810D01*
X211963000Y-84817857D01*
X212023476Y-84757381D01*
X212144429Y-84696905D01*
X212325857Y-84696905D01*
X212446810Y-84757381D01*
X212507286Y-84817857D01*
X212567762Y-84938810D01*
X212567762Y-85422619D01*
X211963000Y-83487381D02*
X211902524Y-83608333D01*
X211902524Y-83789762D01*
X211963000Y-83971190D01*
X212083952Y-84092143D01*
X212204905Y-84152619D01*
X212446810Y-84213095D01*
X212628238Y-84213095D01*
X212870143Y-84152619D01*
X212991095Y-84092143D01*
X213112048Y-83971190D01*
X213172524Y-83789762D01*
X213172524Y-83668810D01*
X213112048Y-83487381D01*
X213051571Y-83426905D01*
X212628238Y-83426905D01*
X212628238Y-83668810D01*
X213172524Y-82882619D02*
X211902524Y-82882619D01*
X211902524Y-82580238D01*
X211963000Y-82398810D01*
X212083952Y-82277857D01*
X212204905Y-82217381D01*
X212446810Y-82156905D01*
X212628238Y-82156905D01*
X212870143Y-82217381D01*
X212991095Y-82277857D01*
X213112048Y-82398810D01*
X213172524Y-82580238D01*
X213172524Y-82882619D01*
X209169000Y-84787619D02*
X209108524Y-84908571D01*
X209108524Y-85090000D01*
X209169000Y-85271428D01*
X209289952Y-85392381D01*
X209410905Y-85452857D01*
X209652810Y-85513333D01*
X209834238Y-85513333D01*
X210076143Y-85452857D01*
X210197095Y-85392381D01*
X210318048Y-85271428D01*
X210378524Y-85090000D01*
X210378524Y-84969048D01*
X210318048Y-84787619D01*
X210257571Y-84727143D01*
X209834238Y-84727143D01*
X209834238Y-84969048D01*
X210378524Y-84182857D02*
X209108524Y-84182857D01*
X210378524Y-83457143D01*
X209108524Y-83457143D01*
X210378524Y-82852381D02*
X209108524Y-82852381D01*
X209108524Y-82550000D01*
X209169000Y-82368572D01*
X209289952Y-82247619D01*
X209410905Y-82187143D01*
X209652810Y-82126667D01*
X209834238Y-82126667D01*
X210076143Y-82187143D01*
X210197095Y-82247619D01*
X210318048Y-82368572D01*
X210378524Y-82550000D01*
X210378524Y-82852381D01*
X207354714Y-85452857D02*
X207354714Y-84485238D01*
X207838524Y-84969048D02*
X206870905Y-84969048D01*
X206568524Y-83275714D02*
X206568524Y-83880476D01*
X207173286Y-83940952D01*
X207112810Y-83880476D01*
X207052333Y-83759524D01*
X207052333Y-83457143D01*
X207112810Y-83336190D01*
X207173286Y-83275714D01*
X207294238Y-83215238D01*
X207596619Y-83215238D01*
X207717571Y-83275714D01*
X207778048Y-83336190D01*
X207838524Y-83457143D01*
X207838524Y-83759524D01*
X207778048Y-83880476D01*
X207717571Y-83940952D01*
X206568524Y-82852381D02*
X207838524Y-82429047D01*
X206568524Y-82005714D01*
X205298524Y-86281381D02*
X204028524Y-86281381D01*
X204935667Y-85858048D01*
X204028524Y-85434714D01*
X205298524Y-85434714D01*
X205177571Y-84104238D02*
X205238048Y-84164714D01*
X205298524Y-84346143D01*
X205298524Y-84467095D01*
X205238048Y-84648523D01*
X205117095Y-84769476D01*
X204996143Y-84829952D01*
X204754238Y-84890428D01*
X204572810Y-84890428D01*
X204330905Y-84829952D01*
X204209952Y-84769476D01*
X204089000Y-84648523D01*
X204028524Y-84467095D01*
X204028524Y-84346143D01*
X204089000Y-84164714D01*
X204149476Y-84104238D01*
X205298524Y-82955190D02*
X205298524Y-83559952D01*
X204028524Y-83559952D01*
X205298524Y-81806143D02*
X204693762Y-82229476D01*
X205298524Y-82531857D02*
X204028524Y-82531857D01*
X204028524Y-82048048D01*
X204089000Y-81927095D01*
X204149476Y-81866619D01*
X204270429Y-81806143D01*
X204451857Y-81806143D01*
X204572810Y-81866619D01*
X204633286Y-81927095D01*
X204693762Y-82048048D01*
X204693762Y-82531857D01*
X192072381Y-149557619D02*
X191733715Y-149073810D01*
X191491810Y-149557619D02*
X191491810Y-148541619D01*
X191878857Y-148541619D01*
X191975619Y-148590000D01*
X192024000Y-148638381D01*
X192072381Y-148735143D01*
X192072381Y-148880286D01*
X192024000Y-148977048D01*
X191975619Y-149025429D01*
X191878857Y-149073810D01*
X191491810Y-149073810D01*
X192507810Y-149025429D02*
X192846476Y-149025429D01*
X192991619Y-149557619D02*
X192507810Y-149557619D01*
X192507810Y-148541619D01*
X192991619Y-148541619D01*
X193378667Y-149509238D02*
X193523810Y-149557619D01*
X193765714Y-149557619D01*
X193862476Y-149509238D01*
X193910857Y-149460857D01*
X193959238Y-149364095D01*
X193959238Y-149267333D01*
X193910857Y-149170571D01*
X193862476Y-149122190D01*
X193765714Y-149073810D01*
X193572191Y-149025429D01*
X193475429Y-148977048D01*
X193427048Y-148928667D01*
X193378667Y-148831905D01*
X193378667Y-148735143D01*
X193427048Y-148638381D01*
X193475429Y-148590000D01*
X193572191Y-148541619D01*
X193814095Y-148541619D01*
X193959238Y-148590000D01*
X194394667Y-149025429D02*
X194733333Y-149025429D01*
X194878476Y-149557619D02*
X194394667Y-149557619D01*
X194394667Y-148541619D01*
X194878476Y-148541619D01*
X195168762Y-148541619D02*
X195749333Y-148541619D01*
X195459048Y-149557619D02*
X195459048Y-148541619D01*
D11*
X193167143Y-92142571D02*
X194024286Y-92142571D01*
X193595715Y-93642571D02*
X193595715Y-92142571D01*
X194381429Y-92142571D02*
X195381429Y-93642571D01*
X195381429Y-92142571D02*
X194381429Y-93642571D01*
X194060001Y-91102571D02*
X193560001Y-90388286D01*
X193202858Y-91102571D02*
X193202858Y-89602571D01*
X193774286Y-89602571D01*
X193917144Y-89674000D01*
X193988572Y-89745429D01*
X194060001Y-89888286D01*
X194060001Y-90102571D01*
X193988572Y-90245429D01*
X193917144Y-90316857D01*
X193774286Y-90388286D01*
X193202858Y-90388286D01*
X194560001Y-89602571D02*
X195560001Y-91102571D01*
X195560001Y-89602571D02*
X194560001Y-91102571D01*
D15*
X205232000Y-95885000D02*
X205232000Y-98171000D01*
X205232000Y-98171000D02*
X206883000Y-98171000D01*
X208661000Y-95885000D02*
X210312000Y-95885000D01*
X210312000Y-95885000D02*
X210312000Y-98171000D01*
X210312000Y-98171000D02*
X208661000Y-98171000D01*
X206883000Y-95885000D02*
X205232000Y-95885000D01*
X205740000Y-118237000D02*
X205740000Y-120523000D01*
X205740000Y-120523000D02*
X207391000Y-120523000D01*
X209169000Y-118237000D02*
X210820000Y-118237000D01*
X210820000Y-118237000D02*
X210820000Y-120523000D01*
X210820000Y-120523000D02*
X209169000Y-120523000D01*
X207391000Y-118237000D02*
X205740000Y-118237000D01*
X205740000Y-134493000D02*
X205740000Y-136779000D01*
X205740000Y-136779000D02*
X207391000Y-136779000D01*
X209169000Y-134493000D02*
X210820000Y-134493000D01*
X210820000Y-134493000D02*
X210820000Y-136779000D01*
X210820000Y-136779000D02*
X209169000Y-136779000D01*
X207391000Y-134493000D02*
X205740000Y-134493000D01*
X205232000Y-105537000D02*
X205232000Y-107823000D01*
X205232000Y-107823000D02*
X206883000Y-107823000D01*
X208661000Y-105537000D02*
X210312000Y-105537000D01*
X210312000Y-105537000D02*
X210312000Y-107823000D01*
X210312000Y-107823000D02*
X208661000Y-107823000D01*
X206883000Y-105537000D02*
X205232000Y-105537000D01*
X205232000Y-101981000D02*
X205232000Y-104267000D01*
X205232000Y-104267000D02*
X206883000Y-104267000D01*
X208661000Y-101981000D02*
X210312000Y-101981000D01*
X210312000Y-101981000D02*
X210312000Y-104267000D01*
X210312000Y-104267000D02*
X208661000Y-104267000D01*
X206883000Y-101981000D02*
X205232000Y-101981000D01*
D16*
X203454000Y-81280000D02*
X203454000Y-78740000D01*
X203454000Y-78740000D02*
X218694000Y-78740000D01*
X218694000Y-78740000D02*
X218694000Y-81280000D01*
X218694000Y-81280000D02*
X203454000Y-81280000D01*
X205994000Y-81280000D02*
X205994000Y-78740000D01*
X191770000Y-114300000D02*
X189230000Y-114300000D01*
X189230000Y-114300000D02*
X189230000Y-88900000D01*
X189230000Y-88900000D02*
X191770000Y-88900000D01*
X191770000Y-88900000D02*
X191770000Y-114300000D01*
X191770000Y-111760000D02*
X189230000Y-111760000D01*
X191770000Y-139700000D02*
X189230000Y-139700000D01*
X189230000Y-139700000D02*
X189230000Y-114300000D01*
X189230000Y-114300000D02*
X191770000Y-114300000D01*
X191770000Y-114300000D02*
X191770000Y-139700000D01*
X191770000Y-137160000D02*
X189230000Y-137160000D01*
X224790000Y-114300000D02*
X227330000Y-114300000D01*
X227330000Y-114300000D02*
X227330000Y-139700000D01*
X227330000Y-139700000D02*
X224790000Y-139700000D01*
X224790000Y-139700000D02*
X224790000Y-114300000D01*
X224790000Y-116840000D02*
X227330000Y-116840000D01*
X224790000Y-88900000D02*
X227330000Y-88900000D01*
X227330000Y-88900000D02*
X227330000Y-114300000D01*
X227330000Y-114300000D02*
X224790000Y-114300000D01*
X224790000Y-114300000D02*
X224790000Y-88900000D01*
X224790000Y-91440000D02*
X227330000Y-91440000D01*
D14*
X210820000Y-130683000D02*
X210820000Y-124333000D01*
X205740000Y-130683000D02*
X205740000Y-124333000D01*
X208280000Y-121793000D02*
G75*
G03X205740000Y-124333000I0J-2540000D01*
G01*
X210820000Y-124333000D02*
G75*
G03X208280000Y-121793000I-2540000J0D01*
G01*
X205740000Y-130683000D02*
G75*
G03X208280000Y-133223000I2540000J0D01*
G01*
X208280000Y-133223000D02*
G75*
G03X210820000Y-130683000I0J2540000D01*
G01*
D17*
X209550000Y-87630000D02*
X209550000Y-88900000D01*
X209550000Y-88900000D02*
X207010000Y-88900000D01*
X207010000Y-88900000D02*
X207010000Y-87630000D01*
X214630000Y-87630000D02*
X214630000Y-140970000D01*
X214630000Y-140970000D02*
X201930000Y-140970000D01*
X201930000Y-140970000D02*
X201930000Y-87630000D01*
X201930000Y-87630000D02*
X214630000Y-87630000D01*
D15*
X226822000Y-87757000D02*
X226822000Y-85471000D01*
X226822000Y-85471000D02*
X225171000Y-85471000D01*
X223393000Y-87757000D02*
X221742000Y-87757000D01*
X221742000Y-87757000D02*
X221742000Y-85471000D01*
X221742000Y-85471000D02*
X223393000Y-85471000D01*
X225171000Y-87757000D02*
X226822000Y-87757000D01*
X222885000Y-83566000D02*
X225171000Y-83566000D01*
X225171000Y-83566000D02*
X225171000Y-81915000D01*
X222885000Y-80137000D02*
X222885000Y-78486000D01*
X222885000Y-78486000D02*
X225171000Y-78486000D01*
X225171000Y-78486000D02*
X225171000Y-80137000D01*
X222885000Y-81915000D02*
X222885000Y-83566000D01*
X194564000Y-83693000D02*
X194564000Y-81407000D01*
X194564000Y-81407000D02*
X192913000Y-81407000D01*
X191135000Y-83693000D02*
X189484000Y-83693000D01*
X189484000Y-83693000D02*
X189484000Y-81407000D01*
X189484000Y-81407000D02*
X191135000Y-81407000D01*
X192913000Y-83693000D02*
X194564000Y-83693000D01*
X194564000Y-87503000D02*
X194564000Y-85217000D01*
X194564000Y-85217000D02*
X192913000Y-85217000D01*
X191135000Y-87503000D02*
X189484000Y-87503000D01*
X189484000Y-87503000D02*
X189484000Y-85217000D01*
X189484000Y-85217000D02*
X191135000Y-85217000D01*
X192913000Y-87503000D02*
X194564000Y-87503000D01*
X189484000Y-77851000D02*
X189484000Y-80137000D01*
X189484000Y-80137000D02*
X191135000Y-80137000D01*
X192913000Y-77851000D02*
X194564000Y-77851000D01*
X194564000Y-77851000D02*
X194564000Y-80137000D01*
X194564000Y-80137000D02*
X192913000Y-80137000D01*
X191135000Y-77851000D02*
X189484000Y-77851000D01*
D16*
X199644000Y-142240000D02*
X199644000Y-142240000D01*
X199644000Y-142240000D02*
X217424000Y-142240000D01*
X217424000Y-142240000D02*
X217424000Y-144780000D01*
X217424000Y-144780000D02*
X199644000Y-144780000D01*
X199644000Y-144780000D02*
X199644000Y-142240000D01*
X202184000Y-144780000D02*
X202184000Y-144780000D01*
X202184000Y-144780000D02*
X202184000Y-142240000D01*
X227330000Y-147320000D02*
X224790000Y-147320000D01*
X224790000Y-147320000D02*
X224790000Y-142240000D01*
X224790000Y-142240000D02*
X227330000Y-142240000D01*
X227330000Y-142240000D02*
X227330000Y-147320000D01*
D17*
X193500000Y-147810000D02*
X189690000Y-147810000D01*
X189690000Y-147810000D02*
X189690000Y-140825000D01*
X189690000Y-140825000D02*
X197310000Y-140825000D01*
X197310000Y-140825000D02*
X197310000Y-147810000D01*
X197310000Y-147810000D02*
X193500000Y-147810000D01*
X194770000Y-144000000D02*
G75*
G03X194770000Y-144000000I-1270000J0D01*
G01*
D15*
X207645000Y-97372714D02*
X207391000Y-97009857D01*
X207209572Y-97372714D02*
X207209572Y-96610714D01*
X207499857Y-96610714D01*
X207572429Y-96647000D01*
X207608714Y-96683286D01*
X207645000Y-96755857D01*
X207645000Y-96864714D01*
X207608714Y-96937286D01*
X207572429Y-96973571D01*
X207499857Y-97009857D01*
X207209572Y-97009857D01*
X208370714Y-97372714D02*
X207935286Y-97372714D01*
X208153000Y-97372714D02*
X208153000Y-96610714D01*
X208080429Y-96719571D01*
X208007857Y-96792143D01*
X207935286Y-96828429D01*
X208153000Y-119652143D02*
X208116714Y-119688429D01*
X208007857Y-119724714D01*
X207935286Y-119724714D01*
X207826429Y-119688429D01*
X207753857Y-119615857D01*
X207717572Y-119543286D01*
X207681286Y-119398143D01*
X207681286Y-119289286D01*
X207717572Y-119144143D01*
X207753857Y-119071571D01*
X207826429Y-118999000D01*
X207935286Y-118962714D01*
X208007857Y-118962714D01*
X208116714Y-118999000D01*
X208153000Y-119035286D01*
X208878714Y-119724714D02*
X208443286Y-119724714D01*
X208661000Y-119724714D02*
X208661000Y-118962714D01*
X208588429Y-119071571D01*
X208515857Y-119144143D01*
X208443286Y-119180429D01*
X208153000Y-135908143D02*
X208116714Y-135944429D01*
X208007857Y-135980714D01*
X207935286Y-135980714D01*
X207826429Y-135944429D01*
X207753857Y-135871857D01*
X207717572Y-135799286D01*
X207681286Y-135654143D01*
X207681286Y-135545286D01*
X207717572Y-135400143D01*
X207753857Y-135327571D01*
X207826429Y-135255000D01*
X207935286Y-135218714D01*
X208007857Y-135218714D01*
X208116714Y-135255000D01*
X208153000Y-135291286D01*
X208443286Y-135291286D02*
X208479572Y-135255000D01*
X208552143Y-135218714D01*
X208733572Y-135218714D01*
X208806143Y-135255000D01*
X208842429Y-135291286D01*
X208878714Y-135363857D01*
X208878714Y-135436429D01*
X208842429Y-135545286D01*
X208407000Y-135980714D01*
X208878714Y-135980714D01*
X207645000Y-106952143D02*
X207608714Y-106988429D01*
X207499857Y-107024714D01*
X207427286Y-107024714D01*
X207318429Y-106988429D01*
X207245857Y-106915857D01*
X207209572Y-106843286D01*
X207173286Y-106698143D01*
X207173286Y-106589286D01*
X207209572Y-106444143D01*
X207245857Y-106371571D01*
X207318429Y-106299000D01*
X207427286Y-106262714D01*
X207499857Y-106262714D01*
X207608714Y-106299000D01*
X207645000Y-106335286D01*
X207899000Y-106262714D02*
X208370714Y-106262714D01*
X208116714Y-106553000D01*
X208225572Y-106553000D01*
X208298143Y-106589286D01*
X208334429Y-106625571D01*
X208370714Y-106698143D01*
X208370714Y-106879571D01*
X208334429Y-106952143D01*
X208298143Y-106988429D01*
X208225572Y-107024714D01*
X208007857Y-107024714D01*
X207935286Y-106988429D01*
X207899000Y-106952143D01*
X207645000Y-103396143D02*
X207608714Y-103432429D01*
X207499857Y-103468714D01*
X207427286Y-103468714D01*
X207318429Y-103432429D01*
X207245857Y-103359857D01*
X207209572Y-103287286D01*
X207173286Y-103142143D01*
X207173286Y-103033286D01*
X207209572Y-102888143D01*
X207245857Y-102815571D01*
X207318429Y-102743000D01*
X207427286Y-102706714D01*
X207499857Y-102706714D01*
X207608714Y-102743000D01*
X207645000Y-102779286D01*
X208298143Y-102960714D02*
X208298143Y-103468714D01*
X208116714Y-102670429D02*
X207935286Y-103214714D01*
X208407000Y-103214714D01*
X224155000Y-86958714D02*
X223901000Y-86595857D01*
X223719572Y-86958714D02*
X223719572Y-86196714D01*
X224009857Y-86196714D01*
X224082429Y-86233000D01*
X224118714Y-86269286D01*
X224155000Y-86341857D01*
X224155000Y-86450714D01*
X224118714Y-86523286D01*
X224082429Y-86559571D01*
X224009857Y-86595857D01*
X223719572Y-86595857D01*
X224445286Y-86269286D02*
X224481572Y-86233000D01*
X224554143Y-86196714D01*
X224735572Y-86196714D01*
X224808143Y-86233000D01*
X224844429Y-86269286D01*
X224880714Y-86341857D01*
X224880714Y-86414429D01*
X224844429Y-86523286D01*
X224409000Y-86958714D01*
X224880714Y-86958714D01*
X224372714Y-81588428D02*
X223610714Y-81588428D01*
X223610714Y-81407000D01*
X223647000Y-81298143D01*
X223719571Y-81225571D01*
X223792143Y-81189286D01*
X223937286Y-81153000D01*
X224046143Y-81153000D01*
X224191286Y-81189286D01*
X224263857Y-81225571D01*
X224336429Y-81298143D01*
X224372714Y-81407000D01*
X224372714Y-81588428D01*
X224372714Y-80427286D02*
X224372714Y-80862714D01*
X224372714Y-80645000D02*
X223610714Y-80645000D01*
X223719571Y-80717571D01*
X223792143Y-80790143D01*
X223828429Y-80862714D01*
X191461572Y-82894714D02*
X191461572Y-82132714D01*
X191643000Y-82132714D01*
X191751857Y-82169000D01*
X191824429Y-82241571D01*
X191860714Y-82314143D01*
X191897000Y-82459286D01*
X191897000Y-82568143D01*
X191860714Y-82713286D01*
X191824429Y-82785857D01*
X191751857Y-82858429D01*
X191643000Y-82894714D01*
X191461572Y-82894714D01*
X192187286Y-82205286D02*
X192223572Y-82169000D01*
X192296143Y-82132714D01*
X192477572Y-82132714D01*
X192550143Y-82169000D01*
X192586429Y-82205286D01*
X192622714Y-82277857D01*
X192622714Y-82350429D01*
X192586429Y-82459286D01*
X192151000Y-82894714D01*
X192622714Y-82894714D01*
X191461572Y-86704714D02*
X191461572Y-85942714D01*
X191643000Y-85942714D01*
X191751857Y-85979000D01*
X191824429Y-86051571D01*
X191860714Y-86124143D01*
X191897000Y-86269286D01*
X191897000Y-86378143D01*
X191860714Y-86523286D01*
X191824429Y-86595857D01*
X191751857Y-86668429D01*
X191643000Y-86704714D01*
X191461572Y-86704714D01*
X192151000Y-85942714D02*
X192622714Y-85942714D01*
X192368714Y-86233000D01*
X192477572Y-86233000D01*
X192550143Y-86269286D01*
X192586429Y-86305571D01*
X192622714Y-86378143D01*
X192622714Y-86559571D01*
X192586429Y-86632143D01*
X192550143Y-86668429D01*
X192477572Y-86704714D01*
X192259857Y-86704714D01*
X192187286Y-86668429D01*
X192151000Y-86632143D01*
X191897000Y-79338714D02*
X191643000Y-78975857D01*
X191461572Y-79338714D02*
X191461572Y-78576714D01*
X191751857Y-78576714D01*
X191824429Y-78613000D01*
X191860714Y-78649286D01*
X191897000Y-78721857D01*
X191897000Y-78830714D01*
X191860714Y-78903286D01*
X191824429Y-78939571D01*
X191751857Y-78975857D01*
X191461572Y-78975857D01*
X192151000Y-78576714D02*
X192622714Y-78576714D01*
X192368714Y-78867000D01*
X192477572Y-78867000D01*
X192550143Y-78903286D01*
X192586429Y-78939571D01*
X192622714Y-79012143D01*
X192622714Y-79193571D01*
X192586429Y-79266143D01*
X192550143Y-79302429D01*
X192477572Y-79338714D01*
X192259857Y-79338714D01*
X192187286Y-79302429D01*
X192151000Y-79266143D01*
M02*
