G04 #@! TF.FileFunction,Copper,L1,Top,Signal*
%FSLAX46Y46*%
G04 Gerber Fmt 4.6, Leading zero omitted, Abs format (unit mm)*
G04 Created by KiCad (PCBNEW (2015-01-16 BZR 5376)-product) date 6/25/2015 4:24:09 PM*
%MOMM*%
G01*
G04 APERTURE LIST*
%ADD10C,0.150000*%
%ADD11C,0.254000*%
%ADD12C,0.100000*%
%ADD13R,1.524000X2.032000*%
%ADD14R,1.574800X2.286000*%
%ADD15O,1.574800X2.286000*%
%ADD16R,2.286000X1.574800*%
%ADD17O,2.286000X1.574800*%
%ADD18C,1.422400*%
%ADD19R,2.032000X1.524000*%
%ADD20R,1.397000X1.397000*%
%ADD21C,1.397000*%
%ADD22C,1.270000*%
%ADD23C,1.016000*%
%ADD24C,1.143000*%
%ADD25C,0.762000*%
%ADD26C,0.889000*%
%ADD27C,0.635000*%
G04 APERTURE END LIST*
D10*
D11*
X195289714Y-76816857D02*
X195241333Y-76865238D01*
X195096190Y-76913619D01*
X194999428Y-76913619D01*
X194854286Y-76865238D01*
X194757524Y-76768476D01*
X194709143Y-76671714D01*
X194660762Y-76478190D01*
X194660762Y-76333048D01*
X194709143Y-76139524D01*
X194757524Y-76042762D01*
X194854286Y-75946000D01*
X194999428Y-75897619D01*
X195096190Y-75897619D01*
X195241333Y-75946000D01*
X195289714Y-75994381D01*
X195918667Y-75897619D02*
X196112190Y-75897619D01*
X196208952Y-75946000D01*
X196305714Y-76042762D01*
X196354095Y-76236286D01*
X196354095Y-76574952D01*
X196305714Y-76768476D01*
X196208952Y-76865238D01*
X196112190Y-76913619D01*
X195918667Y-76913619D01*
X195821905Y-76865238D01*
X195725143Y-76768476D01*
X195676762Y-76574952D01*
X195676762Y-76236286D01*
X195725143Y-76042762D01*
X195821905Y-75946000D01*
X195918667Y-75897619D01*
X196789524Y-76913619D02*
X196789524Y-75897619D01*
X197128190Y-76623333D01*
X197466857Y-75897619D01*
X197466857Y-76913619D01*
X197950667Y-76913619D02*
X197950667Y-75897619D01*
X198337714Y-75897619D01*
X198434476Y-75946000D01*
X198482857Y-75994381D01*
X198531238Y-76091143D01*
X198531238Y-76236286D01*
X198482857Y-76333048D01*
X198434476Y-76381429D01*
X198337714Y-76429810D01*
X197950667Y-76429810D01*
D12*
X228500000Y-150000000D02*
X188500000Y-150000000D01*
X228500000Y-75000000D02*
X228500000Y-150000000D01*
X188500000Y-75000000D02*
X188500000Y-150000000D01*
X188500000Y-75000000D02*
X228500000Y-75000000D01*
D13*
X206121000Y-97028000D03*
X209423000Y-97028000D03*
X206629000Y-119380000D03*
X209931000Y-119380000D03*
X206629000Y-135636000D03*
X209931000Y-135636000D03*
X206121000Y-106680000D03*
X209423000Y-106680000D03*
X206121000Y-103124000D03*
X209423000Y-103124000D03*
D14*
X204724000Y-80010000D03*
D15*
X207264000Y-80010000D03*
X209804000Y-80010000D03*
X212344000Y-80010000D03*
X214884000Y-80010000D03*
X217424000Y-80010000D03*
D16*
X190500000Y-113030000D03*
D17*
X190500000Y-110490000D03*
X190500000Y-107950000D03*
X190500000Y-105410000D03*
X190500000Y-102870000D03*
X190500000Y-100330000D03*
X190500000Y-97790000D03*
X190500000Y-95250000D03*
X190500000Y-92710000D03*
X190500000Y-90170000D03*
D16*
X190500000Y-138430000D03*
D17*
X190500000Y-135890000D03*
X190500000Y-133350000D03*
X190500000Y-130810000D03*
X190500000Y-128270000D03*
X190500000Y-125730000D03*
X190500000Y-123190000D03*
X190500000Y-120650000D03*
X190500000Y-118110000D03*
X190500000Y-115570000D03*
D16*
X226060000Y-115570000D03*
D17*
X226060000Y-118110000D03*
X226060000Y-120650000D03*
X226060000Y-123190000D03*
X226060000Y-125730000D03*
X226060000Y-128270000D03*
X226060000Y-130810000D03*
X226060000Y-133350000D03*
X226060000Y-135890000D03*
X226060000Y-138430000D03*
D16*
X226060000Y-90170000D03*
D17*
X226060000Y-92710000D03*
X226060000Y-95250000D03*
X226060000Y-97790000D03*
X226060000Y-100330000D03*
X226060000Y-102870000D03*
X226060000Y-105410000D03*
X226060000Y-107950000D03*
X226060000Y-110490000D03*
X226060000Y-113030000D03*
D18*
X208280000Y-130048000D03*
X208280000Y-124968000D03*
D16*
X200660000Y-90170000D03*
D17*
X200660000Y-92710000D03*
X200660000Y-95250000D03*
X200660000Y-97790000D03*
X200660000Y-100330000D03*
X200660000Y-102870000D03*
X200660000Y-105410000D03*
X200660000Y-107950000D03*
X200660000Y-110490000D03*
X200660000Y-113030000D03*
X200660000Y-115570000D03*
X200660000Y-118110000D03*
X200660000Y-120650000D03*
X200660000Y-123190000D03*
X200660000Y-125730000D03*
X200660000Y-128270000D03*
X200660000Y-130810000D03*
X200660000Y-133350000D03*
X200660000Y-135890000D03*
X200660000Y-138430000D03*
X215900000Y-138430000D03*
X215900000Y-135890000D03*
X215900000Y-133350000D03*
X215900000Y-130810000D03*
X215900000Y-128270000D03*
X215900000Y-125730000D03*
X215900000Y-123190000D03*
X215900000Y-120650000D03*
X215900000Y-118110000D03*
X215900000Y-115570000D03*
X215900000Y-113030000D03*
X215900000Y-110490000D03*
X215900000Y-107950000D03*
X215900000Y-105410000D03*
X215900000Y-102870000D03*
X215900000Y-100330000D03*
X215900000Y-97790000D03*
X215900000Y-95250000D03*
X215900000Y-92710000D03*
X215900000Y-90170000D03*
D13*
X225933000Y-86614000D03*
X222631000Y-86614000D03*
D19*
X224028000Y-82677000D03*
X224028000Y-79375000D03*
D13*
X193675000Y-82550000D03*
X190373000Y-82550000D03*
X193675000Y-86360000D03*
X190373000Y-86360000D03*
X190373000Y-78994000D03*
X193675000Y-78994000D03*
D20*
X200914000Y-143510000D03*
D21*
X203454000Y-143510000D03*
X205994000Y-143510000D03*
X208534000Y-143510000D03*
X211074000Y-143510000D03*
X213614000Y-143510000D03*
X216154000Y-143510000D03*
D20*
X226060000Y-146050000D03*
D21*
X226060000Y-143510000D03*
X196040000Y-144000000D03*
X190960000Y-144000000D03*
D22*
X206121000Y-147828000D03*
X195326000Y-139954000D03*
X194056000Y-130302000D03*
X209042000Y-147828000D03*
X197866000Y-134366000D03*
X199390000Y-78232000D03*
D23*
X207010000Y-79756000D02*
X207010000Y-80010000D01*
X209423000Y-103124000D02*
X209423000Y-106680000D01*
X210820000Y-106680000D02*
X214630000Y-110490000D01*
X214630000Y-110490000D02*
X215900000Y-110490000D01*
X209423000Y-106680000D02*
X210820000Y-106680000D01*
X201930000Y-115570000D02*
X203708000Y-113792000D01*
X203708000Y-102616000D02*
X203708000Y-101600000D01*
X203708000Y-113792000D02*
X203708000Y-102616000D01*
X200660000Y-115570000D02*
X201930000Y-115570000D01*
X209423000Y-103124000D02*
X209423000Y-97028000D01*
X203708000Y-101092000D02*
X204724000Y-100076000D01*
X204724000Y-100076000D02*
X207772000Y-100076000D01*
X207772000Y-100076000D02*
X209423000Y-98425000D01*
X209423000Y-98425000D02*
X209423000Y-97028000D01*
X203708000Y-102616000D02*
X203708000Y-101092000D01*
D24*
X226060000Y-86741000D02*
X225933000Y-86614000D01*
X226060000Y-90170000D02*
X226060000Y-86741000D01*
D23*
X225552000Y-77216000D02*
X227076000Y-78740000D01*
X227076000Y-78740000D02*
X227076000Y-85471000D01*
X227076000Y-85471000D02*
X225933000Y-86614000D01*
X211836000Y-77216000D02*
X221488000Y-77216000D01*
X211328000Y-77216000D02*
X211836000Y-77216000D01*
X221488000Y-77216000D02*
X225552000Y-77216000D01*
D24*
X207264000Y-86106000D02*
X207264000Y-80010000D01*
X209423000Y-88265000D02*
X207264000Y-86106000D01*
X209423000Y-97028000D02*
X209423000Y-88265000D01*
X208534000Y-77216000D02*
X207264000Y-78486000D01*
X207264000Y-78486000D02*
X207264000Y-80010000D01*
X211836000Y-77216000D02*
X208534000Y-77216000D01*
D25*
X222250000Y-147574000D02*
X220726000Y-149098000D01*
D23*
X218440000Y-110490000D02*
X223520000Y-115570000D01*
X223520000Y-115570000D02*
X223520000Y-146304000D01*
X223520000Y-146304000D02*
X222250000Y-147574000D01*
X215900000Y-110490000D02*
X218440000Y-110490000D01*
D25*
X207518000Y-149225000D02*
X206121000Y-147828000D01*
X210693000Y-149225000D02*
X207518000Y-149225000D01*
X210820000Y-149098000D02*
X210693000Y-149225000D01*
X220726000Y-149098000D02*
X210820000Y-149098000D01*
D23*
X218440000Y-86360000D02*
X218440000Y-91186000D01*
X216916000Y-92710000D02*
X218440000Y-91186000D01*
X215900000Y-92710000D02*
X216916000Y-92710000D01*
D24*
X214884000Y-82804000D02*
X218440000Y-86360000D01*
X214884000Y-80010000D02*
X214884000Y-82804000D01*
D23*
X206121000Y-93345000D02*
X202946000Y-90170000D01*
X197612000Y-91440000D02*
X198882000Y-90170000D01*
X197612000Y-114300000D02*
X197612000Y-91440000D01*
X190500000Y-118110000D02*
X193802000Y-118110000D01*
X193802000Y-118110000D02*
X197612000Y-114300000D01*
X198882000Y-90170000D02*
X200660000Y-90170000D01*
X206121000Y-93345000D02*
X206121000Y-97028000D01*
X202946000Y-90170000D02*
X206121000Y-93345000D01*
X200660000Y-90170000D02*
X202946000Y-90170000D01*
D26*
X200660000Y-82550000D02*
X203200000Y-80010000D01*
X203200000Y-80010000D02*
X204724000Y-80010000D01*
X200660000Y-90170000D02*
X200660000Y-82550000D01*
D27*
X196040000Y-140668000D02*
X195326000Y-139954000D01*
X194056000Y-130302000D02*
X194310000Y-130048000D01*
X194310000Y-130048000D02*
X194310000Y-119888000D01*
X194310000Y-119888000D02*
X192532000Y-118110000D01*
X192532000Y-118110000D02*
X190500000Y-118110000D01*
X196040000Y-144000000D02*
X196040000Y-140668000D01*
X220218000Y-128778000D02*
X217170000Y-125730000D01*
X217170000Y-125730000D02*
X215900000Y-125730000D01*
X191770000Y-138430000D02*
X190500000Y-138430000D01*
X192786000Y-139446000D02*
X191770000Y-138430000D01*
X192786000Y-146558000D02*
X192786000Y-139446000D01*
X194564000Y-148336000D02*
X192786000Y-146558000D01*
X198120000Y-148336000D02*
X194564000Y-148336000D01*
X198628000Y-147828000D02*
X198120000Y-148336000D01*
X221488000Y-130048000D02*
X221996000Y-130556000D01*
X221996000Y-130556000D02*
X221996000Y-143764000D01*
X221996000Y-143764000D02*
X218440000Y-147320000D01*
X218440000Y-147320000D02*
X209550000Y-147320000D01*
X209550000Y-147320000D02*
X209042000Y-147828000D01*
X220218000Y-128778000D02*
X221488000Y-130048000D01*
X207772000Y-146558000D02*
X199898000Y-146558000D01*
X199898000Y-146558000D02*
X198628000Y-147828000D01*
X209042000Y-147828000D02*
X207772000Y-146558000D01*
D25*
X192278000Y-90170000D02*
X193675000Y-88773000D01*
X193675000Y-88773000D02*
X193675000Y-86360000D01*
X190500000Y-90170000D02*
X192278000Y-90170000D01*
D27*
X211836000Y-145796000D02*
X211074000Y-145034000D01*
X211074000Y-145034000D02*
X211074000Y-143510000D01*
X211074000Y-145288000D02*
X210820000Y-145542000D01*
X210820000Y-145542000D02*
X199136000Y-145542000D01*
X199136000Y-145542000D02*
X197866000Y-146812000D01*
X197866000Y-146812000D02*
X195326000Y-146812000D01*
X195326000Y-146812000D02*
X194056000Y-145542000D01*
X194056000Y-145542000D02*
X194056000Y-137160000D01*
X194056000Y-137160000D02*
X192786000Y-135890000D01*
X192786000Y-135890000D02*
X190500000Y-135890000D01*
X211074000Y-143510000D02*
X211074000Y-145288000D01*
X193802000Y-92710000D02*
X196596000Y-89916000D01*
X216916000Y-128270000D02*
X220472000Y-131826000D01*
X220472000Y-131826000D02*
X220472000Y-143002000D01*
X220472000Y-143002000D02*
X217678000Y-145796000D01*
X217678000Y-145796000D02*
X211836000Y-145796000D01*
X215900000Y-128270000D02*
X216916000Y-128270000D01*
D25*
X195326000Y-82550000D02*
X193675000Y-82550000D01*
X196596000Y-83820000D02*
X195326000Y-82550000D01*
X196596000Y-89916000D02*
X196596000Y-83820000D01*
X193802000Y-92710000D02*
X196596000Y-89916000D01*
X190500000Y-92710000D02*
X193802000Y-92710000D01*
D23*
X206121000Y-103124000D02*
X206121000Y-106680000D01*
X206121000Y-106680000D02*
X206121000Y-113792000D01*
X214630000Y-113030000D02*
X211836000Y-110236000D01*
X211836000Y-110236000D02*
X207772000Y-110236000D01*
X207772000Y-110236000D02*
X206121000Y-108585000D01*
X206121000Y-108585000D02*
X206121000Y-106680000D01*
X215900000Y-113030000D02*
X214630000Y-113030000D01*
X214630000Y-113030000D02*
X215900000Y-113030000D01*
X212852000Y-130556000D02*
X212852000Y-114808000D01*
X212852000Y-131064000D02*
X212852000Y-130556000D01*
X212852000Y-114808000D02*
X214630000Y-113030000D01*
D24*
X206121000Y-113665000D02*
X206629000Y-114173000D01*
X206629000Y-114173000D02*
X206629000Y-119380000D01*
X206121000Y-106680000D02*
X206121000Y-113665000D01*
D23*
X211836000Y-138684000D02*
X207772000Y-138684000D01*
X212852000Y-137668000D02*
X211836000Y-138684000D01*
X212852000Y-130556000D02*
X212852000Y-137668000D01*
X205359000Y-118110000D02*
X206629000Y-119380000D01*
X200660000Y-118110000D02*
X205359000Y-118110000D01*
D26*
X223520000Y-92710000D02*
X220218000Y-89408000D01*
X220218000Y-89408000D02*
X220218000Y-82804000D01*
X220218000Y-82804000D02*
X223647000Y-79375000D01*
X223647000Y-79375000D02*
X224028000Y-79375000D01*
X226060000Y-92710000D02*
X223520000Y-92710000D01*
D23*
X206629000Y-137541000D02*
X207772000Y-138684000D01*
X206629000Y-135636000D02*
X206629000Y-137541000D01*
D27*
X197866000Y-134366000D02*
X197866000Y-123444000D01*
X197866000Y-123444000D02*
X197866000Y-120142000D01*
X197866000Y-120142000D02*
X199898000Y-118110000D01*
X199898000Y-118110000D02*
X200660000Y-118110000D01*
D23*
X198628000Y-78994000D02*
X199390000Y-78232000D01*
X193675000Y-78994000D02*
X198628000Y-78994000D01*
X190373000Y-86360000D02*
X190373000Y-82550000D01*
X190373000Y-82550000D02*
X190373000Y-78994000D01*
D24*
X222631000Y-84074000D02*
X224028000Y-82677000D01*
X222631000Y-86614000D02*
X222631000Y-84074000D01*
X209931000Y-123317000D02*
X208280000Y-124968000D01*
X209931000Y-119380000D02*
X209931000Y-123317000D01*
X209931000Y-131699000D02*
X208280000Y-130048000D01*
X209931000Y-135636000D02*
X209931000Y-131699000D01*
D27*
X217170000Y-130810000D02*
X219202000Y-132842000D01*
X215900000Y-130810000D02*
X217170000Y-130810000D01*
X219202000Y-132842000D02*
X219202000Y-139700000D01*
X219202000Y-139700000D02*
X217424000Y-141478000D01*
X217424000Y-141478000D02*
X198628000Y-141478000D01*
X198628000Y-141478000D02*
X196723000Y-139573000D01*
X196723000Y-138049000D02*
X193040000Y-134366000D01*
X193040000Y-134366000D02*
X193040000Y-134366000D01*
X193040000Y-134366000D02*
X192024000Y-133350000D01*
X192024000Y-133350000D02*
X190500000Y-133350000D01*
X196723000Y-139573000D02*
X196723000Y-138049000D01*
X194056000Y-133096000D02*
X194056000Y-133096000D01*
X194056000Y-133096000D02*
X191770000Y-130810000D01*
X191770000Y-130810000D02*
X190500000Y-130810000D01*
X197866000Y-136906000D02*
X194056000Y-133096000D01*
X200660000Y-140462000D02*
X199644000Y-140462000D01*
X199644000Y-140462000D02*
X197866000Y-138684000D01*
X217940000Y-139446000D02*
X217932000Y-139446000D01*
X217932000Y-139446000D02*
X216916000Y-140462000D01*
X215900000Y-133350000D02*
X217170000Y-133350000D01*
X217170000Y-133350000D02*
X217940000Y-134120000D01*
X216916000Y-140462000D02*
X200660000Y-140462000D01*
X217940000Y-134120000D02*
X217940000Y-139446000D01*
X197866000Y-138684000D02*
X197866000Y-136906000D01*
D11*
G36*
X207727884Y-142430500D02*
X207404174Y-142753647D01*
X207270685Y-143075122D01*
X207163798Y-142817072D01*
X206928186Y-142755419D01*
X206173605Y-143510000D01*
X206928186Y-144264581D01*
X207163798Y-144202928D01*
X207262082Y-143923683D01*
X207402855Y-144264380D01*
X207727408Y-144589500D01*
X206710556Y-144589500D01*
X206748581Y-144444186D01*
X205994000Y-143689605D01*
X205239419Y-144444186D01*
X205277443Y-144589500D01*
X204260115Y-144589500D01*
X204583826Y-144266353D01*
X204717314Y-143944877D01*
X204824202Y-144202928D01*
X205059814Y-144264581D01*
X205814395Y-143510000D01*
X205059814Y-142755419D01*
X204824202Y-142817072D01*
X204725917Y-143096316D01*
X204585145Y-142755620D01*
X204260591Y-142430500D01*
X205277443Y-142430500D01*
X205239419Y-142575814D01*
X205994000Y-143330395D01*
X206748581Y-142575814D01*
X206710556Y-142430500D01*
X207727884Y-142430500D01*
X207727884Y-142430500D01*
G37*
X207727884Y-142430500D02*
X207404174Y-142753647D01*
X207270685Y-143075122D01*
X207163798Y-142817072D01*
X206928186Y-142755419D01*
X206173605Y-143510000D01*
X206928186Y-144264581D01*
X207163798Y-144202928D01*
X207262082Y-143923683D01*
X207402855Y-144264380D01*
X207727408Y-144589500D01*
X206710556Y-144589500D01*
X206748581Y-144444186D01*
X205994000Y-143689605D01*
X205239419Y-144444186D01*
X205277443Y-144589500D01*
X204260115Y-144589500D01*
X204583826Y-144266353D01*
X204717314Y-143944877D01*
X204824202Y-144202928D01*
X205059814Y-144264581D01*
X205814395Y-143510000D01*
X205059814Y-142755419D01*
X204824202Y-142817072D01*
X204725917Y-143096316D01*
X204585145Y-142755620D01*
X204260591Y-142430500D01*
X205277443Y-142430500D01*
X205239419Y-142575814D01*
X205994000Y-143330395D01*
X206748581Y-142575814D01*
X206710556Y-142430500D01*
X207727884Y-142430500D01*
G36*
X227815000Y-149315000D02*
X227393730Y-149315000D01*
X227393730Y-143245914D01*
X227191145Y-142755620D01*
X226816353Y-142380174D01*
X226326413Y-142176733D01*
X225795914Y-142176270D01*
X225305620Y-142378855D01*
X224930174Y-142753647D01*
X224726733Y-143243587D01*
X224726270Y-143774086D01*
X224928855Y-144264380D01*
X225303647Y-144639826D01*
X225488033Y-144716390D01*
X225235745Y-144716390D01*
X225002271Y-144812859D01*
X224823487Y-144991332D01*
X224726611Y-145224636D01*
X224726390Y-145477255D01*
X224726390Y-146874255D01*
X224822859Y-147107729D01*
X225001332Y-147286513D01*
X225234636Y-147383389D01*
X225487255Y-147383610D01*
X226884255Y-147383610D01*
X227117729Y-147287141D01*
X227296513Y-147108668D01*
X227393389Y-146875364D01*
X227393610Y-146622745D01*
X227393610Y-145225745D01*
X227297141Y-144992271D01*
X227118668Y-144813487D01*
X226885364Y-144716611D01*
X226632745Y-144716390D01*
X226632272Y-144716390D01*
X226814380Y-144641145D01*
X227189826Y-144266353D01*
X227393267Y-143776413D01*
X227393730Y-143245914D01*
X227393730Y-149315000D01*
X189185000Y-149315000D01*
X189185000Y-139833546D01*
X189230136Y-139852289D01*
X189482755Y-139852510D01*
X191768755Y-139852510D01*
X191823040Y-139830079D01*
X191833500Y-139840538D01*
X191833500Y-142987525D01*
X191716353Y-142870174D01*
X191226413Y-142666733D01*
X190695914Y-142666270D01*
X190205620Y-142868855D01*
X189830174Y-143243647D01*
X189626733Y-143733587D01*
X189626270Y-144264086D01*
X189828855Y-144754380D01*
X190203647Y-145129826D01*
X190693587Y-145333267D01*
X191224086Y-145333730D01*
X191714380Y-145131145D01*
X191833500Y-145012232D01*
X191833500Y-146558000D01*
X191906005Y-146922506D01*
X192112481Y-147231519D01*
X193890480Y-149009519D01*
X193890481Y-149009519D01*
X194199494Y-149215995D01*
X194563999Y-149288499D01*
X194564000Y-149288500D01*
X198120000Y-149288500D01*
X198484506Y-149215995D01*
X198793519Y-149009519D01*
X199301519Y-148501520D01*
X199301519Y-148501519D01*
X199301521Y-148501516D01*
X200292538Y-147510500D01*
X207377462Y-147510500D01*
X207771932Y-147904970D01*
X207771780Y-148079510D01*
X207964718Y-148546458D01*
X208321663Y-148904026D01*
X208788273Y-149097779D01*
X209293510Y-149098220D01*
X209760458Y-148905282D01*
X210118026Y-148548337D01*
X210232563Y-148272500D01*
X218440000Y-148272500D01*
X218804506Y-148199995D01*
X219113519Y-147993519D01*
X222669519Y-144437520D01*
X222669519Y-144437519D01*
X222875995Y-144128506D01*
X222948499Y-143764000D01*
X222948500Y-143764000D01*
X222948500Y-130556000D01*
X222875995Y-130191494D01*
X222669519Y-129882481D01*
X222669519Y-129882480D01*
X222161519Y-129374481D01*
X220891521Y-128104483D01*
X220891519Y-128104481D01*
X220891519Y-128104480D01*
X217843519Y-125056481D01*
X217534506Y-124850005D01*
X217356633Y-124814623D01*
X217296222Y-124724211D01*
X216900801Y-124459999D01*
X217296222Y-124195789D01*
X217604559Y-123734329D01*
X217712833Y-123190000D01*
X217604559Y-122645671D01*
X217296222Y-122184211D01*
X216900801Y-121919999D01*
X217296222Y-121655789D01*
X217604559Y-121194329D01*
X217712833Y-120650000D01*
X217604559Y-120105671D01*
X217296222Y-119644211D01*
X216900801Y-119379999D01*
X217296222Y-119115789D01*
X217604559Y-118654329D01*
X217712833Y-118110000D01*
X217604559Y-117565671D01*
X217296222Y-117104211D01*
X216900801Y-116839999D01*
X217296222Y-116575789D01*
X217604559Y-116114329D01*
X217712833Y-115570000D01*
X217604559Y-115025671D01*
X217296222Y-114564211D01*
X216900801Y-114299999D01*
X217296222Y-114035789D01*
X217604559Y-113574329D01*
X217712833Y-113030000D01*
X217604559Y-112485671D01*
X217296222Y-112024211D01*
X216901170Y-111760246D01*
X216917262Y-111755525D01*
X217351191Y-111405986D01*
X217618327Y-110916996D01*
X217635010Y-110837060D01*
X217512851Y-110617000D01*
X216027000Y-110617000D01*
X216027000Y-110637000D01*
X215773000Y-110637000D01*
X215773000Y-110617000D01*
X214287149Y-110617000D01*
X214164990Y-110837060D01*
X214181673Y-110916996D01*
X214239747Y-111023301D01*
X212644223Y-109427777D01*
X212273407Y-109180006D01*
X211836000Y-109093000D01*
X210820110Y-109093000D01*
X210820110Y-107570245D01*
X210820110Y-105789755D01*
X210820110Y-104014245D01*
X210820110Y-102233755D01*
X210820110Y-97918245D01*
X210820110Y-96137755D01*
X210819889Y-95885136D01*
X210723013Y-95651832D01*
X210544229Y-95473359D01*
X210310755Y-95376890D01*
X209708750Y-95377000D01*
X209550000Y-95535750D01*
X209550000Y-96901000D01*
X210661250Y-96901000D01*
X210820000Y-96742250D01*
X210820110Y-96137755D01*
X210820110Y-97918245D01*
X210820000Y-97313750D01*
X210661250Y-97155000D01*
X209550000Y-97155000D01*
X209550000Y-98520250D01*
X209708750Y-98679000D01*
X210310755Y-98679110D01*
X210544229Y-98582641D01*
X210723013Y-98404168D01*
X210819889Y-98170864D01*
X210820110Y-97918245D01*
X210820110Y-102233755D01*
X210819889Y-101981136D01*
X210723013Y-101747832D01*
X210544229Y-101569359D01*
X210310755Y-101472890D01*
X209708750Y-101473000D01*
X209550000Y-101631750D01*
X209550000Y-102997000D01*
X210661250Y-102997000D01*
X210820000Y-102838250D01*
X210820110Y-102233755D01*
X210820110Y-104014245D01*
X210820000Y-103409750D01*
X210661250Y-103251000D01*
X209550000Y-103251000D01*
X209550000Y-104616250D01*
X209708750Y-104775000D01*
X210310755Y-104775110D01*
X210544229Y-104678641D01*
X210723013Y-104500168D01*
X210819889Y-104266864D01*
X210820110Y-104014245D01*
X210820110Y-105789755D01*
X210819889Y-105537136D01*
X210723013Y-105303832D01*
X210544229Y-105125359D01*
X210310755Y-105028890D01*
X209708750Y-105029000D01*
X209550000Y-105187750D01*
X209550000Y-106553000D01*
X210661250Y-106553000D01*
X210820000Y-106394250D01*
X210820110Y-105789755D01*
X210820110Y-107570245D01*
X210820000Y-106965750D01*
X210661250Y-106807000D01*
X209550000Y-106807000D01*
X209550000Y-108172250D01*
X209708750Y-108331000D01*
X210310755Y-108331110D01*
X210544229Y-108234641D01*
X210723013Y-108056168D01*
X210819889Y-107822864D01*
X210820110Y-107570245D01*
X210820110Y-109093000D01*
X209296000Y-109093000D01*
X209296000Y-108172250D01*
X209296000Y-106807000D01*
X209296000Y-106553000D01*
X209296000Y-105187750D01*
X209296000Y-104616250D01*
X209296000Y-103251000D01*
X209296000Y-102997000D01*
X209296000Y-101631750D01*
X209296000Y-98520250D01*
X209296000Y-97155000D01*
X209296000Y-96901000D01*
X209296000Y-95535750D01*
X209137250Y-95377000D01*
X208535245Y-95376890D01*
X208301771Y-95473359D01*
X208122987Y-95651832D01*
X208026111Y-95885136D01*
X208025890Y-96137755D01*
X208026000Y-96742250D01*
X208184750Y-96901000D01*
X209296000Y-96901000D01*
X209296000Y-97155000D01*
X208184750Y-97155000D01*
X208026000Y-97313750D01*
X208025890Y-97918245D01*
X208026111Y-98170864D01*
X208122987Y-98404168D01*
X208301771Y-98582641D01*
X208535245Y-98679110D01*
X209137250Y-98679000D01*
X209296000Y-98520250D01*
X209296000Y-101631750D01*
X209137250Y-101473000D01*
X208535245Y-101472890D01*
X208301771Y-101569359D01*
X208122987Y-101747832D01*
X208026111Y-101981136D01*
X208025890Y-102233755D01*
X208026000Y-102838250D01*
X208184750Y-102997000D01*
X209296000Y-102997000D01*
X209296000Y-103251000D01*
X208184750Y-103251000D01*
X208026000Y-103409750D01*
X208025890Y-104014245D01*
X208026111Y-104266864D01*
X208122987Y-104500168D01*
X208301771Y-104678641D01*
X208535245Y-104775110D01*
X209137250Y-104775000D01*
X209296000Y-104616250D01*
X209296000Y-105187750D01*
X209137250Y-105029000D01*
X208535245Y-105028890D01*
X208301771Y-105125359D01*
X208122987Y-105303832D01*
X208026111Y-105537136D01*
X208025890Y-105789755D01*
X208026000Y-106394250D01*
X208184750Y-106553000D01*
X209296000Y-106553000D01*
X209296000Y-106807000D01*
X208184750Y-106807000D01*
X208026000Y-106965750D01*
X208025890Y-107570245D01*
X208026111Y-107822864D01*
X208122987Y-108056168D01*
X208301771Y-108234641D01*
X208535245Y-108331110D01*
X209137250Y-108331000D01*
X209296000Y-108172250D01*
X209296000Y-109093000D01*
X208245446Y-109093000D01*
X207327500Y-108175054D01*
X207327500Y-108149518D01*
X207421013Y-108056168D01*
X207517889Y-107822864D01*
X207518110Y-107570245D01*
X207518110Y-105538245D01*
X207421641Y-105304771D01*
X207264000Y-105146855D01*
X207264000Y-104656907D01*
X207421013Y-104500168D01*
X207517889Y-104266864D01*
X207518110Y-104014245D01*
X207518110Y-101982245D01*
X207421641Y-101748771D01*
X207243168Y-101569987D01*
X207009864Y-101473111D01*
X206757245Y-101472890D01*
X205233245Y-101472890D01*
X204999771Y-101569359D01*
X204820987Y-101747832D01*
X204724111Y-101981136D01*
X204723890Y-102233755D01*
X204723890Y-104265755D01*
X204820359Y-104499229D01*
X204978000Y-104657144D01*
X204978000Y-105147092D01*
X204820987Y-105303832D01*
X204724111Y-105537136D01*
X204723890Y-105789755D01*
X204723890Y-107821755D01*
X204820359Y-108055229D01*
X204914500Y-108149534D01*
X204914500Y-113665000D01*
X205006339Y-114126708D01*
X205060786Y-114208194D01*
X205065006Y-114229407D01*
X205312777Y-114600223D01*
X205422500Y-114673537D01*
X205422500Y-116979630D01*
X205359000Y-116967000D01*
X201850870Y-116967000D01*
X201661170Y-116840246D01*
X201677262Y-116835525D01*
X202111191Y-116485986D01*
X202378327Y-115996996D01*
X202395010Y-115917060D01*
X202272851Y-115697000D01*
X200787000Y-115697000D01*
X200787000Y-115717000D01*
X200533000Y-115717000D01*
X200533000Y-115697000D01*
X199047149Y-115697000D01*
X198924990Y-115917060D01*
X198941673Y-115996996D01*
X199208809Y-116485986D01*
X199642738Y-116835525D01*
X199658829Y-116840246D01*
X199263778Y-117104211D01*
X198955441Y-117565671D01*
X198920715Y-117740245D01*
X197192481Y-119468481D01*
X196986005Y-119777494D01*
X196913500Y-120142000D01*
X196913500Y-123444000D01*
X196913500Y-133522352D01*
X196789974Y-133645663D01*
X196596221Y-134112273D01*
X196596066Y-134289028D01*
X194729519Y-132422481D01*
X193878883Y-131571845D01*
X194307510Y-131572220D01*
X194774458Y-131379282D01*
X195132026Y-131022337D01*
X195325779Y-130555727D01*
X195326220Y-130050490D01*
X195262500Y-129896275D01*
X195262500Y-119888000D01*
X195262499Y-119887999D01*
X195189995Y-119523494D01*
X194983519Y-119214481D01*
X194983519Y-119214480D01*
X194648742Y-118879703D01*
X198420223Y-115108224D01*
X198420223Y-115108223D01*
X198585777Y-114860453D01*
X198667993Y-114737408D01*
X198667994Y-114737407D01*
X198754999Y-114300000D01*
X198755000Y-114300000D01*
X198755000Y-91913446D01*
X199168279Y-91500166D01*
X199390136Y-91592289D01*
X199431227Y-91592324D01*
X199263778Y-91704211D01*
X198955441Y-92165671D01*
X198847167Y-92710000D01*
X198955441Y-93254329D01*
X199263778Y-93715789D01*
X199659198Y-93979999D01*
X199263778Y-94244211D01*
X198955441Y-94705671D01*
X198847167Y-95250000D01*
X198955441Y-95794329D01*
X199263778Y-96255789D01*
X199659198Y-96519999D01*
X199263778Y-96784211D01*
X198955441Y-97245671D01*
X198847167Y-97790000D01*
X198955441Y-98334329D01*
X199263778Y-98795789D01*
X199659198Y-99059999D01*
X199263778Y-99324211D01*
X198955441Y-99785671D01*
X198847167Y-100330000D01*
X198955441Y-100874329D01*
X199263778Y-101335789D01*
X199659198Y-101599999D01*
X199263778Y-101864211D01*
X198955441Y-102325671D01*
X198847167Y-102870000D01*
X198955441Y-103414329D01*
X199263778Y-103875789D01*
X199659198Y-104139999D01*
X199263778Y-104404211D01*
X198955441Y-104865671D01*
X198847167Y-105410000D01*
X198955441Y-105954329D01*
X199263778Y-106415789D01*
X199659198Y-106679999D01*
X199263778Y-106944211D01*
X198955441Y-107405671D01*
X198847167Y-107950000D01*
X198955441Y-108494329D01*
X199263778Y-108955789D01*
X199659198Y-109219999D01*
X199263778Y-109484211D01*
X198955441Y-109945671D01*
X198847167Y-110490000D01*
X198955441Y-111034329D01*
X199263778Y-111495789D01*
X199659198Y-111759999D01*
X199263778Y-112024211D01*
X198955441Y-112485671D01*
X198847167Y-113030000D01*
X198955441Y-113574329D01*
X199263778Y-114035789D01*
X199658829Y-114299753D01*
X199642738Y-114304475D01*
X199208809Y-114654014D01*
X198941673Y-115143004D01*
X198924990Y-115222940D01*
X199047149Y-115443000D01*
X200533000Y-115443000D01*
X200533000Y-115423000D01*
X200787000Y-115423000D01*
X200787000Y-115443000D01*
X202272851Y-115443000D01*
X202395010Y-115222940D01*
X202378327Y-115143004D01*
X202111191Y-114654014D01*
X201677262Y-114304475D01*
X201661170Y-114299753D01*
X202056222Y-114035789D01*
X202364559Y-113574329D01*
X202472833Y-113030000D01*
X202364559Y-112485671D01*
X202056222Y-112024211D01*
X201660801Y-111759999D01*
X202056222Y-111495789D01*
X202364559Y-111034329D01*
X202472833Y-110490000D01*
X202364559Y-109945671D01*
X202056222Y-109484211D01*
X201660801Y-109219999D01*
X202056222Y-108955789D01*
X202364559Y-108494329D01*
X202472833Y-107950000D01*
X202364559Y-107405671D01*
X202056222Y-106944211D01*
X201660801Y-106679999D01*
X202056222Y-106415789D01*
X202364559Y-105954329D01*
X202472833Y-105410000D01*
X202364559Y-104865671D01*
X202056222Y-104404211D01*
X201660801Y-104139999D01*
X202056222Y-103875789D01*
X202364559Y-103414329D01*
X202472833Y-102870000D01*
X202364559Y-102325671D01*
X202056222Y-101864211D01*
X201660801Y-101599999D01*
X202056222Y-101335789D01*
X202364559Y-100874329D01*
X202472833Y-100330000D01*
X202364559Y-99785671D01*
X202056222Y-99324211D01*
X201660801Y-99059999D01*
X202056222Y-98795789D01*
X202364559Y-98334329D01*
X202472833Y-97790000D01*
X202364559Y-97245671D01*
X202056222Y-96784211D01*
X201660801Y-96519999D01*
X202056222Y-96255789D01*
X202364559Y-95794329D01*
X202472833Y-95250000D01*
X202364559Y-94705671D01*
X202056222Y-94244211D01*
X201660801Y-93979999D01*
X202056222Y-93715789D01*
X202364559Y-93254329D01*
X202472833Y-92710000D01*
X202364559Y-92165671D01*
X202056222Y-91704211D01*
X201889049Y-91592510D01*
X201928755Y-91592510D01*
X202162229Y-91496041D01*
X202341013Y-91317568D01*
X202342909Y-91313000D01*
X202472554Y-91313000D01*
X204978000Y-93818446D01*
X204978000Y-95495092D01*
X204820987Y-95651832D01*
X204724111Y-95885136D01*
X204723890Y-96137755D01*
X204723890Y-98169755D01*
X204820359Y-98403229D01*
X204998832Y-98582013D01*
X205232136Y-98678889D01*
X205484755Y-98679110D01*
X207008755Y-98679110D01*
X207242229Y-98582641D01*
X207421013Y-98404168D01*
X207517889Y-98170864D01*
X207518110Y-97918245D01*
X207518110Y-95886245D01*
X207421641Y-95652771D01*
X207264000Y-95494855D01*
X207264000Y-93345000D01*
X207176994Y-92907593D01*
X206929223Y-92536777D01*
X203754223Y-89361777D01*
X203383407Y-89114006D01*
X202946000Y-89027000D01*
X202343140Y-89027000D01*
X202341641Y-89023371D01*
X202163168Y-88844587D01*
X201929864Y-88747711D01*
X201739500Y-88747544D01*
X201739500Y-82997143D01*
X203347217Y-81389425D01*
X203397959Y-81512229D01*
X203576432Y-81691013D01*
X203809736Y-81787889D01*
X204062355Y-81788110D01*
X205637155Y-81788110D01*
X205870629Y-81691641D01*
X206049413Y-81513168D01*
X206146289Y-81279864D01*
X206146349Y-81210838D01*
X206348014Y-81461191D01*
X206837004Y-81728327D01*
X206916940Y-81745010D01*
X207137000Y-81622851D01*
X207137000Y-80137000D01*
X207117000Y-80137000D01*
X207117000Y-79883000D01*
X207137000Y-79883000D01*
X207137000Y-78397149D01*
X206916940Y-78274990D01*
X206837004Y-78291673D01*
X206348014Y-78558809D01*
X206146510Y-78808962D01*
X206146510Y-78741245D01*
X206050041Y-78507771D01*
X205871568Y-78328987D01*
X205638264Y-78232111D01*
X205385645Y-78231890D01*
X203810845Y-78231890D01*
X203577371Y-78328359D01*
X203398587Y-78506832D01*
X203301711Y-78740136D01*
X203301544Y-78930500D01*
X203200000Y-78930500D01*
X202786893Y-79012672D01*
X202436678Y-79246678D01*
X202436675Y-79246681D01*
X199896678Y-81786678D01*
X199662672Y-82136893D01*
X199580500Y-82550000D01*
X199580500Y-88747490D01*
X199391245Y-88747490D01*
X199157771Y-88843959D01*
X198978987Y-89022432D01*
X198977090Y-89027000D01*
X198882000Y-89027000D01*
X198444593Y-89114006D01*
X198073777Y-89361777D01*
X197612000Y-89823554D01*
X197612000Y-83820000D01*
X197534662Y-83431194D01*
X197534661Y-83431193D01*
X197461580Y-83321821D01*
X197314420Y-83101580D01*
X197314420Y-83101579D01*
X196044420Y-81831580D01*
X195714807Y-81611338D01*
X195650299Y-81598507D01*
X195326000Y-81534000D01*
X195072110Y-81534000D01*
X195072110Y-81408245D01*
X194975641Y-81174771D01*
X194797168Y-80995987D01*
X194563864Y-80899111D01*
X194311245Y-80898890D01*
X192787245Y-80898890D01*
X192553771Y-80995359D01*
X192374987Y-81173832D01*
X192278111Y-81407136D01*
X192277890Y-81659755D01*
X192277890Y-83691755D01*
X192374359Y-83925229D01*
X192552832Y-84104013D01*
X192786136Y-84200889D01*
X193038755Y-84201110D01*
X194562755Y-84201110D01*
X194796229Y-84104641D01*
X194975013Y-83926168D01*
X195060192Y-83721032D01*
X195580000Y-84240840D01*
X195580000Y-89495159D01*
X193381159Y-91694000D01*
X191880940Y-91694000D01*
X191500801Y-91439999D01*
X191880940Y-91186000D01*
X192278000Y-91186000D01*
X192278000Y-91185999D01*
X192602299Y-91121492D01*
X192666806Y-91108662D01*
X192666807Y-91108662D01*
X192996420Y-90888420D01*
X194393420Y-89491421D01*
X194393420Y-89491420D01*
X194540580Y-89271179D01*
X194613661Y-89161807D01*
X194613662Y-89161806D01*
X194690999Y-88773000D01*
X194691000Y-88773000D01*
X194691000Y-87958120D01*
X194796229Y-87914641D01*
X194975013Y-87736168D01*
X195071889Y-87502864D01*
X195072110Y-87250245D01*
X195072110Y-85218245D01*
X194975641Y-84984771D01*
X194797168Y-84805987D01*
X194563864Y-84709111D01*
X194311245Y-84708890D01*
X192787245Y-84708890D01*
X192553771Y-84805359D01*
X192374987Y-84983832D01*
X192278111Y-85217136D01*
X192277890Y-85469755D01*
X192277890Y-87501755D01*
X192374359Y-87735229D01*
X192552832Y-87914013D01*
X192659000Y-87958097D01*
X192659000Y-88352159D01*
X191866684Y-89144474D01*
X191434762Y-88855874D01*
X190890433Y-88747600D01*
X190109567Y-88747600D01*
X189565238Y-88855874D01*
X189185000Y-89109940D01*
X189185000Y-87848066D01*
X189250832Y-87914013D01*
X189484136Y-88010889D01*
X189736755Y-88011110D01*
X191260755Y-88011110D01*
X191494229Y-87914641D01*
X191673013Y-87736168D01*
X191769889Y-87502864D01*
X191770110Y-87250245D01*
X191770110Y-85218245D01*
X191673641Y-84984771D01*
X191516000Y-84826855D01*
X191516000Y-84082907D01*
X191673013Y-83926168D01*
X191769889Y-83692864D01*
X191770110Y-83440245D01*
X191770110Y-81408245D01*
X191673641Y-81174771D01*
X191516000Y-81016855D01*
X191516000Y-80526907D01*
X191673013Y-80370168D01*
X191769889Y-80136864D01*
X191770110Y-79884245D01*
X191770110Y-77852245D01*
X191673641Y-77618771D01*
X191495168Y-77439987D01*
X191261864Y-77343111D01*
X191009245Y-77342890D01*
X189485245Y-77342890D01*
X189251771Y-77439359D01*
X189185000Y-77506013D01*
X189185000Y-75685000D01*
X193705238Y-75685000D01*
X193705238Y-77342890D01*
X192787245Y-77342890D01*
X192553771Y-77439359D01*
X192374987Y-77617832D01*
X192278111Y-77851136D01*
X192277890Y-78103755D01*
X192277890Y-80135755D01*
X192374359Y-80369229D01*
X192552832Y-80548013D01*
X192786136Y-80644889D01*
X193038755Y-80645110D01*
X194562755Y-80645110D01*
X194796229Y-80548641D01*
X194975013Y-80370168D01*
X195071832Y-80137000D01*
X198628000Y-80137000D01*
X199065407Y-80049994D01*
X199436223Y-79802223D01*
X199802918Y-79435527D01*
X200108458Y-79309282D01*
X200466026Y-78952337D01*
X200659779Y-78485727D01*
X200660220Y-77980490D01*
X200467282Y-77513542D01*
X200110337Y-77155974D01*
X199643727Y-76962221D01*
X199486762Y-76962083D01*
X199486762Y-75685000D01*
X227815000Y-75685000D01*
X227815000Y-89200914D01*
X227741641Y-89023371D01*
X227563168Y-88844587D01*
X227330110Y-88747813D01*
X227330110Y-87504245D01*
X227330110Y-85723755D01*
X227329889Y-85471136D01*
X227233013Y-85237832D01*
X227054229Y-85059359D01*
X226820755Y-84962890D01*
X226218750Y-84963000D01*
X226060000Y-85121750D01*
X226060000Y-86487000D01*
X227171250Y-86487000D01*
X227330000Y-86328250D01*
X227330110Y-85723755D01*
X227330110Y-87504245D01*
X227330000Y-86899750D01*
X227171250Y-86741000D01*
X226060000Y-86741000D01*
X226060000Y-88106250D01*
X226218750Y-88265000D01*
X226820755Y-88265110D01*
X227054229Y-88168641D01*
X227233013Y-87990168D01*
X227329889Y-87756864D01*
X227330110Y-87504245D01*
X227330110Y-88747813D01*
X227329864Y-88747711D01*
X227077245Y-88747490D01*
X226345750Y-88747600D01*
X226187000Y-88906350D01*
X226187000Y-90043000D01*
X226207000Y-90043000D01*
X226207000Y-90297000D01*
X226187000Y-90297000D01*
X226187000Y-90317000D01*
X225933000Y-90317000D01*
X225933000Y-90297000D01*
X225933000Y-90043000D01*
X225933000Y-88906350D01*
X225806000Y-88779350D01*
X225806000Y-88106250D01*
X225806000Y-86741000D01*
X225806000Y-86487000D01*
X225806000Y-85121750D01*
X225647250Y-84963000D01*
X225045245Y-84962890D01*
X224811771Y-85059359D01*
X224632987Y-85237832D01*
X224536111Y-85471136D01*
X224535890Y-85723755D01*
X224536000Y-86328250D01*
X224694750Y-86487000D01*
X225806000Y-86487000D01*
X225806000Y-86741000D01*
X224694750Y-86741000D01*
X224536000Y-86899750D01*
X224535890Y-87504245D01*
X224536111Y-87756864D01*
X224632987Y-87990168D01*
X224811771Y-88168641D01*
X225045245Y-88265110D01*
X225647250Y-88265000D01*
X225806000Y-88106250D01*
X225806000Y-88779350D01*
X225774250Y-88747600D01*
X225042755Y-88747490D01*
X224790136Y-88747711D01*
X224556832Y-88844587D01*
X224378359Y-89023371D01*
X224281890Y-89256845D01*
X224282000Y-89884250D01*
X224440750Y-90043000D01*
X225933000Y-90043000D01*
X225933000Y-90297000D01*
X224440750Y-90297000D01*
X224282000Y-90455750D01*
X224281890Y-91083155D01*
X224378359Y-91316629D01*
X224556832Y-91495413D01*
X224790136Y-91592289D01*
X224831227Y-91592324D01*
X224774094Y-91630500D01*
X223967144Y-91630500D01*
X221297500Y-88960856D01*
X221297500Y-87909703D01*
X221330359Y-87989229D01*
X221508832Y-88168013D01*
X221742136Y-88264889D01*
X221994755Y-88265110D01*
X223518755Y-88265110D01*
X223752229Y-88168641D01*
X223931013Y-87990168D01*
X224027889Y-87756864D01*
X224028110Y-87504245D01*
X224028110Y-85472245D01*
X223931641Y-85238771D01*
X223837500Y-85144465D01*
X223837500Y-84573748D01*
X224337138Y-84074110D01*
X225169755Y-84074110D01*
X225403229Y-83977641D01*
X225582013Y-83799168D01*
X225678889Y-83565864D01*
X225679110Y-83313245D01*
X225679110Y-81789245D01*
X225582641Y-81555771D01*
X225404168Y-81376987D01*
X225170864Y-81280111D01*
X224918245Y-81279890D01*
X223268754Y-81279890D01*
X223776534Y-80772110D01*
X225169755Y-80772110D01*
X225403229Y-80675641D01*
X225582013Y-80497168D01*
X225678889Y-80263864D01*
X225679110Y-80011245D01*
X225679110Y-78487245D01*
X225582641Y-78253771D01*
X225404168Y-78074987D01*
X225170864Y-77978111D01*
X224918245Y-77977890D01*
X222886245Y-77977890D01*
X222652771Y-78074359D01*
X222473987Y-78252832D01*
X222377111Y-78486136D01*
X222376890Y-78738755D01*
X222376890Y-79118466D01*
X219454678Y-82040678D01*
X219220672Y-82390893D01*
X219138500Y-82804000D01*
X219138500Y-85352251D01*
X216090500Y-82304251D01*
X216090500Y-81105836D01*
X216154000Y-81010801D01*
X216418211Y-81406222D01*
X216879671Y-81714559D01*
X217424000Y-81822833D01*
X217968329Y-81714559D01*
X218429789Y-81406222D01*
X218738126Y-80944762D01*
X218846400Y-80400433D01*
X218846400Y-79619567D01*
X218738126Y-79075238D01*
X218429789Y-78613778D01*
X217968329Y-78305441D01*
X217424000Y-78197167D01*
X216879671Y-78305441D01*
X216418211Y-78613778D01*
X216154000Y-79009198D01*
X215889789Y-78613778D01*
X215428329Y-78305441D01*
X214884000Y-78197167D01*
X214339671Y-78305441D01*
X213878211Y-78613778D01*
X213614000Y-79009198D01*
X213349789Y-78613778D01*
X212888329Y-78305441D01*
X212344000Y-78197167D01*
X211799671Y-78305441D01*
X211338211Y-78613778D01*
X211074000Y-79009198D01*
X210809789Y-78613778D01*
X210348329Y-78305441D01*
X209804000Y-78197167D01*
X209259671Y-78305441D01*
X208798211Y-78613778D01*
X208534246Y-79008829D01*
X208529525Y-78992738D01*
X208179986Y-78558809D01*
X207690996Y-78291673D01*
X207611060Y-78274990D01*
X207391000Y-78397149D01*
X207391000Y-79883000D01*
X207411000Y-79883000D01*
X207411000Y-80137000D01*
X207391000Y-80137000D01*
X207391000Y-81622851D01*
X207611060Y-81745010D01*
X207690996Y-81728327D01*
X208179986Y-81461191D01*
X208529525Y-81027262D01*
X208534246Y-81011170D01*
X208798211Y-81406222D01*
X209259671Y-81714559D01*
X209804000Y-81822833D01*
X210348329Y-81714559D01*
X210809789Y-81406222D01*
X211074000Y-81010801D01*
X211338211Y-81406222D01*
X211799671Y-81714559D01*
X212344000Y-81822833D01*
X212888329Y-81714559D01*
X213349789Y-81406222D01*
X213614000Y-81010801D01*
X213677500Y-81105836D01*
X213677500Y-82804000D01*
X213769339Y-83265708D01*
X214030876Y-83657124D01*
X217297000Y-86923248D01*
X217297000Y-89165375D01*
X217296222Y-89164211D01*
X216834762Y-88855874D01*
X216290433Y-88747600D01*
X215509567Y-88747600D01*
X214965238Y-88855874D01*
X214503778Y-89164211D01*
X214195441Y-89625671D01*
X214087167Y-90170000D01*
X214195441Y-90714329D01*
X214503778Y-91175789D01*
X214899198Y-91439999D01*
X214503778Y-91704211D01*
X214195441Y-92165671D01*
X214087167Y-92710000D01*
X214195441Y-93254329D01*
X214503778Y-93715789D01*
X214899198Y-93979999D01*
X214503778Y-94244211D01*
X214195441Y-94705671D01*
X214087167Y-95250000D01*
X214195441Y-95794329D01*
X214503778Y-96255789D01*
X214899198Y-96519999D01*
X214503778Y-96784211D01*
X214195441Y-97245671D01*
X214087167Y-97790000D01*
X214195441Y-98334329D01*
X214503778Y-98795789D01*
X214899198Y-99059999D01*
X214503778Y-99324211D01*
X214195441Y-99785671D01*
X214087167Y-100330000D01*
X214195441Y-100874329D01*
X214503778Y-101335789D01*
X214899198Y-101599999D01*
X214503778Y-101864211D01*
X214195441Y-102325671D01*
X214087167Y-102870000D01*
X214195441Y-103414329D01*
X214503778Y-103875789D01*
X214899198Y-104139999D01*
X214503778Y-104404211D01*
X214195441Y-104865671D01*
X214087167Y-105410000D01*
X214195441Y-105954329D01*
X214503778Y-106415789D01*
X214899198Y-106679999D01*
X214503778Y-106944211D01*
X214195441Y-107405671D01*
X214087167Y-107950000D01*
X214195441Y-108494329D01*
X214503778Y-108955789D01*
X214898829Y-109219753D01*
X214882738Y-109224475D01*
X214448809Y-109574014D01*
X214181673Y-110063004D01*
X214164990Y-110142940D01*
X214287149Y-110363000D01*
X215773000Y-110363000D01*
X215773000Y-110343000D01*
X216027000Y-110343000D01*
X216027000Y-110363000D01*
X217512851Y-110363000D01*
X217635010Y-110142940D01*
X217618327Y-110063004D01*
X217351191Y-109574014D01*
X216917262Y-109224475D01*
X216901170Y-109219753D01*
X217296222Y-108955789D01*
X217604559Y-108494329D01*
X217712833Y-107950000D01*
X217604559Y-107405671D01*
X217296222Y-106944211D01*
X216900801Y-106679999D01*
X217296222Y-106415789D01*
X217604559Y-105954329D01*
X217712833Y-105410000D01*
X217604559Y-104865671D01*
X217296222Y-104404211D01*
X216900801Y-104139999D01*
X217296222Y-103875789D01*
X217604559Y-103414329D01*
X217712833Y-102870000D01*
X217604559Y-102325671D01*
X217296222Y-101864211D01*
X216900801Y-101599999D01*
X217296222Y-101335789D01*
X217604559Y-100874329D01*
X217712833Y-100330000D01*
X217604559Y-99785671D01*
X217296222Y-99324211D01*
X216900801Y-99059999D01*
X217296222Y-98795789D01*
X217604559Y-98334329D01*
X217712833Y-97790000D01*
X217604559Y-97245671D01*
X217296222Y-96784211D01*
X216900801Y-96519999D01*
X217296222Y-96255789D01*
X217604559Y-95794329D01*
X217712833Y-95250000D01*
X217604559Y-94705671D01*
X217296222Y-94244211D01*
X216900801Y-93979999D01*
X217164995Y-93803471D01*
X217353407Y-93765994D01*
X217724223Y-93518223D01*
X219248223Y-91994223D01*
X219495994Y-91623407D01*
X219583000Y-91186000D01*
X219583000Y-90299644D01*
X222756678Y-93473322D01*
X223106893Y-93707328D01*
X223520000Y-93789500D01*
X224774094Y-93789500D01*
X225059198Y-93979999D01*
X224663778Y-94244211D01*
X224355441Y-94705671D01*
X224247167Y-95250000D01*
X224355441Y-95794329D01*
X224663778Y-96255789D01*
X225059198Y-96519999D01*
X224663778Y-96784211D01*
X224355441Y-97245671D01*
X224247167Y-97790000D01*
X224355441Y-98334329D01*
X224663778Y-98795789D01*
X225059198Y-99059999D01*
X224663778Y-99324211D01*
X224355441Y-99785671D01*
X224247167Y-100330000D01*
X224355441Y-100874329D01*
X224663778Y-101335789D01*
X225059198Y-101599999D01*
X224663778Y-101864211D01*
X224355441Y-102325671D01*
X224247167Y-102870000D01*
X224355441Y-103414329D01*
X224663778Y-103875789D01*
X225059198Y-104139999D01*
X224663778Y-104404211D01*
X224355441Y-104865671D01*
X224247167Y-105410000D01*
X224355441Y-105954329D01*
X224663778Y-106415789D01*
X225059198Y-106679999D01*
X224663778Y-106944211D01*
X224355441Y-107405671D01*
X224247167Y-107950000D01*
X224355441Y-108494329D01*
X224663778Y-108955789D01*
X225059198Y-109219999D01*
X224663778Y-109484211D01*
X224355441Y-109945671D01*
X224247167Y-110490000D01*
X224355441Y-111034329D01*
X224663778Y-111495789D01*
X225059198Y-111759999D01*
X224663778Y-112024211D01*
X224355441Y-112485671D01*
X224247167Y-113030000D01*
X224355441Y-113574329D01*
X224663778Y-114035789D01*
X224830950Y-114147490D01*
X224791245Y-114147490D01*
X224557771Y-114243959D01*
X224378987Y-114422432D01*
X224282111Y-114655736D01*
X224281890Y-114908355D01*
X224281890Y-116483155D01*
X224378359Y-116716629D01*
X224556832Y-116895413D01*
X224790136Y-116992289D01*
X224831227Y-116992324D01*
X224663778Y-117104211D01*
X224355441Y-117565671D01*
X224247167Y-118110000D01*
X224355441Y-118654329D01*
X224663778Y-119115789D01*
X225059198Y-119379999D01*
X224663778Y-119644211D01*
X224355441Y-120105671D01*
X224247167Y-120650000D01*
X224355441Y-121194329D01*
X224663778Y-121655789D01*
X225059198Y-121919999D01*
X224663778Y-122184211D01*
X224355441Y-122645671D01*
X224247167Y-123190000D01*
X224355441Y-123734329D01*
X224663778Y-124195789D01*
X225059198Y-124459999D01*
X224663778Y-124724211D01*
X224355441Y-125185671D01*
X224247167Y-125730000D01*
X224355441Y-126274329D01*
X224663778Y-126735789D01*
X225059198Y-126999999D01*
X224663778Y-127264211D01*
X224355441Y-127725671D01*
X224247167Y-128270000D01*
X224355441Y-128814329D01*
X224663778Y-129275789D01*
X225059198Y-129539999D01*
X224663778Y-129804211D01*
X224355441Y-130265671D01*
X224247167Y-130810000D01*
X224355441Y-131354329D01*
X224663778Y-131815789D01*
X225059198Y-132080000D01*
X224663778Y-132344211D01*
X224355441Y-132805671D01*
X224247167Y-133350000D01*
X224355441Y-133894329D01*
X224663778Y-134355789D01*
X225059198Y-134620000D01*
X224663778Y-134884211D01*
X224355441Y-135345671D01*
X224247167Y-135890000D01*
X224355441Y-136434329D01*
X224663778Y-136895789D01*
X225059198Y-137160000D01*
X224663778Y-137424211D01*
X224355441Y-137885671D01*
X224247167Y-138430000D01*
X224355441Y-138974329D01*
X224663778Y-139435789D01*
X225125238Y-139744126D01*
X225669567Y-139852400D01*
X226450433Y-139852400D01*
X226994762Y-139744126D01*
X227456222Y-139435789D01*
X227764559Y-138974329D01*
X227815000Y-138720745D01*
X227815000Y-149315000D01*
X227815000Y-149315000D01*
G37*
X227815000Y-149315000D02*
X227393730Y-149315000D01*
X227393730Y-143245914D01*
X227191145Y-142755620D01*
X226816353Y-142380174D01*
X226326413Y-142176733D01*
X225795914Y-142176270D01*
X225305620Y-142378855D01*
X224930174Y-142753647D01*
X224726733Y-143243587D01*
X224726270Y-143774086D01*
X224928855Y-144264380D01*
X225303647Y-144639826D01*
X225488033Y-144716390D01*
X225235745Y-144716390D01*
X225002271Y-144812859D01*
X224823487Y-144991332D01*
X224726611Y-145224636D01*
X224726390Y-145477255D01*
X224726390Y-146874255D01*
X224822859Y-147107729D01*
X225001332Y-147286513D01*
X225234636Y-147383389D01*
X225487255Y-147383610D01*
X226884255Y-147383610D01*
X227117729Y-147287141D01*
X227296513Y-147108668D01*
X227393389Y-146875364D01*
X227393610Y-146622745D01*
X227393610Y-145225745D01*
X227297141Y-144992271D01*
X227118668Y-144813487D01*
X226885364Y-144716611D01*
X226632745Y-144716390D01*
X226632272Y-144716390D01*
X226814380Y-144641145D01*
X227189826Y-144266353D01*
X227393267Y-143776413D01*
X227393730Y-143245914D01*
X227393730Y-149315000D01*
X189185000Y-149315000D01*
X189185000Y-139833546D01*
X189230136Y-139852289D01*
X189482755Y-139852510D01*
X191768755Y-139852510D01*
X191823040Y-139830079D01*
X191833500Y-139840538D01*
X191833500Y-142987525D01*
X191716353Y-142870174D01*
X191226413Y-142666733D01*
X190695914Y-142666270D01*
X190205620Y-142868855D01*
X189830174Y-143243647D01*
X189626733Y-143733587D01*
X189626270Y-144264086D01*
X189828855Y-144754380D01*
X190203647Y-145129826D01*
X190693587Y-145333267D01*
X191224086Y-145333730D01*
X191714380Y-145131145D01*
X191833500Y-145012232D01*
X191833500Y-146558000D01*
X191906005Y-146922506D01*
X192112481Y-147231519D01*
X193890480Y-149009519D01*
X193890481Y-149009519D01*
X194199494Y-149215995D01*
X194563999Y-149288499D01*
X194564000Y-149288500D01*
X198120000Y-149288500D01*
X198484506Y-149215995D01*
X198793519Y-149009519D01*
X199301519Y-148501520D01*
X199301519Y-148501519D01*
X199301521Y-148501516D01*
X200292538Y-147510500D01*
X207377462Y-147510500D01*
X207771932Y-147904970D01*
X207771780Y-148079510D01*
X207964718Y-148546458D01*
X208321663Y-148904026D01*
X208788273Y-149097779D01*
X209293510Y-149098220D01*
X209760458Y-148905282D01*
X210118026Y-148548337D01*
X210232563Y-148272500D01*
X218440000Y-148272500D01*
X218804506Y-148199995D01*
X219113519Y-147993519D01*
X222669519Y-144437520D01*
X222669519Y-144437519D01*
X222875995Y-144128506D01*
X222948499Y-143764000D01*
X222948500Y-143764000D01*
X222948500Y-130556000D01*
X222875995Y-130191494D01*
X222669519Y-129882481D01*
X222669519Y-129882480D01*
X222161519Y-129374481D01*
X220891521Y-128104483D01*
X220891519Y-128104481D01*
X220891519Y-128104480D01*
X217843519Y-125056481D01*
X217534506Y-124850005D01*
X217356633Y-124814623D01*
X217296222Y-124724211D01*
X216900801Y-124459999D01*
X217296222Y-124195789D01*
X217604559Y-123734329D01*
X217712833Y-123190000D01*
X217604559Y-122645671D01*
X217296222Y-122184211D01*
X216900801Y-121919999D01*
X217296222Y-121655789D01*
X217604559Y-121194329D01*
X217712833Y-120650000D01*
X217604559Y-120105671D01*
X217296222Y-119644211D01*
X216900801Y-119379999D01*
X217296222Y-119115789D01*
X217604559Y-118654329D01*
X217712833Y-118110000D01*
X217604559Y-117565671D01*
X217296222Y-117104211D01*
X216900801Y-116839999D01*
X217296222Y-116575789D01*
X217604559Y-116114329D01*
X217712833Y-115570000D01*
X217604559Y-115025671D01*
X217296222Y-114564211D01*
X216900801Y-114299999D01*
X217296222Y-114035789D01*
X217604559Y-113574329D01*
X217712833Y-113030000D01*
X217604559Y-112485671D01*
X217296222Y-112024211D01*
X216901170Y-111760246D01*
X216917262Y-111755525D01*
X217351191Y-111405986D01*
X217618327Y-110916996D01*
X217635010Y-110837060D01*
X217512851Y-110617000D01*
X216027000Y-110617000D01*
X216027000Y-110637000D01*
X215773000Y-110637000D01*
X215773000Y-110617000D01*
X214287149Y-110617000D01*
X214164990Y-110837060D01*
X214181673Y-110916996D01*
X214239747Y-111023301D01*
X212644223Y-109427777D01*
X212273407Y-109180006D01*
X211836000Y-109093000D01*
X210820110Y-109093000D01*
X210820110Y-107570245D01*
X210820110Y-105789755D01*
X210820110Y-104014245D01*
X210820110Y-102233755D01*
X210820110Y-97918245D01*
X210820110Y-96137755D01*
X210819889Y-95885136D01*
X210723013Y-95651832D01*
X210544229Y-95473359D01*
X210310755Y-95376890D01*
X209708750Y-95377000D01*
X209550000Y-95535750D01*
X209550000Y-96901000D01*
X210661250Y-96901000D01*
X210820000Y-96742250D01*
X210820110Y-96137755D01*
X210820110Y-97918245D01*
X210820000Y-97313750D01*
X210661250Y-97155000D01*
X209550000Y-97155000D01*
X209550000Y-98520250D01*
X209708750Y-98679000D01*
X210310755Y-98679110D01*
X210544229Y-98582641D01*
X210723013Y-98404168D01*
X210819889Y-98170864D01*
X210820110Y-97918245D01*
X210820110Y-102233755D01*
X210819889Y-101981136D01*
X210723013Y-101747832D01*
X210544229Y-101569359D01*
X210310755Y-101472890D01*
X209708750Y-101473000D01*
X209550000Y-101631750D01*
X209550000Y-102997000D01*
X210661250Y-102997000D01*
X210820000Y-102838250D01*
X210820110Y-102233755D01*
X210820110Y-104014245D01*
X210820000Y-103409750D01*
X210661250Y-103251000D01*
X209550000Y-103251000D01*
X209550000Y-104616250D01*
X209708750Y-104775000D01*
X210310755Y-104775110D01*
X210544229Y-104678641D01*
X210723013Y-104500168D01*
X210819889Y-104266864D01*
X210820110Y-104014245D01*
X210820110Y-105789755D01*
X210819889Y-105537136D01*
X210723013Y-105303832D01*
X210544229Y-105125359D01*
X210310755Y-105028890D01*
X209708750Y-105029000D01*
X209550000Y-105187750D01*
X209550000Y-106553000D01*
X210661250Y-106553000D01*
X210820000Y-106394250D01*
X210820110Y-105789755D01*
X210820110Y-107570245D01*
X210820000Y-106965750D01*
X210661250Y-106807000D01*
X209550000Y-106807000D01*
X209550000Y-108172250D01*
X209708750Y-108331000D01*
X210310755Y-108331110D01*
X210544229Y-108234641D01*
X210723013Y-108056168D01*
X210819889Y-107822864D01*
X210820110Y-107570245D01*
X210820110Y-109093000D01*
X209296000Y-109093000D01*
X209296000Y-108172250D01*
X209296000Y-106807000D01*
X209296000Y-106553000D01*
X209296000Y-105187750D01*
X209296000Y-104616250D01*
X209296000Y-103251000D01*
X209296000Y-102997000D01*
X209296000Y-101631750D01*
X209296000Y-98520250D01*
X209296000Y-97155000D01*
X209296000Y-96901000D01*
X209296000Y-95535750D01*
X209137250Y-95377000D01*
X208535245Y-95376890D01*
X208301771Y-95473359D01*
X208122987Y-95651832D01*
X208026111Y-95885136D01*
X208025890Y-96137755D01*
X208026000Y-96742250D01*
X208184750Y-96901000D01*
X209296000Y-96901000D01*
X209296000Y-97155000D01*
X208184750Y-97155000D01*
X208026000Y-97313750D01*
X208025890Y-97918245D01*
X208026111Y-98170864D01*
X208122987Y-98404168D01*
X208301771Y-98582641D01*
X208535245Y-98679110D01*
X209137250Y-98679000D01*
X209296000Y-98520250D01*
X209296000Y-101631750D01*
X209137250Y-101473000D01*
X208535245Y-101472890D01*
X208301771Y-101569359D01*
X208122987Y-101747832D01*
X208026111Y-101981136D01*
X208025890Y-102233755D01*
X208026000Y-102838250D01*
X208184750Y-102997000D01*
X209296000Y-102997000D01*
X209296000Y-103251000D01*
X208184750Y-103251000D01*
X208026000Y-103409750D01*
X208025890Y-104014245D01*
X208026111Y-104266864D01*
X208122987Y-104500168D01*
X208301771Y-104678641D01*
X208535245Y-104775110D01*
X209137250Y-104775000D01*
X209296000Y-104616250D01*
X209296000Y-105187750D01*
X209137250Y-105029000D01*
X208535245Y-105028890D01*
X208301771Y-105125359D01*
X208122987Y-105303832D01*
X208026111Y-105537136D01*
X208025890Y-105789755D01*
X208026000Y-106394250D01*
X208184750Y-106553000D01*
X209296000Y-106553000D01*
X209296000Y-106807000D01*
X208184750Y-106807000D01*
X208026000Y-106965750D01*
X208025890Y-107570245D01*
X208026111Y-107822864D01*
X208122987Y-108056168D01*
X208301771Y-108234641D01*
X208535245Y-108331110D01*
X209137250Y-108331000D01*
X209296000Y-108172250D01*
X209296000Y-109093000D01*
X208245446Y-109093000D01*
X207327500Y-108175054D01*
X207327500Y-108149518D01*
X207421013Y-108056168D01*
X207517889Y-107822864D01*
X207518110Y-107570245D01*
X207518110Y-105538245D01*
X207421641Y-105304771D01*
X207264000Y-105146855D01*
X207264000Y-104656907D01*
X207421013Y-104500168D01*
X207517889Y-104266864D01*
X207518110Y-104014245D01*
X207518110Y-101982245D01*
X207421641Y-101748771D01*
X207243168Y-101569987D01*
X207009864Y-101473111D01*
X206757245Y-101472890D01*
X205233245Y-101472890D01*
X204999771Y-101569359D01*
X204820987Y-101747832D01*
X204724111Y-101981136D01*
X204723890Y-102233755D01*
X204723890Y-104265755D01*
X204820359Y-104499229D01*
X204978000Y-104657144D01*
X204978000Y-105147092D01*
X204820987Y-105303832D01*
X204724111Y-105537136D01*
X204723890Y-105789755D01*
X204723890Y-107821755D01*
X204820359Y-108055229D01*
X204914500Y-108149534D01*
X204914500Y-113665000D01*
X205006339Y-114126708D01*
X205060786Y-114208194D01*
X205065006Y-114229407D01*
X205312777Y-114600223D01*
X205422500Y-114673537D01*
X205422500Y-116979630D01*
X205359000Y-116967000D01*
X201850870Y-116967000D01*
X201661170Y-116840246D01*
X201677262Y-116835525D01*
X202111191Y-116485986D01*
X202378327Y-115996996D01*
X202395010Y-115917060D01*
X202272851Y-115697000D01*
X200787000Y-115697000D01*
X200787000Y-115717000D01*
X200533000Y-115717000D01*
X200533000Y-115697000D01*
X199047149Y-115697000D01*
X198924990Y-115917060D01*
X198941673Y-115996996D01*
X199208809Y-116485986D01*
X199642738Y-116835525D01*
X199658829Y-116840246D01*
X199263778Y-117104211D01*
X198955441Y-117565671D01*
X198920715Y-117740245D01*
X197192481Y-119468481D01*
X196986005Y-119777494D01*
X196913500Y-120142000D01*
X196913500Y-123444000D01*
X196913500Y-133522352D01*
X196789974Y-133645663D01*
X196596221Y-134112273D01*
X196596066Y-134289028D01*
X194729519Y-132422481D01*
X193878883Y-131571845D01*
X194307510Y-131572220D01*
X194774458Y-131379282D01*
X195132026Y-131022337D01*
X195325779Y-130555727D01*
X195326220Y-130050490D01*
X195262500Y-129896275D01*
X195262500Y-119888000D01*
X195262499Y-119887999D01*
X195189995Y-119523494D01*
X194983519Y-119214481D01*
X194983519Y-119214480D01*
X194648742Y-118879703D01*
X198420223Y-115108224D01*
X198420223Y-115108223D01*
X198585777Y-114860453D01*
X198667993Y-114737408D01*
X198667994Y-114737407D01*
X198754999Y-114300000D01*
X198755000Y-114300000D01*
X198755000Y-91913446D01*
X199168279Y-91500166D01*
X199390136Y-91592289D01*
X199431227Y-91592324D01*
X199263778Y-91704211D01*
X198955441Y-92165671D01*
X198847167Y-92710000D01*
X198955441Y-93254329D01*
X199263778Y-93715789D01*
X199659198Y-93979999D01*
X199263778Y-94244211D01*
X198955441Y-94705671D01*
X198847167Y-95250000D01*
X198955441Y-95794329D01*
X199263778Y-96255789D01*
X199659198Y-96519999D01*
X199263778Y-96784211D01*
X198955441Y-97245671D01*
X198847167Y-97790000D01*
X198955441Y-98334329D01*
X199263778Y-98795789D01*
X199659198Y-99059999D01*
X199263778Y-99324211D01*
X198955441Y-99785671D01*
X198847167Y-100330000D01*
X198955441Y-100874329D01*
X199263778Y-101335789D01*
X199659198Y-101599999D01*
X199263778Y-101864211D01*
X198955441Y-102325671D01*
X198847167Y-102870000D01*
X198955441Y-103414329D01*
X199263778Y-103875789D01*
X199659198Y-104139999D01*
X199263778Y-104404211D01*
X198955441Y-104865671D01*
X198847167Y-105410000D01*
X198955441Y-105954329D01*
X199263778Y-106415789D01*
X199659198Y-106679999D01*
X199263778Y-106944211D01*
X198955441Y-107405671D01*
X198847167Y-107950000D01*
X198955441Y-108494329D01*
X199263778Y-108955789D01*
X199659198Y-109219999D01*
X199263778Y-109484211D01*
X198955441Y-109945671D01*
X198847167Y-110490000D01*
X198955441Y-111034329D01*
X199263778Y-111495789D01*
X199659198Y-111759999D01*
X199263778Y-112024211D01*
X198955441Y-112485671D01*
X198847167Y-113030000D01*
X198955441Y-113574329D01*
X199263778Y-114035789D01*
X199658829Y-114299753D01*
X199642738Y-114304475D01*
X199208809Y-114654014D01*
X198941673Y-115143004D01*
X198924990Y-115222940D01*
X199047149Y-115443000D01*
X200533000Y-115443000D01*
X200533000Y-115423000D01*
X200787000Y-115423000D01*
X200787000Y-115443000D01*
X202272851Y-115443000D01*
X202395010Y-115222940D01*
X202378327Y-115143004D01*
X202111191Y-114654014D01*
X201677262Y-114304475D01*
X201661170Y-114299753D01*
X202056222Y-114035789D01*
X202364559Y-113574329D01*
X202472833Y-113030000D01*
X202364559Y-112485671D01*
X202056222Y-112024211D01*
X201660801Y-111759999D01*
X202056222Y-111495789D01*
X202364559Y-111034329D01*
X202472833Y-110490000D01*
X202364559Y-109945671D01*
X202056222Y-109484211D01*
X201660801Y-109219999D01*
X202056222Y-108955789D01*
X202364559Y-108494329D01*
X202472833Y-107950000D01*
X202364559Y-107405671D01*
X202056222Y-106944211D01*
X201660801Y-106679999D01*
X202056222Y-106415789D01*
X202364559Y-105954329D01*
X202472833Y-105410000D01*
X202364559Y-104865671D01*
X202056222Y-104404211D01*
X201660801Y-104139999D01*
X202056222Y-103875789D01*
X202364559Y-103414329D01*
X202472833Y-102870000D01*
X202364559Y-102325671D01*
X202056222Y-101864211D01*
X201660801Y-101599999D01*
X202056222Y-101335789D01*
X202364559Y-100874329D01*
X202472833Y-100330000D01*
X202364559Y-99785671D01*
X202056222Y-99324211D01*
X201660801Y-99059999D01*
X202056222Y-98795789D01*
X202364559Y-98334329D01*
X202472833Y-97790000D01*
X202364559Y-97245671D01*
X202056222Y-96784211D01*
X201660801Y-96519999D01*
X202056222Y-96255789D01*
X202364559Y-95794329D01*
X202472833Y-95250000D01*
X202364559Y-94705671D01*
X202056222Y-94244211D01*
X201660801Y-93979999D01*
X202056222Y-93715789D01*
X202364559Y-93254329D01*
X202472833Y-92710000D01*
X202364559Y-92165671D01*
X202056222Y-91704211D01*
X201889049Y-91592510D01*
X201928755Y-91592510D01*
X202162229Y-91496041D01*
X202341013Y-91317568D01*
X202342909Y-91313000D01*
X202472554Y-91313000D01*
X204978000Y-93818446D01*
X204978000Y-95495092D01*
X204820987Y-95651832D01*
X204724111Y-95885136D01*
X204723890Y-96137755D01*
X204723890Y-98169755D01*
X204820359Y-98403229D01*
X204998832Y-98582013D01*
X205232136Y-98678889D01*
X205484755Y-98679110D01*
X207008755Y-98679110D01*
X207242229Y-98582641D01*
X207421013Y-98404168D01*
X207517889Y-98170864D01*
X207518110Y-97918245D01*
X207518110Y-95886245D01*
X207421641Y-95652771D01*
X207264000Y-95494855D01*
X207264000Y-93345000D01*
X207176994Y-92907593D01*
X206929223Y-92536777D01*
X203754223Y-89361777D01*
X203383407Y-89114006D01*
X202946000Y-89027000D01*
X202343140Y-89027000D01*
X202341641Y-89023371D01*
X202163168Y-88844587D01*
X201929864Y-88747711D01*
X201739500Y-88747544D01*
X201739500Y-82997143D01*
X203347217Y-81389425D01*
X203397959Y-81512229D01*
X203576432Y-81691013D01*
X203809736Y-81787889D01*
X204062355Y-81788110D01*
X205637155Y-81788110D01*
X205870629Y-81691641D01*
X206049413Y-81513168D01*
X206146289Y-81279864D01*
X206146349Y-81210838D01*
X206348014Y-81461191D01*
X206837004Y-81728327D01*
X206916940Y-81745010D01*
X207137000Y-81622851D01*
X207137000Y-80137000D01*
X207117000Y-80137000D01*
X207117000Y-79883000D01*
X207137000Y-79883000D01*
X207137000Y-78397149D01*
X206916940Y-78274990D01*
X206837004Y-78291673D01*
X206348014Y-78558809D01*
X206146510Y-78808962D01*
X206146510Y-78741245D01*
X206050041Y-78507771D01*
X205871568Y-78328987D01*
X205638264Y-78232111D01*
X205385645Y-78231890D01*
X203810845Y-78231890D01*
X203577371Y-78328359D01*
X203398587Y-78506832D01*
X203301711Y-78740136D01*
X203301544Y-78930500D01*
X203200000Y-78930500D01*
X202786893Y-79012672D01*
X202436678Y-79246678D01*
X202436675Y-79246681D01*
X199896678Y-81786678D01*
X199662672Y-82136893D01*
X199580500Y-82550000D01*
X199580500Y-88747490D01*
X199391245Y-88747490D01*
X199157771Y-88843959D01*
X198978987Y-89022432D01*
X198977090Y-89027000D01*
X198882000Y-89027000D01*
X198444593Y-89114006D01*
X198073777Y-89361777D01*
X197612000Y-89823554D01*
X197612000Y-83820000D01*
X197534662Y-83431194D01*
X197534661Y-83431193D01*
X197461580Y-83321821D01*
X197314420Y-83101580D01*
X197314420Y-83101579D01*
X196044420Y-81831580D01*
X195714807Y-81611338D01*
X195650299Y-81598507D01*
X195326000Y-81534000D01*
X195072110Y-81534000D01*
X195072110Y-81408245D01*
X194975641Y-81174771D01*
X194797168Y-80995987D01*
X194563864Y-80899111D01*
X194311245Y-80898890D01*
X192787245Y-80898890D01*
X192553771Y-80995359D01*
X192374987Y-81173832D01*
X192278111Y-81407136D01*
X192277890Y-81659755D01*
X192277890Y-83691755D01*
X192374359Y-83925229D01*
X192552832Y-84104013D01*
X192786136Y-84200889D01*
X193038755Y-84201110D01*
X194562755Y-84201110D01*
X194796229Y-84104641D01*
X194975013Y-83926168D01*
X195060192Y-83721032D01*
X195580000Y-84240840D01*
X195580000Y-89495159D01*
X193381159Y-91694000D01*
X191880940Y-91694000D01*
X191500801Y-91439999D01*
X191880940Y-91186000D01*
X192278000Y-91186000D01*
X192278000Y-91185999D01*
X192602299Y-91121492D01*
X192666806Y-91108662D01*
X192666807Y-91108662D01*
X192996420Y-90888420D01*
X194393420Y-89491421D01*
X194393420Y-89491420D01*
X194540580Y-89271179D01*
X194613661Y-89161807D01*
X194613662Y-89161806D01*
X194690999Y-88773000D01*
X194691000Y-88773000D01*
X194691000Y-87958120D01*
X194796229Y-87914641D01*
X194975013Y-87736168D01*
X195071889Y-87502864D01*
X195072110Y-87250245D01*
X195072110Y-85218245D01*
X194975641Y-84984771D01*
X194797168Y-84805987D01*
X194563864Y-84709111D01*
X194311245Y-84708890D01*
X192787245Y-84708890D01*
X192553771Y-84805359D01*
X192374987Y-84983832D01*
X192278111Y-85217136D01*
X192277890Y-85469755D01*
X192277890Y-87501755D01*
X192374359Y-87735229D01*
X192552832Y-87914013D01*
X192659000Y-87958097D01*
X192659000Y-88352159D01*
X191866684Y-89144474D01*
X191434762Y-88855874D01*
X190890433Y-88747600D01*
X190109567Y-88747600D01*
X189565238Y-88855874D01*
X189185000Y-89109940D01*
X189185000Y-87848066D01*
X189250832Y-87914013D01*
X189484136Y-88010889D01*
X189736755Y-88011110D01*
X191260755Y-88011110D01*
X191494229Y-87914641D01*
X191673013Y-87736168D01*
X191769889Y-87502864D01*
X191770110Y-87250245D01*
X191770110Y-85218245D01*
X191673641Y-84984771D01*
X191516000Y-84826855D01*
X191516000Y-84082907D01*
X191673013Y-83926168D01*
X191769889Y-83692864D01*
X191770110Y-83440245D01*
X191770110Y-81408245D01*
X191673641Y-81174771D01*
X191516000Y-81016855D01*
X191516000Y-80526907D01*
X191673013Y-80370168D01*
X191769889Y-80136864D01*
X191770110Y-79884245D01*
X191770110Y-77852245D01*
X191673641Y-77618771D01*
X191495168Y-77439987D01*
X191261864Y-77343111D01*
X191009245Y-77342890D01*
X189485245Y-77342890D01*
X189251771Y-77439359D01*
X189185000Y-77506013D01*
X189185000Y-75685000D01*
X193705238Y-75685000D01*
X193705238Y-77342890D01*
X192787245Y-77342890D01*
X192553771Y-77439359D01*
X192374987Y-77617832D01*
X192278111Y-77851136D01*
X192277890Y-78103755D01*
X192277890Y-80135755D01*
X192374359Y-80369229D01*
X192552832Y-80548013D01*
X192786136Y-80644889D01*
X193038755Y-80645110D01*
X194562755Y-80645110D01*
X194796229Y-80548641D01*
X194975013Y-80370168D01*
X195071832Y-80137000D01*
X198628000Y-80137000D01*
X199065407Y-80049994D01*
X199436223Y-79802223D01*
X199802918Y-79435527D01*
X200108458Y-79309282D01*
X200466026Y-78952337D01*
X200659779Y-78485727D01*
X200660220Y-77980490D01*
X200467282Y-77513542D01*
X200110337Y-77155974D01*
X199643727Y-76962221D01*
X199486762Y-76962083D01*
X199486762Y-75685000D01*
X227815000Y-75685000D01*
X227815000Y-89200914D01*
X227741641Y-89023371D01*
X227563168Y-88844587D01*
X227330110Y-88747813D01*
X227330110Y-87504245D01*
X227330110Y-85723755D01*
X227329889Y-85471136D01*
X227233013Y-85237832D01*
X227054229Y-85059359D01*
X226820755Y-84962890D01*
X226218750Y-84963000D01*
X226060000Y-85121750D01*
X226060000Y-86487000D01*
X227171250Y-86487000D01*
X227330000Y-86328250D01*
X227330110Y-85723755D01*
X227330110Y-87504245D01*
X227330000Y-86899750D01*
X227171250Y-86741000D01*
X226060000Y-86741000D01*
X226060000Y-88106250D01*
X226218750Y-88265000D01*
X226820755Y-88265110D01*
X227054229Y-88168641D01*
X227233013Y-87990168D01*
X227329889Y-87756864D01*
X227330110Y-87504245D01*
X227330110Y-88747813D01*
X227329864Y-88747711D01*
X227077245Y-88747490D01*
X226345750Y-88747600D01*
X226187000Y-88906350D01*
X226187000Y-90043000D01*
X226207000Y-90043000D01*
X226207000Y-90297000D01*
X226187000Y-90297000D01*
X226187000Y-90317000D01*
X225933000Y-90317000D01*
X225933000Y-90297000D01*
X225933000Y-90043000D01*
X225933000Y-88906350D01*
X225806000Y-88779350D01*
X225806000Y-88106250D01*
X225806000Y-86741000D01*
X225806000Y-86487000D01*
X225806000Y-85121750D01*
X225647250Y-84963000D01*
X225045245Y-84962890D01*
X224811771Y-85059359D01*
X224632987Y-85237832D01*
X224536111Y-85471136D01*
X224535890Y-85723755D01*
X224536000Y-86328250D01*
X224694750Y-86487000D01*
X225806000Y-86487000D01*
X225806000Y-86741000D01*
X224694750Y-86741000D01*
X224536000Y-86899750D01*
X224535890Y-87504245D01*
X224536111Y-87756864D01*
X224632987Y-87990168D01*
X224811771Y-88168641D01*
X225045245Y-88265110D01*
X225647250Y-88265000D01*
X225806000Y-88106250D01*
X225806000Y-88779350D01*
X225774250Y-88747600D01*
X225042755Y-88747490D01*
X224790136Y-88747711D01*
X224556832Y-88844587D01*
X224378359Y-89023371D01*
X224281890Y-89256845D01*
X224282000Y-89884250D01*
X224440750Y-90043000D01*
X225933000Y-90043000D01*
X225933000Y-90297000D01*
X224440750Y-90297000D01*
X224282000Y-90455750D01*
X224281890Y-91083155D01*
X224378359Y-91316629D01*
X224556832Y-91495413D01*
X224790136Y-91592289D01*
X224831227Y-91592324D01*
X224774094Y-91630500D01*
X223967144Y-91630500D01*
X221297500Y-88960856D01*
X221297500Y-87909703D01*
X221330359Y-87989229D01*
X221508832Y-88168013D01*
X221742136Y-88264889D01*
X221994755Y-88265110D01*
X223518755Y-88265110D01*
X223752229Y-88168641D01*
X223931013Y-87990168D01*
X224027889Y-87756864D01*
X224028110Y-87504245D01*
X224028110Y-85472245D01*
X223931641Y-85238771D01*
X223837500Y-85144465D01*
X223837500Y-84573748D01*
X224337138Y-84074110D01*
X225169755Y-84074110D01*
X225403229Y-83977641D01*
X225582013Y-83799168D01*
X225678889Y-83565864D01*
X225679110Y-83313245D01*
X225679110Y-81789245D01*
X225582641Y-81555771D01*
X225404168Y-81376987D01*
X225170864Y-81280111D01*
X224918245Y-81279890D01*
X223268754Y-81279890D01*
X223776534Y-80772110D01*
X225169755Y-80772110D01*
X225403229Y-80675641D01*
X225582013Y-80497168D01*
X225678889Y-80263864D01*
X225679110Y-80011245D01*
X225679110Y-78487245D01*
X225582641Y-78253771D01*
X225404168Y-78074987D01*
X225170864Y-77978111D01*
X224918245Y-77977890D01*
X222886245Y-77977890D01*
X222652771Y-78074359D01*
X222473987Y-78252832D01*
X222377111Y-78486136D01*
X222376890Y-78738755D01*
X222376890Y-79118466D01*
X219454678Y-82040678D01*
X219220672Y-82390893D01*
X219138500Y-82804000D01*
X219138500Y-85352251D01*
X216090500Y-82304251D01*
X216090500Y-81105836D01*
X216154000Y-81010801D01*
X216418211Y-81406222D01*
X216879671Y-81714559D01*
X217424000Y-81822833D01*
X217968329Y-81714559D01*
X218429789Y-81406222D01*
X218738126Y-80944762D01*
X218846400Y-80400433D01*
X218846400Y-79619567D01*
X218738126Y-79075238D01*
X218429789Y-78613778D01*
X217968329Y-78305441D01*
X217424000Y-78197167D01*
X216879671Y-78305441D01*
X216418211Y-78613778D01*
X216154000Y-79009198D01*
X215889789Y-78613778D01*
X215428329Y-78305441D01*
X214884000Y-78197167D01*
X214339671Y-78305441D01*
X213878211Y-78613778D01*
X213614000Y-79009198D01*
X213349789Y-78613778D01*
X212888329Y-78305441D01*
X212344000Y-78197167D01*
X211799671Y-78305441D01*
X211338211Y-78613778D01*
X211074000Y-79009198D01*
X210809789Y-78613778D01*
X210348329Y-78305441D01*
X209804000Y-78197167D01*
X209259671Y-78305441D01*
X208798211Y-78613778D01*
X208534246Y-79008829D01*
X208529525Y-78992738D01*
X208179986Y-78558809D01*
X207690996Y-78291673D01*
X207611060Y-78274990D01*
X207391000Y-78397149D01*
X207391000Y-79883000D01*
X207411000Y-79883000D01*
X207411000Y-80137000D01*
X207391000Y-80137000D01*
X207391000Y-81622851D01*
X207611060Y-81745010D01*
X207690996Y-81728327D01*
X208179986Y-81461191D01*
X208529525Y-81027262D01*
X208534246Y-81011170D01*
X208798211Y-81406222D01*
X209259671Y-81714559D01*
X209804000Y-81822833D01*
X210348329Y-81714559D01*
X210809789Y-81406222D01*
X211074000Y-81010801D01*
X211338211Y-81406222D01*
X211799671Y-81714559D01*
X212344000Y-81822833D01*
X212888329Y-81714559D01*
X213349789Y-81406222D01*
X213614000Y-81010801D01*
X213677500Y-81105836D01*
X213677500Y-82804000D01*
X213769339Y-83265708D01*
X214030876Y-83657124D01*
X217297000Y-86923248D01*
X217297000Y-89165375D01*
X217296222Y-89164211D01*
X216834762Y-88855874D01*
X216290433Y-88747600D01*
X215509567Y-88747600D01*
X214965238Y-88855874D01*
X214503778Y-89164211D01*
X214195441Y-89625671D01*
X214087167Y-90170000D01*
X214195441Y-90714329D01*
X214503778Y-91175789D01*
X214899198Y-91439999D01*
X214503778Y-91704211D01*
X214195441Y-92165671D01*
X214087167Y-92710000D01*
X214195441Y-93254329D01*
X214503778Y-93715789D01*
X214899198Y-93979999D01*
X214503778Y-94244211D01*
X214195441Y-94705671D01*
X214087167Y-95250000D01*
X214195441Y-95794329D01*
X214503778Y-96255789D01*
X214899198Y-96519999D01*
X214503778Y-96784211D01*
X214195441Y-97245671D01*
X214087167Y-97790000D01*
X214195441Y-98334329D01*
X214503778Y-98795789D01*
X214899198Y-99059999D01*
X214503778Y-99324211D01*
X214195441Y-99785671D01*
X214087167Y-100330000D01*
X214195441Y-100874329D01*
X214503778Y-101335789D01*
X214899198Y-101599999D01*
X214503778Y-101864211D01*
X214195441Y-102325671D01*
X214087167Y-102870000D01*
X214195441Y-103414329D01*
X214503778Y-103875789D01*
X214899198Y-104139999D01*
X214503778Y-104404211D01*
X214195441Y-104865671D01*
X214087167Y-105410000D01*
X214195441Y-105954329D01*
X214503778Y-106415789D01*
X214899198Y-106679999D01*
X214503778Y-106944211D01*
X214195441Y-107405671D01*
X214087167Y-107950000D01*
X214195441Y-108494329D01*
X214503778Y-108955789D01*
X214898829Y-109219753D01*
X214882738Y-109224475D01*
X214448809Y-109574014D01*
X214181673Y-110063004D01*
X214164990Y-110142940D01*
X214287149Y-110363000D01*
X215773000Y-110363000D01*
X215773000Y-110343000D01*
X216027000Y-110343000D01*
X216027000Y-110363000D01*
X217512851Y-110363000D01*
X217635010Y-110142940D01*
X217618327Y-110063004D01*
X217351191Y-109574014D01*
X216917262Y-109224475D01*
X216901170Y-109219753D01*
X217296222Y-108955789D01*
X217604559Y-108494329D01*
X217712833Y-107950000D01*
X217604559Y-107405671D01*
X217296222Y-106944211D01*
X216900801Y-106679999D01*
X217296222Y-106415789D01*
X217604559Y-105954329D01*
X217712833Y-105410000D01*
X217604559Y-104865671D01*
X217296222Y-104404211D01*
X216900801Y-104139999D01*
X217296222Y-103875789D01*
X217604559Y-103414329D01*
X217712833Y-102870000D01*
X217604559Y-102325671D01*
X217296222Y-101864211D01*
X216900801Y-101599999D01*
X217296222Y-101335789D01*
X217604559Y-100874329D01*
X217712833Y-100330000D01*
X217604559Y-99785671D01*
X217296222Y-99324211D01*
X216900801Y-99059999D01*
X217296222Y-98795789D01*
X217604559Y-98334329D01*
X217712833Y-97790000D01*
X217604559Y-97245671D01*
X217296222Y-96784211D01*
X216900801Y-96519999D01*
X217296222Y-96255789D01*
X217604559Y-95794329D01*
X217712833Y-95250000D01*
X217604559Y-94705671D01*
X217296222Y-94244211D01*
X216900801Y-93979999D01*
X217164995Y-93803471D01*
X217353407Y-93765994D01*
X217724223Y-93518223D01*
X219248223Y-91994223D01*
X219495994Y-91623407D01*
X219583000Y-91186000D01*
X219583000Y-90299644D01*
X222756678Y-93473322D01*
X223106893Y-93707328D01*
X223520000Y-93789500D01*
X224774094Y-93789500D01*
X225059198Y-93979999D01*
X224663778Y-94244211D01*
X224355441Y-94705671D01*
X224247167Y-95250000D01*
X224355441Y-95794329D01*
X224663778Y-96255789D01*
X225059198Y-96519999D01*
X224663778Y-96784211D01*
X224355441Y-97245671D01*
X224247167Y-97790000D01*
X224355441Y-98334329D01*
X224663778Y-98795789D01*
X225059198Y-99059999D01*
X224663778Y-99324211D01*
X224355441Y-99785671D01*
X224247167Y-100330000D01*
X224355441Y-100874329D01*
X224663778Y-101335789D01*
X225059198Y-101599999D01*
X224663778Y-101864211D01*
X224355441Y-102325671D01*
X224247167Y-102870000D01*
X224355441Y-103414329D01*
X224663778Y-103875789D01*
X225059198Y-104139999D01*
X224663778Y-104404211D01*
X224355441Y-104865671D01*
X224247167Y-105410000D01*
X224355441Y-105954329D01*
X224663778Y-106415789D01*
X225059198Y-106679999D01*
X224663778Y-106944211D01*
X224355441Y-107405671D01*
X224247167Y-107950000D01*
X224355441Y-108494329D01*
X224663778Y-108955789D01*
X225059198Y-109219999D01*
X224663778Y-109484211D01*
X224355441Y-109945671D01*
X224247167Y-110490000D01*
X224355441Y-111034329D01*
X224663778Y-111495789D01*
X225059198Y-111759999D01*
X224663778Y-112024211D01*
X224355441Y-112485671D01*
X224247167Y-113030000D01*
X224355441Y-113574329D01*
X224663778Y-114035789D01*
X224830950Y-114147490D01*
X224791245Y-114147490D01*
X224557771Y-114243959D01*
X224378987Y-114422432D01*
X224282111Y-114655736D01*
X224281890Y-114908355D01*
X224281890Y-116483155D01*
X224378359Y-116716629D01*
X224556832Y-116895413D01*
X224790136Y-116992289D01*
X224831227Y-116992324D01*
X224663778Y-117104211D01*
X224355441Y-117565671D01*
X224247167Y-118110000D01*
X224355441Y-118654329D01*
X224663778Y-119115789D01*
X225059198Y-119379999D01*
X224663778Y-119644211D01*
X224355441Y-120105671D01*
X224247167Y-120650000D01*
X224355441Y-121194329D01*
X224663778Y-121655789D01*
X225059198Y-121919999D01*
X224663778Y-122184211D01*
X224355441Y-122645671D01*
X224247167Y-123190000D01*
X224355441Y-123734329D01*
X224663778Y-124195789D01*
X225059198Y-124459999D01*
X224663778Y-124724211D01*
X224355441Y-125185671D01*
X224247167Y-125730000D01*
X224355441Y-126274329D01*
X224663778Y-126735789D01*
X225059198Y-126999999D01*
X224663778Y-127264211D01*
X224355441Y-127725671D01*
X224247167Y-128270000D01*
X224355441Y-128814329D01*
X224663778Y-129275789D01*
X225059198Y-129539999D01*
X224663778Y-129804211D01*
X224355441Y-130265671D01*
X224247167Y-130810000D01*
X224355441Y-131354329D01*
X224663778Y-131815789D01*
X225059198Y-132080000D01*
X224663778Y-132344211D01*
X224355441Y-132805671D01*
X224247167Y-133350000D01*
X224355441Y-133894329D01*
X224663778Y-134355789D01*
X225059198Y-134620000D01*
X224663778Y-134884211D01*
X224355441Y-135345671D01*
X224247167Y-135890000D01*
X224355441Y-136434329D01*
X224663778Y-136895789D01*
X225059198Y-137160000D01*
X224663778Y-137424211D01*
X224355441Y-137885671D01*
X224247167Y-138430000D01*
X224355441Y-138974329D01*
X224663778Y-139435789D01*
X225125238Y-139744126D01*
X225669567Y-139852400D01*
X226450433Y-139852400D01*
X226994762Y-139744126D01*
X227456222Y-139435789D01*
X227764559Y-138974329D01*
X227815000Y-138720745D01*
X227815000Y-149315000D01*
M02*
